<?xml version="1.0" encoding="UTF-8" standalone="no"?><!DOCTYPE svg PUBLIC "-//W3C//DTD SVG 1.1//EN" "http://www.w3.org/Graphics/SVG/1.1/DTD/svg11.dtd"><svg width="100%" height="100%" viewBox="0 -1000 4004 5152" version="1.1" xmlns="http://www.w3.org/2000/svg" xmlns:xlink="http://www.w3.org/1999/xlink" xml:space="preserve" xmlns:serif="http://www.serif.com/" style="fill:#b20dff;fill-rule:evenodd;clip-rule:evenodd;stroke-linejoin:round;stroke-miterlimit:2;"><rect id="await" x="3.071" y="2.055" width="4000" height="3125" style="fill:none;"/><g><g><path d="M2083.73,3032.45l6.186,-832.231l-170.833,-0.263l3.328,832.245l161.319,0.249Zm-676.013,-1131.7l-597.385,604.113l114.07,114.07l604.113,-597.385l-120.798,-120.798Zm1072.64,120.668l601.262,597.392l114.314,-113.825l-594.52,-604.105l-121.056,120.538Zm282.576,-511.236l846.144,-3.328l0.245,-161.319l-846.13,-6.186l-0.259,170.833Zm-2365.86,-3.328l832.245,3.328l-0.263,-170.833l-832.231,6.186l0.249,161.319Zm413.389,-1159.2l585.543,589.413l120.534,-121.061l-592.256,-582.671l-113.821,114.319Zm2271.28,-114.194l-589.406,582.678l120.797,120.797l582.679,-589.406l-114.07,-114.069Zm-991.824,432.618l-6.186,-846.13l-161.319,0.245l-3.328,846.145l170.833,-0.26Z"/></g></g></svg>