<?xml version="1.0" encoding="UTF-8" standalone="no"?><!DOCTYPE svg PUBLIC "-//W3C//DTD SVG 1.1//EN" "http://www.w3.org/Graphics/SVG/1.1/DTD/svg11.dtd"><svg width="100%" height="100%" viewBox="0 -1000 4004 5152" version="1.1" xmlns="http://www.w3.org/2000/svg" xmlns:xlink="http://www.w3.org/1999/xlink" xml:space="preserve" xmlns:serif="http://www.serif.com/" style="fill:#b20dff;fill-rule:evenodd;clip-rule:evenodd;stroke-linejoin:round;stroke-miterlimit:2;"><rect id="brick_block" x="1.603" y="0.169" width="4000" height="3125" style="fill:none;"/><path d="M2001.6,133.479c45.888,-48.23 110.709,-78.3 182.553,-78.3c262.41,-0 743.44,-0 1005.85,-0c139.152,-0 251.956,112.804 251.956,251.956l0,548.865c0,71.844 -30.07,136.664 -78.3,182.553c48.23,45.888 78.3,110.709 78.3,182.552l0,548.865c0,71.844 -30.07,136.665 -78.3,182.553c48.23,45.889 78.3,110.709 78.3,182.553l0,548.865c0,139.152 -112.804,251.956 -251.956,251.956l-1005.85,0c-71.844,0 -136.665,-30.07 -182.553,-78.3c-45.888,48.23 -110.709,78.3 -182.553,78.3c-262.41,0 -743.44,0 -1005.85,0c-139.152,0 -251.956,-112.804 -251.956,-251.956l-0,-548.865c-0,-71.844 30.07,-136.664 78.3,-182.553c-48.23,-45.888 -78.3,-110.709 -78.3,-182.553c-0,-159.377 -0,-389.487 -0,-548.865c-0,-71.843 30.07,-136.664 78.3,-182.552c-48.23,-45.889 -78.3,-110.709 -78.3,-182.553l-0,-548.865c-0,-139.152 112.804,-251.956 251.956,-251.956l1005.85,-0c71.844,-0 136.665,30.07 182.553,78.3Zm-151.303,1857.2l-1037.1,0c-62.491,0 -113.15,50.659 -113.15,113.15c0,159.378 0,420.737 0,580.115c0,62.491 50.659,113.15 113.15,113.15c262.41,-0 774.69,-0 1037.1,-0c62.491,-0 113.15,-50.659 113.15,-113.15l-0,-580.115c-0,-62.491 -50.659,-113.15 -113.15,-113.15Zm1339.71,0l-1037.1,0c-62.491,0 -113.15,50.659 -113.15,113.15l0,580.115c0,62.491 50.659,113.15 113.15,113.15c262.41,-0 774.69,-0 1037.1,-0c62.491,-0 113.15,-50.659 113.15,-113.15l-0,-580.115c-0,-62.491 -50.659,-113.15 -113.15,-113.15Zm-745.477,-76.306c30.009,0 58.789,-11.921 80.009,-33.141c21.22,-21.219 33.141,-49.999 33.141,-80.009l-0,-611.365c-0,-30.009 -11.921,-58.789 -33.141,-80.008c-21.22,-21.22 -50,-33.141 -80.009,-33.141l-885.852,-0c-30.009,-0 -58.79,11.921 -80.009,33.141c-21.22,21.219 -33.141,49.999 -33.141,80.008l0,611.365c0,30.01 11.921,58.79 33.141,80.009c21.219,21.22 50,33.141 80.009,33.141l885.852,0Zm-1631.33,-837.664c-62.491,-0 -113.15,50.659 -113.15,113.149c0,159.378 0,451.988 0,611.365c0,62.491 50.659,113.15 113.15,113.15c124.07,0 318.801,0 442.871,0c62.491,0 113.15,-50.659 113.15,-113.15l-0,-611.365c-0,-62.49 -50.659,-113.149 -113.15,-113.149l-442.871,-0Zm2376.81,-0l-442.871,-0c-62.491,-0 -113.15,50.659 -113.15,113.149l0,611.365c0,62.491 50.659,113.15 113.15,113.15c124.07,0 318.801,0 442.871,0c62.491,0 113.15,-50.659 113.15,-113.15l-0,-611.365c-0,-62.49 -50.659,-113.149 -113.15,-113.149Zm-1965.18,-76.307l625.479,0c62.491,0 113.15,-50.658 113.15,-113.149l-0,-580.115c-0,-62.491 -50.659,-113.15 -113.15,-113.15c-262.41,0 -774.69,0 -1037.1,0c-62.491,0 -113.15,50.659 -113.15,113.15c0,159.378 0,420.737 0,580.115c0,62.491 50.659,113.149 113.15,113.149l-0,0l411.621,0l0,0Zm1965.18,0c62.491,0 113.15,-50.658 113.15,-113.149l-0,-580.115c-0,-62.491 -50.659,-113.15 -113.15,-113.15c-262.41,0 -774.69,0 -1037.1,0c-62.491,0 -113.15,50.659 -113.15,113.15l0,580.115c0,62.491 50.659,113.149 113.15,113.149l625.479,0l-0,0c124.07,0 287.551,0 411.621,0l0,0Z"/></svg>