<?xml version="1.0" encoding="UTF-8" standalone="no"?><!DOCTYPE svg PUBLIC "-//W3C//DTD SVG 1.1//EN" "http://www.w3.org/Graphics/SVG/1.1/DTD/svg11.dtd"><svg width="100%" height="100%" viewBox="0 -1000 4004 5152" version="1.1" xmlns="http://www.w3.org/2000/svg" xmlns:xlink="http://www.w3.org/1999/xlink" xml:space="preserve" xmlns:serif="http://www.serif.com/" style="fill:#b20dff;fill-rule:evenodd;clip-rule:evenodd;stroke-linejoin:round;stroke-miterlimit:2;"><rect id="camera" x="1.591" y="2.538" width="4000" height="3125" style="fill:none;"/><g><g><circle cx="2939.51" cy="765.224" r="253.652"/><circle cx="1631.22" cy="765.224" r="253.652"/><path d="M811.838,1504.88l-603.978,-287.565l-110.227,-52.495l-0,1503.2l761.149,-362.495l0,527.932l2711.28,-0l0,-1336.57c205.39,-177.169 335.482,-439.346 335.482,-731.66c0,-533.171 -432.866,-966.037 -966.037,-966.037c-256.171,-0 -489.195,99.91 -662.199,262.915c-173.004,-163.006 -406.028,-262.915 -662.199,-262.915c-533.171,-0 -966.038,432.866 -966.038,966.037c0,153.357 99.318,521.908 162.762,739.651Zm28.325,638.757l-588.364,280.206c0,0 0,-1014.85 0,-1014.85c151.588,72.188 421.491,200.71 561.389,267.276c42.91,20.436 93.848,13.78 130.087,-17.013c36.24,-30.794 51.031,-79.989 37.782,-125.661l-0.098,-0.338c-56.004,-186.674 -177.716,-605.176 -177.716,-768.031c0,-448.084 363.787,-811.871 811.871,-811.871c240.137,0 456.054,104.506 604.792,270.493l57.407,64.065l57.407,-64.065c148.738,-165.987 364.654,-270.493 604.792,-270.493c448.084,0 811.871,363.787 811.871,811.871c-0,257.082 -119.773,486.403 -306.443,635.183l-29.039,23.145l-0,1255.74c-0,0 -2402.95,0 -2402.95,0c-0,-0 -0,-426.564 -0,-426.564c-0,-41.465 -21.262,-80.034 -56.324,-102.171c-35.061,-22.137 -79.025,-24.749 -116.462,-6.92l0,-0Z"/></g></g></svg>