<?xml version="1.0" encoding="UTF-8" standalone="no"?><!DOCTYPE svg PUBLIC "-//W3C//DTD SVG 1.1//EN" "http://www.w3.org/Graphics/SVG/1.1/DTD/svg11.dtd"><svg width="100%" height="100%" viewBox="0 -1000 4004 5152" version="1.1" xmlns="http://www.w3.org/2000/svg" xmlns:xlink="http://www.w3.org/1999/xlink" xml:space="preserve" xmlns:serif="http://www.serif.com/" style="fill:#b20dff;fill-rule:evenodd;clip-rule:evenodd;stroke-linejoin:round;stroke-miterlimit:2;"><rect id="casette" x="1.723" y="1.692" width="4000" height="3125" style="fill:none;"/><g><path d="M3809.5,399.617l-3615.56,-0l0,2329.15l3615.56,0l-0,-2329.15Zm-150,150l-0,2029.15c-0,0 -3315.56,0 -3315.56,0c0,-420.695 0,-1608.45 0,-2029.15c0,-0 3315.56,-0 3315.56,-0l-0,-0Zm-1304.2,1402.1l-686.721,-0c107.26,-97.212 174.662,-237.587 174.662,-393.582c-0,-293.111 -237.97,-531.081 -531.082,-531.081c-293.112,-0 -531.081,237.97 -531.081,531.081c-0,293.112 237.969,531.082 531.081,531.082l0,-0c0,-0 1399.56,-0 1399.56,-0c293.112,-0 531.082,-237.97 531.082,-531.082c-0,-293.111 -237.97,-531.081 -531.082,-531.081c-293.111,-0 -531.081,237.97 -531.081,531.081c0,155.995 67.402,296.37 174.662,393.582Zm-1043.14,-787.163c217.224,-0 393.582,176.358 393.582,393.581c-0,217.224 -176.358,393.582 -393.582,393.582c-217.223,-0 -393.581,-176.358 -393.581,-393.582c-0,-217.223 176.358,-393.581 393.581,-393.581Zm1399.56,-0c217.224,-0 393.582,176.358 393.582,393.581c-0,217.224 -176.358,393.582 -393.582,393.582c-217.223,-0 -393.581,-176.358 -393.581,-393.582c0,-217.223 176.358,-393.581 393.581,-393.581Z"/></g></svg>