<?xml version="1.0" encoding="UTF-8" standalone="no"?><!DOCTYPE svg PUBLIC "-//W3C//DTD SVG 1.1//EN" "http://www.w3.org/Graphics/SVG/1.1/DTD/svg11.dtd"><svg width="100%" height="100%" viewBox="0 -1000 4004 5152" version="1.1" xmlns="http://www.w3.org/2000/svg" xmlns:xlink="http://www.w3.org/1999/xlink" xml:space="preserve" xmlns:serif="http://www.serif.com/" style="fill:#b20dff;fill-rule:evenodd;clip-rule:evenodd;stroke-linejoin:round;stroke-miterlimit:2;"><rect id="circle_option" x="0.195" y="3.104" width="4000" height="3125" style="fill:none;"/><g><g><path d="M1880.5,2222.06l-0,237.517l218.43,-0l0,-237.517l-218.43,0Zm118.776,-1550.42c-150.849,0.617 -280.447,59.024 -377.213,154.907c-87.466,86.662 -153.623,212.602 -177.221,355.041l-2.991,18.051l174.087,30.161l3.25,-17.972c18.577,-102.704 66.056,-193.024 130.279,-255.214c64.369,-62.332 148.834,-100.058 248.136,-100.058c195.275,0 377.533,107.679 377.533,300.612c-0,122.81 -72.122,177.891 -157.187,239.589c-76.056,55.16 -154.974,108.131 -216.625,188.783c-58.867,77.01 -100.63,176.254 -102.229,316.025l-0.21,46.482l176.798,2.635l0.337,-46.47c3.024,-164.733 82.76,-240.514 172.589,-307.208c142.542,-105.832 309.933,-195.994 309.933,-442.264c-0,-293.721 -259.306,-483.1 -559.266,-483.1Z" style="fill:#b20dff;fill-rule:nonzero;"/><path d="M2000.19,-56.416c-895.217,0 -1622.02,726.803 -1622.02,1622.02c0,895.217 726.803,1622.02 1622.02,1622.02c895.217,-0 1622.02,-726.803 1622.02,-1622.02c0,-895.217 -726.803,-1622.02 -1622.02,-1622.02Zm0,158.333c807.831,0 1463.69,655.856 1463.69,1463.69c-0,807.831 -655.856,1463.69 -1463.69,1463.69c-807.83,-0 -1463.69,-655.856 -1463.69,-1463.69c-0,-807.831 655.856,-1463.69 1463.69,-1463.69Z"/></g></g></svg>