<?xml version="1.0" encoding="UTF-8" standalone="no"?><!DOCTYPE svg PUBLIC "-//W3C//DTD SVG 1.1//EN" "http://www.w3.org/Graphics/SVG/1.1/DTD/svg11.dtd"><svg width="100%" height="100%" viewBox="0 -1000 4004 5152" version="1.1" xmlns="http://www.w3.org/2000/svg" xmlns:xlink="http://www.w3.org/1999/xlink" xml:space="preserve" xmlns:serif="http://www.serif.com/" style="fill:#b20dff;fill-rule:evenodd;clip-rule:evenodd;stroke-linejoin:round;stroke-miterlimit:2;"><rect id="circle_result" x="2.398" y="3.104" width="4000" height="3125" style="fill:none;"/><g><g><path d="M889.837,2655.28c273.488,509.631 811.577,856.483 1430.03,856.483c895.217,-0 1622.02,-726.803 1622.02,-1622.02c-0,-606.439 -333.509,-1135.61 -826.924,-1413.82c-273.488,-509.631 -811.577,-856.483 -1430.03,-856.483c-895.217,0 -1622.02,726.803 -1622.02,1622.02c0,606.439 333.509,1135.61 826.924,1413.82l-0,-0Zm2262.89,-1969c62.799,169.925 97.091,353.593 97.091,545.206c0,869.414 -705.854,1575.27 -1575.27,1575.27c-202.659,-0 -396.429,-38.359 -574.457,-108.211c262.246,394.572 710.84,654.887 1219.76,654.887c807.831,0 1463.69,-655.856 1463.69,-1463.69c-0,-498.526 -249.789,-939.161 -630.818,-1203.46Zm-178.735,-138.177c-247.285,-458.475 -732.037,-770.325 -1289.06,-770.325c-807.83,-0 -1463.69,655.856 -1463.69,1463.69c-0,547.763 301.565,1025.63 747.439,1276.51c2.053,0.809 4.082,1.754 6.072,2.838c208.086,113.28 446.489,177.611 699.798,177.611c809.623,0 1466.93,-657.311 1466.93,-1466.93c-0,-242.456 -58.936,-471.256 -163.357,-672.843c-1.777,-3.429 -3.15,-6.962 -4.136,-10.54Zm-2020.52,731.308l556.252,628.862c18.789,21.242 46.352,32.591 74.65,30.738c28.298,-1.853 54.145,-16.699 70.004,-40.209l738.091,-1094.18c28.292,-41.942 17.211,-98.963 -24.731,-127.255c-41.942,-28.292 -98.963,-17.211 -127.256,24.731l-671.88,996.03c0,0 -477.808,-540.179 -477.808,-540.179c-33.52,-37.894 -91.499,-41.447 -129.394,-7.927c-37.895,33.519 -41.447,91.498 -7.928,129.393Z"/></g></g></svg>