<?xml version="1.0" encoding="UTF-8" standalone="no"?><!DOCTYPE svg PUBLIC "-//W3C//DTD SVG 1.1//EN" "http://www.w3.org/Graphics/SVG/1.1/DTD/svg11.dtd"><svg width="100%" height="100%" viewBox="0 -1000 8004 5152" version="1.1" xmlns="http://www.w3.org/2000/svg" xmlns:xlink="http://www.w3.org/1999/xlink" xml:space="preserve" xmlns:serif="http://www.serif.com/" style="fill:#b20dff;fill-rule:evenodd;clip-rule:evenodd;stroke-linejoin:round;stroke-miterlimit:2;"><rect id="cloud_mut" x="1.835" y="2.485" width="8000" height="3125" style="fill:none;"/><g><g><path d="M5605.88,1603.21c-217.427,0 -393.95,176.523 -393.95,393.95c0,217.426 176.523,393.949 393.95,393.949c217.427,0 393.949,-176.523 393.949,-393.949c0,-217.427 -176.522,-393.95 -393.949,-393.95Zm-0,112.5c155.336,0 281.449,126.114 281.449,281.45c0,155.336 -126.113,281.449 -281.449,281.449c-155.336,0 -281.45,-126.113 -281.45,-281.449c0,-155.336 126.114,-281.45 281.45,-281.45Z"/><path d="M3992.13,2753.54c10.983,346.835 296.027,625.063 645.541,625.063c356.466,0 645.871,-289.405 645.871,-645.871c0,-356.465 -289.405,-645.87 -645.871,-645.87c-114.173,-0 -221.466,29.69 -314.599,81.776c73.046,-384.402 -48.983,-778.337 -322.525,-1053.73l16.415,-42.284c144.601,-372.485 41.356,-795.627 -258.552,-1059.65c-0,-0.001 -0.001,-0.002 -0.002,-0.002c-187.973,-165.484 -429.722,-256.943 -680.159,-257.32c0,-0 -57.851,-0.087 -57.851,-0.087c-0,-0 -17.359,-37.442 -17.359,-37.442c-149.885,-323.297 -473.824,-530.174 -830.177,-530.174l-0.001,-0c-356.352,-0 -680.291,206.877 -830.177,530.174c0,0 -17.358,37.442 -17.358,37.442c-0,-0 -57.852,0.087 -57.852,0.087c-250.436,0.377 -492.186,91.836 -680.159,257.32c0,-0 -0.002,0.002 -0.002,0.002c-299.908,264.026 -403.153,687.169 -258.551,1059.65l16.415,42.284c-275.194,277.058 -397.039,674.091 -321.193,1060.64l8.59,43.782c60.903,310.399 277.069,565.238 568.496,677.681c16.588,390.909 249.869,741.743 607.061,907.314c0.001,0 0.001,0.001 0.002,0.001c312.67,144.934 676.853,118.662 964.729,-67.227c287.876,185.889 652.058,212.161 964.728,67.227l0.003,-0.001c357.191,-165.571 590.472,-516.405 607.06,-907.314c90.547,-34.936 173.828,-83.618 247.477,-143.471Zm-320.907,50.418c-10.376,59.901 -38.087,124.303 -38.087,124.303l-2.873,-2.872c-26.158,335.561 -231.216,633.744 -539.983,776.868c-0,0.001 -0.001,0.001 -0.002,0.001c-288.979,133.953 -627.526,103.164 -887.6,-80.721c-18.716,-13.233 -29.816,-21.082 -29.816,-21.082c-0,-0 -11.101,7.849 -29.816,21.082c-260.074,183.885 -598.621,214.674 -887.601,80.721c-0.001,0 -0.001,-0 -0.002,-0.001c-308.767,-143.124 -513.824,-441.307 -539.983,-776.868l-2.872,2.872l2.853,-3.112c-1.911,-24.135 -2.863,-48.508 -2.859,-73.031c0.004,-22.937 0.006,-36.357 0.006,-36.357c-0,0 -0,0 -0.001,-0c-291.161,-82.254 -511.364,-321.196 -569.618,-618.092c-2.852,-14.534 -5.718,-29.141 -8.59,-43.782c-73.274,-373.445 57.368,-757.702 343.079,-1009.1c-0,-0 0,-0 0,-0c0,-0 -17.712,-45.627 -43.822,-112.882c-127.523,-328.491 -36.472,-701.657 228.015,-934.5c0,-0.001 0.001,-0.001 0.002,-0.002c167.475,-147.438 382.863,-228.924 605.99,-229.26c73.576,-0.111 129.578,-0.195 129.578,-0.195c0,-0 19.338,-41.71 47.528,-102.515c131.458,-283.551 415.571,-464.993 728.112,-464.993l0.001,-0c312.542,-0 596.655,181.442 728.113,464.993c28.19,60.805 47.527,102.515 47.527,102.515c0,-0 56.002,0.084 129.578,0.195c223.128,0.336 438.515,81.822 605.991,229.26c0,0.001 0.001,0.001 0.002,0.002c264.486,232.843 355.537,606.009 228.014,934.5c-26.109,67.255 -43.821,112.882 -43.821,112.882c-0,-0 -0,-0 -0,-0c285.711,251.395 416.353,635.652 343.079,1009.1c-2.873,14.641 -5.739,29.248 -8.59,43.782c-55.685,283.803 -259.35,514.65 -531.532,606.289Zm442.023,-169.066c-0.066,0.421 -0.139,0.845 -0.217,1.27c-5.738,31.348 -8.728,63.612 -8.728,96.57c-0,294.376 238.995,533.371 533.37,533.371c294.376,0 533.371,-238.995 533.371,-533.371c0,-294.375 -238.995,-533.37 -533.371,-533.37c-122.914,-0 -236.175,41.665 -326.433,111.662c-14.348,11.127 -32.341,34.489 -32.341,34.489c-37.381,106.848 -93.891,204.711 -165.651,289.379Z"/><path d="M3004.4,1007.37c134.677,-191.892 26.988,-319.919 -145.996,-417.366c-173.019,-97.465 -344.54,-126.775 -479.245,65.154c-123.676,176.216 -962.953,1338.7 -962.953,1338.7l-77.959,724.581l699.821,-363.773c0,0 842.541,-1170.91 966.331,-1347.29l0.001,-0.008Zm-795.253,63.111l444.485,250.39c-252.842,352.723 -599.341,834.327 -684.399,952.524l-497.826,258.775l55.411,-515.002c85.582,-118.538 430.242,-596.007 682.33,-946.692l-0.001,0.005Zm511.72,156.549l-444.356,-250.315c90.359,-125.851 161.71,-225.615 193.233,-270.528c48.325,-68.856 104.238,-86.733 163.644,-77.243c50.223,8.024 102.014,31.982 154.492,61.545c52.704,29.691 99.954,61.523 130.558,99.038c36.159,44.329 43.864,97.733 -4.623,166.817c-31.419,44.768 -102.683,144.627 -192.948,270.686Z" style="fill:#b20dff;fill-rule:nonzero;"/></g></g></svg>