<?xml version="1.0" encoding="UTF-8" standalone="no"?><!DOCTYPE svg PUBLIC "-//W3C//DTD SVG 1.1//EN" "http://www.w3.org/Graphics/SVG/1.1/DTD/svg11.dtd"><svg width="100%" height="100%" viewBox="0 -1000 8004 5152" version="1.1" xmlns="http://www.w3.org/2000/svg" xmlns:xlink="http://www.w3.org/1999/xlink" xml:space="preserve" xmlns:serif="http://www.serif.com/" style="fill:#b20dff;fill-rule:evenodd;clip-rule:evenodd;stroke-linejoin:round;stroke-miterlimit:2;"><rect id="cloud_refmut" x="1.835" y="2.52" width="8000" height="3125" style="fill:none;"/><g><g><path d="M1002.78,144.416l-111.779,20.378c-413.742,75.43 -747.139,382.234 -856.623,788.295c0,0.001 -0,0.003 -0,0.003c-103.023,382.098 46.075,787.634 372.067,1012c0,-0 95.387,65.651 95.387,65.651c0,-0 -44.791,108.72 -44.791,108.72c-183.932,446.452 -31.318,960.732 366.368,1234.59l0,0.001c266.446,183.48 597.127,248.059 913.027,178.304l144.043,-31.806c254.718,379.647 682.886,609.639 1143.39,609.639l0.002,-0c460.503,-0 888.671,-229.992 1143.39,-609.639l144.043,31.806c315.9,69.755 646.581,5.176 913.026,-178.304c0.001,-0.001 0.001,-0.001 0.001,-0.001c397.686,-273.856 550.3,-788.136 366.368,-1234.59c-0,-0 -44.791,-108.72 -44.791,-108.72c-0,-0 95.386,-65.651 95.386,-65.651c325.993,-224.368 475.09,-629.904 372.068,-1012c-0,-0.001 -0,-0.001 -0.001,-0.002c-109.483,-406.062 -442.88,-712.866 -856.623,-788.296l-111.778,-20.378c-29.96,-433.416 -307.337,-814.323 -716.568,-973.689c-0.001,-0 -0.002,-0.001 -0.003,-0.001c-434.194,-169.087 -922.394,-111.723 -1304.52,149.763c-382.124,-261.485 -870.324,-318.85 -1304.52,-149.763c-0.001,0 -0.003,0.001 -0.003,0.001c-409.232,159.366 -686.609,540.273 -716.568,973.689Zm2008.53,-694.364c-358.393,-271.61 -832.1,-337.678 -1251.13,-174.495c-0.001,0.001 -0.002,0.001 -0.003,0.002c-390.56,152.094 -647.732,528.307 -647.65,947.437c0.002,10.181 0.003,15.766 0.003,15.766c-0,0 -85.72,15.628 -201.346,36.708c-371.025,67.642 -670,342.769 -768.179,706.906c-0.001,0.001 -0.001,0.002 -0.001,0.003c-90.607,336.05 40.522,692.714 327.229,890.043c97.127,66.849 170.234,117.166 170.234,117.166c-0,-0 -33.184,80.545 -79.403,192.731c-163.743,397.449 -27.88,855.281 326.155,1099.08c-0,0 0,0 0,0c240.747,165.784 539.534,224.134 824.965,161.107c122.036,-26.947 221.291,-48.863 221.291,-48.863c-0,-0 0.861,1.452 2.5,4.218c227.731,384.227 641.252,619.832 1087.9,619.832l0.002,-0c446.645,-0 860.167,-235.605 1087.9,-619.832c1.639,-2.766 2.5,-4.218 2.5,-4.218c-0,-0 99.255,21.916 221.291,48.863c285.431,63.027 584.218,4.677 824.964,-161.107c0.001,0 0.001,0 0.001,-0c354.035,-243.797 489.898,-701.629 326.154,-1099.08c-46.219,-112.186 -79.402,-192.731 -79.402,-192.731c-0,-0 73.107,-50.317 170.234,-117.166c286.707,-197.329 417.836,-553.993 327.229,-890.043c-0,-0.001 -0,-0.002 -0.001,-0.003c-98.18,-364.137 -397.154,-639.264 -768.179,-706.906c-115.627,-21.08 -201.346,-36.708 -201.346,-36.708c-0,0 0.001,-5.585 0.003,-15.766c0.082,-419.13 -257.09,-795.343 -647.65,-947.437c-0.001,-0.001 -0.002,-0.001 -0.003,-0.002c-419.033,-163.183 -892.74,-97.115 -1251.13,174.495c-8.117,6.152 -12.561,9.52 -12.561,9.52c-0,-0 -4.444,-3.368 -12.561,-9.52Z"/><path d="M6522.72,2086.9c-356.466,-0 -645.871,289.405 -645.871,645.87c-0,356.466 289.405,645.871 645.871,645.871c356.466,0 645.871,-289.405 645.871,-645.871c-0,-356.465 -289.405,-645.87 -645.871,-645.87Zm-0,112.5c294.375,-0 533.371,238.995 533.371,533.37c-0,294.376 -238.996,533.371 -533.371,533.371c-294.376,0 -533.371,-238.995 -533.371,-533.371c-0,-294.375 238.995,-533.37 533.371,-533.37Z"/><path d="M7607.89,1603.25c-217.427,0 -393.95,176.523 -393.95,393.95c0,217.426 176.523,393.949 393.95,393.949c217.426,0 393.949,-176.523 393.949,-393.949c0,-217.427 -176.523,-393.95 -393.949,-393.95Zm-0,112.5c155.336,0 281.449,126.114 281.449,281.45c0,155.336 -126.113,281.449 -281.449,281.449c-155.337,0 -281.45,-126.113 -281.45,-281.449c0,-155.336 126.113,-281.45 281.45,-281.45Z"/><g><path d="M2560.55,1777.84l-54.709,281.713c-38.761,199.593 -232.277,361.639 -431.873,361.639c-199.593,-0 -330.169,-162.046 -291.408,-361.639l54.709,-281.713c7.636,-39.318 -18.087,-71.238 -57.406,-71.238c-39.318,-0 -77.436,31.92 -85.072,71.238l-54.709,281.713c-54.033,278.229 127.988,504.117 406.217,504.117c278.232,0 547.988,-225.888 602.02,-504.117l54.709,-281.713c7.636,-39.318 -18.088,-71.238 -57.403,-71.238c-39.318,-0 -77.439,31.92 -85.075,71.238Zm-320.574,144.446l150.116,-762.07c7.744,-39.318 -17.872,-71.328 -57.166,-71.438c-39.298,-0.108 -77.489,31.724 -85.235,71.042l-150.117,762.071c-7.743,39.318 17.873,71.328 57.17,71.435c39.294,0.111 77.488,-31.722 85.232,-71.04Zm-310.738,-618.019l54.709,-281.713c38.761,-199.593 232.277,-361.639 431.87,-361.639c199.596,-0 330.172,162.046 291.411,361.639l-54.709,281.713c-7.636,39.318 18.087,71.238 57.405,71.238c39.316,-0 77.437,-31.92 85.073,-71.238l54.709,-281.713c54.032,-278.229 -127.988,-504.117 -406.22,-504.117c-278.229,-0 -547.985,225.888 -602.017,504.117l-54.709,281.713c-7.636,39.318 18.085,71.238 57.403,71.238c39.318,-0 77.439,-31.92 85.075,-71.238Z" style="fill:#b20dff;fill-rule:nonzero;"/><path d="M4696.66,1007.41c134.71,-191.892 27.043,-319.919 -145.924,-417.366c-173.002,-97.465 -344.518,-126.775 -479.256,65.154c-123.707,176.216 -963.185,1338.7 -963.185,1338.7l-78.084,724.581l699.884,-363.773c0,0 842.743,-1170.91 966.563,-1347.29l0.002,-0.008Zm-795.264,63.111l444.441,250.389c-252.903,352.724 -599.485,834.328 -684.563,952.525l-497.871,258.775l55.5,-515.002c85.602,-118.538 430.345,-596.007 682.494,-946.692l-0.001,0.005Zm511.693,156.549l-444.313,-250.315c90.381,-125.851 161.749,-225.615 193.279,-270.528c48.338,-68.856 104.254,-86.733 163.658,-77.243c50.222,8.024 102.008,31.982 154.482,61.545c52.699,29.691 99.943,61.523 130.54,99.038c36.152,44.329 43.848,97.733 -4.651,166.817c-31.427,44.768 -102.708,144.627 -192.995,270.686Z" style="fill:#b20dff;fill-rule:nonzero;"/></g></g></g></svg>