<?xml version="1.0" encoding="UTF-8" standalone="no"?><!DOCTYPE svg PUBLIC "-//W3C//DTD SVG 1.1//EN" "http://www.w3.org/Graphics/SVG/1.1/DTD/svg11.dtd"><svg width="100%" height="100%" viewBox="0 -1000 4004 5152" version="1.1" xmlns="http://www.w3.org/2000/svg" xmlns:xlink="http://www.w3.org/1999/xlink" xml:space="preserve" xmlns:serif="http://www.serif.com/" style="fill:#b20dff;fill-rule:evenodd;clip-rule:evenodd;stroke-linejoin:round;stroke-miterlimit:2;"><rect id="coda_circle" x="0.179" y="3.095" width="4000" height="3125" style="fill:none;"/><g><g><path d="M1933.51,-43.238l133.333,0l-0,414.678c607.052,33.43 1094.05,520.419 1127.49,1127.49l414.678,0l0,133.334l-414.678,-0c-33.734,612.588 -529.339,1102.92 -1144.15,1128.29l0,413.875l-100,0l0,-413.875c-614.794,-25.361 -1110.4,-515.68 -1144.15,-1128.29l-414.678,-0l0,-133.334l414.678,0c33.43,-607.051 520.419,-1094.05 1127.49,-1127.49l-0,-414.678Zm16.666,2641.13l0,-982.295l-982.295,0c25.34,530.645 451.636,956.947 982.295,982.295Zm1082.3,-982.295l-982.295,0l0,982.295c530.645,-25.339 956.947,-451.636 982.295,-982.295Zm-1082.3,-1082.3c-530.645,25.34 -956.947,451.636 -982.295,982.295l982.295,0l0,-982.295Zm100,-0l0,982.295l982.295,0c-25.339,-530.645 -451.636,-956.947 -982.295,-982.295Z"/></g></g></svg>