<?xml version="1.0" encoding="UTF-8" standalone="no"?><!DOCTYPE svg PUBLIC "-//W3C//DTD SVG 1.1//EN" "http://www.w3.org/Graphics/SVG/1.1/DTD/svg11.dtd"><svg width="100%" height="100%" viewBox="0 -1000 4004 5152" version="1.1" xmlns="http://www.w3.org/2000/svg" xmlns:xlink="http://www.w3.org/1999/xlink" xml:space="preserve" xmlns:serif="http://www.serif.com/" style="fill:#b20dff;fill-rule:evenodd;clip-rule:evenodd;stroke-linejoin:round;stroke-miterlimit:2;"><rect id="const_lock" x="0.23" y="0.739" width="4000" height="3125" style="fill:none;"/><path d="M1257.94,1367.78l-0,-486.114c-0,-409.684 332.611,-742.295 742.294,-742.295c409.684,0 742.295,332.611 742.295,742.295l-0,486.114l336.01,0l0,1335.74c0,0 -2156.61,0 -2156.61,0c-0,0 -0,-1335.74 -0,-1335.74l336.01,0Zm-173.973,127.979l-0,1058.49l1832.54,0l0,-1058.49l-1832.54,0Zm1496.53,-127.979l-0,-486.114c-0,-320.253 -260.005,-580.258 -580.258,-580.258c-320.252,0 -580.257,260.005 -580.257,580.258l-0,486.114l1160.52,0Z"/></svg>