<?xml version="1.0" encoding="UTF-8" standalone="no"?><!DOCTYPE svg PUBLIC "-//W3C//DTD SVG 1.1//EN" "http://www.w3.org/Graphics/SVG/1.1/DTD/svg11.dtd"><svg width="100%" height="100%" viewBox="0 -1000 4004 5152" version="1.1" xmlns="http://www.w3.org/2000/svg" xmlns:xlink="http://www.w3.org/1999/xlink" xml:space="preserve" xmlns:serif="http://www.serif.com/" style="fill:#b20dff;fill-rule:evenodd;clip-rule:evenodd;stroke-linejoin:round;stroke-miterlimit:2;"><rect id="continue_oval" x="3.019" y="2.086" width="4000" height="3125" style="fill:none;"/><g><g id="Ebene1"><path d="M2583.96,371.48c602.766,61.293 1073.78,570.979 1073.78,1189.81c-0,660.083 -535.904,1195.99 -1195.99,1195.99l-820.986,0l-8.223,-2.274c-26.959,1.48 -56.336,2.274 -88.246,2.274c-660.082,0 -1195.99,-535.903 -1195.99,-1195.99c0,-660.083 535.904,-1195.99 1195.99,-1195.99l820.986,0l-68.75,-62.5l-575,-568.75l112.5,-112.5l749.93,749.93Zm-12,162.14l-737.93,737.93l-112.5,-112.5l575,-565.625l71.875,-65.625l-824.111,0c-570.396,0 -1033.49,463.09 -1033.49,1033.49c0,570.397 463.09,1033.49 1033.49,1033.49c29.867,0 57.828,0.931 83.84,2.657l9.504,-2.657l824.111,0c570.396,0 1033.49,-463.089 1033.49,-1033.49c-0,-533.15 -404.585,-972.549 -923.275,-1027.67Z"/></g></g></svg>