<?xml version="1.0" encoding="UTF-8" standalone="no"?><!DOCTYPE svg PUBLIC "-//W3C//DTD SVG 1.1//EN" "http://www.w3.org/Graphics/SVG/1.1/DTD/svg11.dtd"><svg width="100%" height="100%" viewBox="0 -1000 4004 5152" version="1.1" xmlns="http://www.w3.org/2000/svg" xmlns:xlink="http://www.w3.org/1999/xlink" xml:space="preserve" xmlns:serif="http://www.serif.com/" style="fill:#b20dff;fill-rule:evenodd;clip-rule:evenodd;stroke-linejoin:round;stroke-miterlimit:2;"><rect id="count_five" x="2.627" y="2.667" width="4000" height="3125" style="fill:none;"/><g><path d="M1472.23,1644.34l-727.465,228.39l0,-1557.57l-166.666,0l-0,1609.89l-516.844,162.265l49.923,159.014l466.921,-146.591l-0,715.42l166.666,0l0,-767.746l727.465,-228.39l-0,996.136l166.666,0l0,-1048.46l727.465,-228.39l-0,1276.85l166.667,0l-0,-1329.18l727.464,-228.39l0,1557.57l166.667,0l-0,-1609.89l516.843,-162.265l-49.923,-159.014l-466.92,146.591l-0,-715.421l-166.667,0l0,767.747l-727.464,228.389l-0,-996.136l-166.667,0l-0,1048.46l-727.465,228.389l0,-1276.85l-166.666,0l-0,1329.18Z"/></g></svg>