<?xml version="1.0" encoding="UTF-8" standalone="no"?><!DOCTYPE svg PUBLIC "-//W3C//DTD SVG 1.1//EN" "http://www.w3.org/Graphics/SVG/1.1/DTD/svg11.dtd"><svg width="100%" height="100%" viewBox="0 -1000 2004 5152" version="1.1" xmlns="http://www.w3.org/2000/svg" xmlns:xlink="http://www.w3.org/1999/xlink" xml:space="preserve" xmlns:serif="http://www.serif.com/" style="fill:#b20dff;fill-rule:evenodd;clip-rule:evenodd;stroke-linejoin:round;stroke-miterlimit:2;"><rect id="cute_bug_single_wide" x="2.578" y="2.128" width="2000" height="3125" style="fill:none;"/><g><g><path d="M1137.51,1034.54c-44.035,-9.023 -89.36,-13.732 -135.616,-13.732c-49.778,-0 -98.476,5.453 -145.603,15.855c-51.978,-220.832 -142.254,-369.741 -238.424,-450.475c-77.454,-65.021 -160.691,-89.371 -238.116,-78.976c-164.966,22.148 -288.162,220.354 -177.016,369.573c58.363,78.355 177.916,108.073 259.82,43.353c32.336,-25.551 37.844,-72.548 12.293,-104.883c-25.551,-32.335 -72.548,-37.843 -104.883,-12.292c-6.859,5.42 -15.132,5.452 -22.856,2.906c-9.601,-3.166 -18.529,-10.137 -24.605,-18.294c-20.101,-26.986 -16.599,-57.336 -0.961,-81.937c16.596,-26.11 46.417,-46.161 78.081,-50.412c40.232,-5.402 81.974,11.556 122.221,45.343c79.372,66.631 148.265,192.976 190.515,376.448c0.606,2.632 1.346,5.2 2.209,7.698c-172.481,80.166 -312.84,230.441 -391.215,419.44c0,-0 -282.578,-79.816 -282.578,-79.816l-40.594,143.719l277.854,78.482c-14.865,65.225 -22.782,133.627 -22.782,204.147c-0,132.13 27.488,251.931 76.292,355.657c0.001,0 -262.706,138.4 -262.706,138.4l69.608,132.128l270.11,-142.3c136.667,182.26 351.856,289.783 593.336,289.783c242.614,-0 458.691,-108.535 595.26,-292.363c0,0 275.007,144.88 275.007,144.88l69.608,-132.128l-268.179,-141.283c47.961,-103.057 74.943,-221.864 74.943,-352.774c0,-70.385 -7.886,-138.662 -22.699,-203.784c-0,0 279.142,-78.845 279.142,-78.845l-40.594,-143.719l-283.805,80.162c-79.727,-192.502 -223.739,-344.865 -400.531,-423.971c0.326,-1.157 0.626,-2.329 0.898,-3.513c42.25,-183.472 111.144,-309.817 190.515,-376.448c40.248,-33.787 81.989,-50.745 122.222,-45.343c31.663,4.251 61.484,24.302 78.081,50.412c15.637,24.601 19.139,54.951 -0.961,81.937c-6.076,8.157 -15.005,15.128 -24.606,18.294c-7.723,2.546 -15.996,2.514 -22.855,-2.906c-32.336,-25.551 -79.332,-20.043 -104.883,12.292c-25.551,32.335 -20.043,79.332 12.292,104.883c81.904,64.72 201.458,35.002 259.82,-43.353c111.147,-149.219 -12.05,-347.425 -177.016,-369.573c-77.424,-10.395 -160.661,13.955 -238.115,78.976c-95.86,80.473 -185.863,228.681 -237.928,448.352Zm-135.616,135.61c332.2,-0 597.297,307.185 597.297,680.537c0,371.425 -266.811,624.326 -597.297,624.326c-330.487,-0 -597.298,-252.901 -597.298,-624.326c0,-373.352 265.097,-680.537 597.298,-680.537Z"/></g></g></svg>