<?xml version="1.0" encoding="UTF-8" standalone="no"?><!DOCTYPE svg PUBLIC "-//W3C//DTD SVG 1.1//EN" "http://www.w3.org/Graphics/SVG/1.1/DTD/svg11.dtd"><svg width="100%" height="100%" viewBox="0 -1000 4004 5152" version="1.1" xmlns="http://www.w3.org/2000/svg" xmlns:xlink="http://www.w3.org/1999/xlink" xml:space="preserve" xmlns:serif="http://www.serif.com/" style="fill:#b20dff;fill-rule:evenodd;clip-rule:evenodd;stroke-linejoin:round;stroke-miterlimit:2;"><rect id="cute_bug" x="2.892" y="0.731" width="4000" height="3125" style="fill:none;"/><g><path d="M2185.25,923.222c-59.27,-13.494 -120.54,-20.572 -183.21,-20.572c-67.186,0 -132.762,8.135 -195.929,23.575c-0.314,-3.112 -0.827,-6.238 -1.547,-9.364c-63.401,-275.321 -174.455,-460.966 -293.56,-560.953c-92.139,-77.349 -190.981,-106.843 -283.084,-94.477c-193.292,25.952 -339.003,257.537 -208.772,432.378c67.067,90.04 204.3,125.075 298.418,50.704c32.478,-25.664 38.01,-72.868 12.347,-105.345c-25.664,-32.478 -72.868,-38.01 -105.345,-12.347c-27.386,21.64 -65.609,3.584 -85.123,-22.615c-60.307,-80.965 18.926,-182.091 108.435,-194.109c54.745,-7.35 111.913,14.72 166.679,60.696c101.237,84.986 189.942,245.714 243.831,479.729c1.9,8.249 5.096,15.865 9.324,22.682c-223.5,98.152 -404.711,291.814 -501.874,536.493l-350.873,-99.107l-40.773,144.352l346.067,97.749c-20.821,85.154 -31.955,174.883 -31.955,267.591c-0,168.734 36.481,321.087 101.047,451.841l-327.339,172.449l69.915,132.71l334.896,-176.43c166.663,230.565 434.289,366.901 735.215,366.901c302.335,-0 571.059,-137.616 737.555,-370.154l341.071,179.683l69.914,-132.71l-334.103,-176.013c63.473,-129.95 99.297,-281.071 99.297,-448.277c0,-92.538 -11.094,-182.11 -31.844,-267.139l347.668,-98.201l-40.773,-144.352l-352.413,99.541c-98.631,-248.705 -284.074,-444.746 -512.54,-541.452c2.959,-5.614 5.245,-11.691 6.734,-18.157c53.889,-234.015 142.594,-394.743 243.83,-479.729c54.767,-45.976 111.934,-68.046 166.68,-60.696c89.509,12.018 168.742,113.144 108.435,194.109c-19.514,26.199 -57.737,44.255 -85.123,22.615c-32.478,-25.663 -79.681,-20.131 -105.345,12.347c-25.663,32.477 -20.131,79.681 12.347,105.345c94.118,74.371 231.351,39.336 298.418,-50.704c130.231,-174.841 -15.48,-406.426 -208.772,-432.378c-92.103,-12.366 -190.946,17.128 -283.084,94.477c-119.105,99.987 -230.16,285.632 -293.56,560.953c-0.489,2.121 -0.882,4.243 -1.182,6.361Zm-183.21,129.428c424.069,0 763.734,391.032 763.734,867.632c0,474.668 -341.385,797.471 -763.734,797.471c-422.349,-0 -763.734,-322.803 -763.734,-797.471c-0,-476.6 339.665,-867.632 763.734,-867.632Z"/></g></svg>