<?xml version="1.0" encoding="UTF-8" standalone="no"?><!DOCTYPE svg PUBLIC "-//W3C//DTD SVG 1.1//EN" "http://www.w3.org/Graphics/SVG/1.1/DTD/svg11.dtd"><svg width="100%" height="100%" viewBox="0 -1000 8004 5152" version="1.1" xmlns="http://www.w3.org/2000/svg" xmlns:xlink="http://www.w3.org/1999/xlink" xml:space="preserve" xmlns:serif="http://www.serif.com/" style="fill:#b20dff;fill-rule:evenodd;clip-rule:evenodd;stroke-linejoin:round;stroke-miterlimit:2;"><rect id="debug_assertions_cute_bug" x="2.892" y="1.994" width="8000" height="3125" style="fill:none;"/><g><path d="M2185.25,924.485c-59.27,-13.494 -120.54,-20.572 -183.21,-20.572c-67.186,-0 -132.762,8.135 -195.929,23.574c-0.314,-3.112 -0.827,-6.238 -1.547,-9.364c-63.401,-275.32 -174.455,-460.966 -293.56,-560.953c-92.139,-77.348 -190.981,-106.842 -283.084,-94.477c-193.292,25.952 -339.003,257.538 -208.772,432.379c67.067,90.039 204.3,125.075 298.418,50.703c32.478,-25.663 38.01,-72.867 12.347,-105.345c-25.664,-32.478 -72.868,-38.01 -105.345,-12.346c-27.386,21.64 -65.609,3.584 -85.123,-22.615c-60.307,-80.965 18.926,-182.092 108.435,-194.109c54.745,-7.351 111.913,14.72 166.679,60.695c101.237,84.987 189.942,245.714 243.831,479.729c1.9,8.249 5.096,15.866 9.324,22.683c-223.5,98.151 -404.711,291.813 -501.874,536.492l-350.873,-99.106l-40.773,144.352l346.067,97.749c-20.821,85.153 -31.955,174.883 -31.955,267.591c-0,168.734 36.481,321.086 101.047,451.841l-327.339,172.448l69.915,132.71l334.896,-176.429c166.663,230.565 434.289,366.9 735.215,366.9c302.335,0 571.059,-137.616 737.555,-370.154l341.071,179.683l69.914,-132.71l-334.103,-176.012c63.473,-129.951 99.297,-281.071 99.297,-448.277c0,-92.539 -11.094,-182.11 -31.844,-267.139l347.668,-98.201l-40.773,-144.352l-352.413,99.541c-98.631,-248.705 -284.074,-444.746 -512.54,-541.453c2.959,-5.613 5.245,-11.691 6.734,-18.157c53.889,-234.015 142.594,-394.742 243.83,-479.729c54.767,-45.975 111.934,-68.046 166.68,-60.695c89.509,12.017 168.742,113.144 108.435,194.109c-19.514,26.199 -57.737,44.255 -85.123,22.615c-32.478,-25.664 -79.681,-20.132 -105.345,12.346c-25.663,32.478 -20.131,79.682 12.347,105.345c94.118,74.372 231.351,39.336 298.418,-50.703c130.231,-174.841 -15.48,-406.427 -208.772,-432.379c-92.103,-12.365 -190.946,17.129 -283.084,94.477c-119.105,99.987 -230.16,285.633 -293.56,560.953c-0.489,2.122 -0.882,4.244 -1.182,6.362Zm-183.21,129.428c424.069,-0 763.734,391.032 763.734,867.632c0,474.667 -341.385,797.47 -763.734,797.47c-422.349,0 -763.734,-322.803 -763.734,-797.47c-0,-476.6 339.665,-867.632 763.734,-867.632Z"/></g><path d="M6824.62,1937.95l702.18,-1041.42c40.096,-66.808 126.889,-88.494 193.697,-48.398c66.809,40.097 88.495,126.89 48.398,193.698l-802.979,1209.37c-23.353,38.911 -63.987,64.223 -109.208,68.029c-45.221,3.805 -89.514,-14.359 -119.043,-48.82l-610.231,-696.066c-50.699,-59.167 -43.824,-148.364 15.343,-199.063c59.167,-50.698 148.364,-43.823 199.063,15.344l482.78,547.326Z"/><rect x="4184.14" y="2501.99" width="1640.62" height="143.75"/></svg>