<?xml version="1.0" encoding="UTF-8" standalone="no"?><!DOCTYPE svg PUBLIC "-//W3C//DTD SVG 1.1//EN" "http://www.w3.org/Graphics/SVG/1.1/DTD/svg11.dtd"><svg width="100%" height="100%" viewBox="0 -1000 8000 5152" version="1.1" xmlns="http://www.w3.org/2000/svg" xmlns:xlink="http://www.w3.org/1999/xlink" xml:space="preserve" xmlns:serif="http://www.serif.com/" style="fill:#b20dff;fill-rule:evenodd;clip-rule:evenodd;stroke-linejoin:round;stroke-miterlimit:2;"><rect id="debug_assert" x="0" y="1.978" width="8000" height="3125" style="fill:none;"/><g><path d="M2182.36,924.469c-59.271,-13.494 -120.541,-20.572 -183.211,-20.572c-67.186,0 -132.762,8.135 -195.929,23.575c-0.314,-3.113 -0.827,-6.239 -1.546,-9.365c-63.401,-275.32 -174.456,-460.965 -293.561,-560.953c-92.138,-77.348 -190.981,-106.842 -283.084,-94.476c-193.292,25.951 -339.003,257.537 -208.771,432.378c67.066,90.04 204.299,125.075 298.418,50.703c32.477,-25.663 38.01,-72.867 12.346,-105.345c-25.664,-32.477 -72.867,-38.01 -105.345,-12.346c-27.386,21.64 -65.608,3.584 -85.123,-22.615c-60.307,-80.965 18.926,-182.092 108.435,-194.109c54.746,-7.351 111.913,14.72 166.68,60.695c101.236,84.987 189.941,245.714 243.83,479.729c1.9,8.25 5.096,15.866 9.324,22.683c-223.5,98.151 -404.71,291.813 -501.873,536.492l-350.874,-99.106l-40.773,144.352l346.067,97.749c-20.821,85.153 -31.955,174.883 -31.955,267.591c-0,168.734 36.482,321.087 101.047,451.841l-327.338,172.448l69.914,132.711l334.896,-176.43c166.663,230.565 434.29,366.9 735.215,366.9c302.336,0 571.059,-137.616 737.555,-370.154l341.071,179.684l69.915,-132.711l-334.104,-176.012c63.473,-129.951 99.298,-281.071 99.298,-448.277c-0,-92.539 -11.094,-182.11 -31.845,-267.139l347.668,-98.201l-40.773,-144.352l-352.413,99.541c-98.631,-248.705 -284.073,-444.746 -512.539,-541.453c2.958,-5.613 5.244,-11.69 6.733,-18.157c53.889,-234.015 142.594,-394.742 243.831,-479.729c54.766,-45.975 111.934,-68.046 166.679,-60.695c89.51,12.017 168.742,113.144 108.435,194.109c-19.514,26.199 -57.737,44.255 -85.123,22.615c-32.477,-25.664 -79.681,-20.131 -105.344,12.346c-25.664,32.478 -20.132,79.682 12.346,105.345c94.118,74.372 231.351,39.337 298.418,-50.703c130.231,-174.841 -15.479,-406.427 -208.772,-432.378c-92.103,-12.366 -190.945,17.128 -283.083,94.476c-119.106,99.988 -230.16,285.633 -293.561,560.953c-0.489,2.122 -0.882,4.244 -1.181,6.362Zm-183.211,129.428c424.069,0 763.735,391.032 763.735,867.632c-0,474.667 -341.386,797.47 -763.735,797.47c-422.349,0 -763.734,-322.803 -763.734,-797.47c-0,-476.6 339.665,-867.632 763.734,-867.632Z"/></g><path d="M7214.83,621.689c0,-313.363 -254.411,-567.774 -567.774,-567.774l-1885.53,0c-313.363,0 -567.774,254.411 -567.774,567.774l0,1885.53c0,313.363 254.411,567.774 567.774,567.774l1885.53,-0c313.363,-0 567.774,-254.411 567.774,-567.774l0,-1885.53Zm-112.5,0l0,1885.53c0,251.272 -204.001,455.274 -455.274,455.274l-1885.53,-0c-251.273,-0 -455.274,-204.002 -455.274,-455.274c0,-0 0,-1885.53 0,-1885.53c0,-251.272 204.001,-455.274 455.274,-455.274c-0,0 1885.53,0 1885.53,0c251.273,0 455.274,204.002 455.274,455.274Z"/><path d="M5586.53,1937.94l702.179,-1041.42c40.097,-66.808 126.89,-88.494 193.698,-48.397c66.808,40.096 88.495,126.889 48.398,193.697l-802.979,1209.37c-23.353,38.911 -63.988,64.223 -109.208,68.029c-45.221,3.805 -89.515,-14.359 -119.043,-48.819l-610.232,-696.067c-50.698,-59.167 -43.823,-148.364 15.344,-199.063c59.167,-50.698 148.364,-43.823 199.062,15.344l482.781,547.326Z"/></svg>