<?xml version="1.0" encoding="UTF-8" standalone="no"?><!DOCTYPE svg PUBLIC "-//W3C//DTD SVG 1.1//EN" "http://www.w3.org/Graphics/SVG/1.1/DTD/svg11.dtd"><svg width="100%" height="100%" viewBox="0 -1000 4004 5152" version="1.1" xmlns="http://www.w3.org/2000/svg" xmlns:xlink="http://www.w3.org/1999/xlink" xml:space="preserve" xmlns:serif="http://www.serif.com/" style="fill:#b20dff;fill-rule:evenodd;clip-rule:evenodd;stroke-linejoin:round;stroke-miterlimit:2;"><rect id="empty_bottle2" x="1.03" y="2.662" width="4000" height="3125" style="fill:none;"/><g><path d="M1293.5,840.635c-422.358,355.626 -624.521,916.753 -516.197,1467.99c26.419,134.442 50.569,257.333 68.331,347.555c28.728,146.191 119.102,272.924 247.98,347.727c0.044,0.025 0.088,0.05 0.131,0.076c164.41,95.007 449.47,202.062 907.289,202.062c457.812,-0 742.868,-107.05 907.293,-202.026c0.048,-0.028 0.096,-0.056 0.144,-0.083c128.886,-74.809 219.266,-201.55 248,-347.777c17.729,-90.221 41.877,-213.103 68.294,-347.534c108.287,-551.055 -93.702,-1111.99 -516.264,-1467.96c130.43,-61.238 220.728,-193.759 220.728,-347.371l-0,-63.845c-0,-211.839 -171.731,-383.57 -383.571,-383.57l-68.18,0l49.663,-332.179c2.498,-9.848 1.797,-21.48 -4.124,-35.092c-2.575,-5.921 -7.607,-23.189 -40.939,-38.37c-30.107,-13.712 -132.323,-39.955 -481.044,-39.955c-348.721,0 -450.937,26.243 -481.044,39.955c-33.332,15.181 -38.364,32.449 -40.939,38.37c-6.772,15.568 -5.11,25.179 -5.034,26.874c0.16,3.59 0.562,6.949 1.189,10.081l49.384,330.316l-68.18,0c-211.84,0 -383.57,171.731 -383.571,383.57l0,63.845c0.001,153.596 90.28,286.106 220.661,347.34Zm1182.84,18.829l-0.849,-0.405c-13.558,-11.501 -22.245,-27.093 -25.279,-43.812c144.492,-6.875 265.973,-102.188 311.449,-232.92c9.939,-24.084 15.966,-50.195 17.29,-77.543c1.259,-12.014 1.902,-24.193 1.902,-36.521c0,-9.575 0.154,-32.302 -2.392,-57.894c-0.624,-7.709 -1.621,-15.311 -2.973,-22.777c-3.408,-20.659 -8.978,-41.25 -18.078,-56.847c-37.209,-79.671 -118.034,-134.865 -211.75,-134.865l-88.559,0l10.183,47.675c-316.624,67.633 -627.632,68.288 -932.841,-0.075l10.662,-47.6l-88.694,0c-93.717,0 -174.542,55.194 -211.751,134.865c-9.1,15.596 -14.67,36.186 -18.078,56.848c-1.353,7.471 -2.35,15.07 -2.972,22.776c-2.547,25.592 -2.393,48.319 -2.393,57.894c-0,12.328 0.643,24.507 1.902,36.521c1.326,27.343 7.353,53.451 17.291,77.543c45.503,130.755 166.973,226.048 311.449,232.92c-3.035,16.719 -11.722,32.311 -25.28,43.812l-0.019,0.009l0,0c-463.782,307.686 -701.214,872.898 -593.894,1419.03c26.415,134.421 50.561,257.292 68.32,347.501c0.002,0.009 0.004,0.018 0.005,0.027c19.937,101.454 82.635,189.392 172.046,241.311c149.929,86.621 410.602,180.778 827.998,180.778c417.397,-0 678.072,-94.158 828.021,-180.753c89.416,-51.924 152.116,-139.868 172.054,-241.33l68.294,-347.534c107.332,-546.194 -129.206,-1110.99 -593.064,-1418.63Zm-139.254,-663.551l3.461,-23.15l64.554,-431.78c-51.666,-8.542 -176.882,-24.032 -404.066,-24.032c-227.183,-0 -352.399,15.49 -404.064,24.032l68.134,455.739c220.925,36.347 444.943,35.765 671.981,-0.809Z"/></g></svg>