<?xml version="1.0" encoding="UTF-8" standalone="no"?>
<!DOCTYPE svg PUBLIC "-//W3C//DTD SVG 1.1//EN" "http://www.w3.org/Graphics/SVG/1.1/DTD/svg11.dtd">
<svg width="100%" height="100%" viewBox="0 0 4004 6152" version="1.1" xmlns="http://www.w3.org/2000/svg" xmlns:xlink="http://www.w3.org/1999/xlink" xml:space="preserve" xmlns:serif="http://www.serif.com/" style="fill-rule:evenodd;clip-rule:evenodd;stroke-linejoin:round;stroke-miterlimit:2;">
    <g transform="matrix(1,0,0,1,0,1500)">
        <g>
            <path d="M1307.97,862.12C985.329,1107.89 646.844,1506.7 646.844,1954.6C646.844,2703.92 1253.5,3250.86 2002.82,3250.86C2752.15,3250.86 3358.8,2703.93 3358.8,1954.6C3358.8,1506.65 3020.25,1107.8 2697.62,862.08C2701.73,860.147 2705.95,858.159 2710.29,856.122C2840.72,794.884 2931.02,662.363 2931.02,508.751L2931.02,444.906C2931.02,233.066 2759.29,61.336 2547.45,61.336L2479.27,61.336L2528.93,-270.843C2531.43,-280.691 2530.73,-292.323 2524.81,-305.935C2522.23,-311.856 2517.2,-329.125 2483.87,-344.306C2453.76,-358.017 2351.54,-384.26 2002.82,-384.26C1654.1,-384.26 1551.89,-358.017 1521.78,-344.306C1488.45,-329.125 1483.42,-311.856 1480.84,-305.935C1474.07,-290.367 1475.73,-280.756 1475.81,-279.061C1475.97,-275.471 1476.37,-272.112 1477,-268.98L1526.38,61.336L1458.2,61.336C1246.36,61.336 1074.63,233.066 1074.63,444.906L1074.63,508.751C1074.63,662.347 1164.91,794.856 1295.29,856.091C1299.59,858.111 1303.81,860.124 1307.97,862.121L1307.97,862.12ZM2454.44,830.576C2597.85,822.758 2718.23,727.782 2763.45,597.782C2773.39,573.698 2779.42,547.586 2780.74,520.239C2782,508.225 2782.65,496.046 2782.65,483.718C2782.65,474.143 2782.8,451.416 2780.25,425.824C2779.63,418.115 2778.63,410.512 2777.28,403.047C2773.87,382.387 2768.3,361.797 2759.2,346.2C2721.99,266.529 2641.17,211.335 2547.45,211.335L2458.89,211.335L2469.08,259.01C2152.45,326.642 1841.44,327.298 1536.24,258.935L1546.9,211.335L1458.2,211.335C1364.49,211.335 1283.66,266.529 1246.45,346.2C1237.35,361.796 1231.78,382.386 1228.37,403.048C1227.02,410.519 1226.02,418.118 1225.4,425.823C1222.86,451.416 1223.01,474.143 1223.01,483.718C1223.01,496.046 1223.65,508.225 1224.91,520.238C1226.24,547.582 1232.26,573.69 1242.2,597.782C1287.45,727.805 1407.82,822.762 1551.21,830.576L1564.36,830.576L1578.88,852.974L1517.69,892.632C1197.9,1099.9 792.677,1495.07 792.677,1954.6C792.677,2621.57 1335.86,3105.02 2002.83,3105.02C2669.79,3105.02 3212.98,2621.56 3212.98,1954.6C3212.98,1495.07 2807.76,1099.89 2487.97,892.632L2426.78,852.974L2441.3,830.576L2454.44,830.576L2454.44,830.576ZM2338.88,211.368L2342.34,188.218L2406.89,-243.562C2355.23,-252.105 2230.01,-267.594 2002.83,-267.594C1775.64,-267.594 1650.43,-252.105 1598.76,-243.562L1666.9,212.177C1887.82,248.524 2111.84,247.941 2338.88,211.368Z" style="fill:rgb(178,13,255);"/>
        </g>
    </g>
</svg>
