<?xml version="1.0" encoding="UTF-8" standalone="no"?><!DOCTYPE svg PUBLIC "-//W3C//DTD SVG 1.1//EN" "http://www.w3.org/Graphics/SVG/1.1/DTD/svg11.dtd"><svg width="100%" height="100%" viewBox="0 -1000 4004 5152" version="1.1" xmlns="http://www.w3.org/2000/svg" xmlns:xlink="http://www.w3.org/1999/xlink" xml:space="preserve" xmlns:serif="http://www.serif.com/" style="fill:#b20dff;fill-rule:evenodd;clip-rule:evenodd;stroke-linejoin:round;stroke-miterlimit:2;"><rect id="exit_loop_arrow" x="3.019" y="1.085" width="4000" height="3125" style="fill:none;"/><g><g id="Ebene1"><path d="M1178.91,2590.3l824.111,0c570.397,0 1033.49,-463.09 1033.49,-1033.49c0,-570.397 -463.089,-1033.49 -1033.49,-1033.49c-394.542,-0 -737.723,221.585 -911.869,546.952c-77.619,145.021 -121.617,310.68 -121.617,486.534l-162.5,-0c0,-203.575 50.992,-395.333 140.847,-563.216c201.497,-376.469 598.631,-632.77 1055.14,-632.77c660.083,-0 1195.99,535.903 1195.99,1195.99c0,660.083 -535.903,1195.99 -1195.99,1195.99l-820.986,0l68.75,62.5l575,568.75l-112.5,112.5l-825,-825l825,-825l112.5,112.5l-575,565.625l-71.875,65.625Z"/></g></g></svg>