<?xml version="1.0" encoding="UTF-8" standalone="no"?><!DOCTYPE svg PUBLIC "-//W3C//DTD SVG 1.1//EN" "http://www.w3.org/Graphics/SVG/1.1/DTD/svg11.dtd"><svg width="100%" height="100%" viewBox="0 -1000 4004 5152" version="1.1" xmlns="http://www.w3.org/2000/svg" xmlns:xlink="http://www.w3.org/1999/xlink" xml:space="preserve" xmlns:serif="http://www.serif.com/" style="fill:#b20dff;fill-rule:evenodd;clip-rule:evenodd;stroke-linejoin:round;stroke-miterlimit:2;"><rect id="expect_v3" x="2.984" y="0.6" width="4000" height="3125" style="fill:none;"/><path d="M3217.81,620.311c0,-313.363 -254.411,-567.774 -567.774,-567.774l-1885.53,0c-313.363,0 -567.774,254.411 -567.774,567.774l-0,1885.53c-0,313.363 254.411,567.774 567.774,567.774l1885.53,-0c313.363,-0 567.774,-254.411 567.774,-567.774l0,-1885.53Zm-112.5,0l0,1885.53c0,251.272 -204.001,455.274 -455.274,455.274l-1885.53,-0c-251.273,-0 -455.274,-204.002 -455.274,-455.274c-0,-0 -0,-1885.53 -0,-1885.53c-0,-251.272 204.001,-455.274 455.274,-455.274c-0,0 1885.53,0 1885.53,0c251.273,0 455.274,204.002 455.274,455.274Z"/><path d="M1589.51,1936.56l702.18,-1041.42c40.097,-66.809 126.89,-88.495 193.698,-48.398c66.808,40.096 88.495,126.889 48.398,193.698l-802.979,1209.37c-23.353,38.911 -63.988,64.223 -109.209,68.029c-45.22,3.806 -89.514,-14.359 -119.042,-48.819l-610.232,-696.067c-50.698,-59.167 -43.823,-148.364 15.344,-199.062c59.167,-50.699 148.364,-43.824 199.062,15.343l482.78,547.327Z"/></svg>