<?xml version="1.0" encoding="UTF-8" standalone="no"?><!DOCTYPE svg PUBLIC "-//W3C//DTD SVG 1.1//EN" "http://www.w3.org/Graphics/SVG/1.1/DTD/svg11.dtd"><svg width="100%" height="100%" viewBox="0 -1000 4004 5152" version="1.1" xmlns="http://www.w3.org/2000/svg" xmlns:xlink="http://www.w3.org/1999/xlink" xml:space="preserve" xmlns:serif="http://www.serif.com/" style="fill:#b20dff;fill-rule:evenodd;clip-rule:evenodd;stroke-linejoin:round;stroke-miterlimit:2;"><rect id="eye_open_new" x="2.71" y="1.842" width="4000" height="3125" style="fill:none;"/><g><path d="M559.583,1529.47l-17.428,32.987l17.577,32.899c-0,0 533.343,991.93 1441.01,991.93c907.5,-0 1444.84,-991.737 1444.84,-991.737l17.816,-33.093l-17.668,-33.182c0,0 -529.121,-987.869 -1444.99,-987.869c-916.033,-0 -1441.16,988.065 -1441.16,988.065Zm130.46,32.649c95.889,-164.168 560.083,-885.802 1310.7,-885.802c750.475,0 1217.66,721.239 1314.49,885.802c-97.844,164.995 -570.261,890.254 -1314.49,890.254c-744.362,0 -1213.79,-725.658 -1310.7,-890.254Z"/><path d="M2387.43,1562.87c0.009,1.111 0.014,2.222 0.014,3.333c0,212.071 -174.508,386.579 -386.579,386.579c-212.071,0 -386.579,-174.508 -386.579,-386.579c-0,-212.066 174.499,-386.572 386.565,-386.579c210.817,-0.008 384.761,172.436 386.579,383.246Z"/></g></svg>