<?xml version="1.0" encoding="UTF-8" standalone="no"?><!DOCTYPE svg PUBLIC "-//W3C//DTD SVG 1.1//EN" "http://www.w3.org/Graphics/SVG/1.1/DTD/svg11.dtd"><svg width="100%" height="100%" viewBox="0 -1000 4004 5152" version="1.1" xmlns="http://www.w3.org/2000/svg" xmlns:xlink="http://www.w3.org/1999/xlink" xml:space="preserve" xmlns:serif="http://www.serif.com/" style="fill:#b20dff;fill-rule:evenodd;clip-rule:evenodd;stroke-linejoin:round;stroke-miterlimit:2;"><rect id="feather" x="0.519" y="0.675" width="4000" height="3125" style="fill:none;"/><g><g><path d="M3841.44,131.091l16.577,-160.851l-161.702,0.067c-2757.83,1.141 -3531.32,2988.69 -3531.32,2988.69l-16.793,65.421l39.035,55.119c35.377,49.955 81.198,73.505 133.032,78.982c43.666,4.614 100.513,-6.596 161.272,-48.815c72.685,-50.507 171.581,-164.494 272.805,-298.652c111.99,-148.427 230.414,-322.413 321.872,-435.402c730.882,48.315 1397.22,-319.591 1892.15,-794.29c513.084,-492.106 836.714,-1097.48 873.072,-1450.27Zm-651.99,991.854c296.728,-372.308 481.084,-756.063 506.925,-1006.8c-2651.38,1.097 -3390.13,2879.12 -3390.13,2879.12c98.758,139.453 505.098,-548.851 707.742,-771.307c713.467,75.762 1363.89,-281.086 1845.75,-740.489c-574.901,77.176 -1197.19,-8.115 -1197.19,-8.115c-0,-0 841.78,-38.796 1526.9,-352.4Z"/></g></g></svg>