<?xml version="1.0" encoding="UTF-8" standalone="no"?><!DOCTYPE svg PUBLIC "-//W3C//DTD SVG 1.1//EN" "http://www.w3.org/Graphics/SVG/1.1/DTD/svg11.dtd"><svg width="100%" height="100%" viewBox="0 -1000 4004 5152" version="1.1" xmlns="http://www.w3.org/2000/svg" xmlns:xlink="http://www.w3.org/1999/xlink" xml:space="preserve" xmlns:serif="http://www.serif.com/" style="fill:#b20dff;fill-rule:evenodd;clip-rule:evenodd;stroke-linejoin:round;stroke-miterlimit:2;"><rect id="feather_flip" x="2.634" y="2.546" width="4000" height="3125" style="fill:none;"/><g><g><path d="M166.891,132.962l-16.576,-160.85l161.702,0.067c2757.83,1.141 3531.32,2988.69 3531.32,2988.69l16.792,65.421l-39.034,55.12c-35.377,49.954 -81.199,73.504 -133.033,78.981c-43.666,4.614 -100.512,-6.595 -161.271,-48.815c-72.685,-50.507 -171.582,-164.493 -272.806,-298.652c-111.99,-148.427 -230.414,-322.413 -321.872,-435.401c-730.881,48.314 -1397.22,-319.592 -1892.15,-794.29c-513.084,-492.107 -836.714,-1097.48 -873.072,-1450.27Zm651.991,991.854c-296.729,-372.308 -481.085,-756.063 -506.926,-1006.8c2651.38,1.097 3390.13,2879.12 3390.13,2879.12c-98.758,139.453 -505.099,-548.851 -707.743,-771.307c-713.467,75.762 -1363.89,-281.085 -1845.75,-740.489c574.901,77.176 1197.19,-8.115 1197.19,-8.115c-0,0 -841.781,-38.796 -1526.9,-352.4Z"/></g></g></svg>