<?xml version="1.0" encoding="UTF-8" standalone="no"?><!DOCTYPE svg PUBLIC "-//W3C//DTD SVG 1.1//EN" "http://www.w3.org/Graphics/SVG/1.1/DTD/svg11.dtd"><svg width="100%" height="100%" viewBox="0 -1000 6004 5152" version="1.1" xmlns="http://www.w3.org/2000/svg" xmlns:xlink="http://www.w3.org/1999/xlink" xml:space="preserve" xmlns:serif="http://www.serif.com/" style="fill:#b20dff;fill-rule:evenodd;clip-rule:evenodd;stroke-linejoin:round;stroke-miterlimit:2;"><rect id="ferris" x="2.711" y="0.691" width="6000" height="3125" style="fill:none;"/><g><path d="M682.546,2320.03c-115.839,138.374 -214.853,267.092 -278.196,314.822c-72.059,54.298 -130.283,39.654 -164.738,1.792c-13.661,-15.012 -33.49,-53.335 -48.74,-111.828c-25.703,-98.58 -50.632,-269.455 -54.323,-451.294c-3.205,-157.904 9.822,-323.864 50.348,-458.848c30.142,-100.395 76.028,-184.386 138.284,-241.039c42.869,-39.011 91.193,-68.284 142.246,-87.943c-17.784,-25.6 -36.392,-53.205 -52.027,-78.342c-23.852,-38.346 -40.793,-73.046 -45.874,-93.093c-8.728,-34.435 -1.043,-65.964 20.307,-93.734c21.458,-27.91 67.146,-52.131 101.686,-65.987c-0,-0 227.733,-91.36 227.733,-91.36c27.407,-10.995 49.407,-32.305 61.27,-59.349c11.862,-27.044 12.64,-57.662 2.167,-85.273c-0,-0 -87.024,-229.425 -87.024,-229.425c-25.578,-67.433 -17.375,-143.031 22.071,-203.408c39.447,-60.377 105.382,-98.256 177.409,-101.92c0,0 245.059,-12.465 245.059,-12.465c29.493,-1.5 57.22,-14.512 77.22,-36.239c20.001,-21.726 30.679,-50.433 29.739,-79.949c-0,0 -7.815,-245.251 -7.815,-245.251c-2.297,-72.084 30.008,-140.922 86.922,-185.219c56.913,-44.298 131.575,-58.716 200.89,-38.793c-0,-0 235.827,67.78 235.827,67.78c28.382,8.158 58.832,4.854 84.804,-9.201c25.972,-14.056 45.392,-37.74 54.086,-65.962c0,0 72.242,-234.5 72.242,-234.5c21.233,-68.924 74.139,-123.543 142.353,-146.96c68.213,-23.418 143.511,-12.812 202.601,28.537c-0,0 201.042,140.682 201.042,140.682c24.195,16.931 54.067,23.693 83.196,18.832c29.128,-4.86 55.186,-20.956 72.573,-44.825c0,-0 144.47,-198.338 144.47,-198.338c42.462,-58.295 110.236,-92.776 182.357,-92.776c72.121,0 139.895,34.481 182.358,92.776c-0,0 144.469,198.338 144.469,198.338c17.387,23.869 43.446,39.965 72.574,44.825c29.128,4.861 59.001,-1.901 83.196,-18.832c0,-0 201.042,-140.682 201.042,-140.682c59.09,-41.349 134.388,-51.955 202.601,-28.537c68.213,23.417 121.119,78.036 142.353,146.96c-0,0 72.241,234.5 72.241,234.5c8.695,28.222 28.115,51.906 54.087,65.962c25.972,14.055 56.421,17.359 84.803,9.201c0,0 235.828,-67.78 235.828,-67.78c69.315,-19.923 143.977,-5.505 200.89,38.793c56.914,44.297 89.218,113.135 86.922,185.219c-0,0 -7.815,245.251 -7.815,245.251c-0.94,29.516 9.737,58.223 29.738,79.949c20.001,21.727 47.728,34.739 77.221,36.239c-0,0 245.058,12.465 245.058,12.465c72.028,3.664 137.963,41.543 177.41,101.92c39.446,60.377 47.649,135.975 22.071,203.408c-0,-0 -87.024,229.425 -87.024,229.425c-10.474,27.611 -9.695,58.229 2.167,85.273c11.863,27.044 33.862,48.354 61.27,59.349c-0,-0 227.733,91.36 227.733,91.36c34.539,13.856 80.227,38.077 101.686,65.987c21.349,27.77 29.035,59.299 20.307,93.734c-5.081,20.047 -22.022,54.747 -45.874,93.093c-15.635,25.137 -34.243,52.742 -52.027,78.342c51.053,19.659 99.376,48.932 142.245,87.943c62.257,56.653 108.143,140.644 138.284,241.039c40.527,134.984 53.554,300.944 50.349,458.848c-3.691,181.839 -28.621,352.714 -54.323,451.294c-15.25,58.493 -35.08,96.816 -48.74,111.828c-23.986,26.357 -53.986,37.334 -90.395,32.337c-30.173,-4.142 -76.371,-29.989 -127.178,-81.661c-59.321,-60.331 -137.348,-160.175 -225.551,-266.22c-26.636,149.697 -59.712,255.312 -91.328,262.194c-54.062,11.767 -231.346,-234.251 -383.642,-511.486c-0.842,84.25 9.153,163.936 20.628,244.094c21.762,152.021 48.694,305.628 32.392,488.873c-5.703,234.509 -115.383,474.981 -320.446,647.403c-115.907,97.457 -248.026,161.185 -382.883,191.911c-80.003,15.391 -164.526,19.89 -247.611,13.941l40.569,-102.17c51.013,-128.472 82.886,-282.903 72.598,-463.327c-106.257,92.362 -279.094,233.655 -488.1,371.977l-53.117,35.154l-45.433,-44.644c-16.074,-15.795 -31.484,-32.433 -46.208,-49.945c-268.306,-319.098 -212.278,-815.819 127.959,-1121.14c-166.039,17.733 -335.355,27.323 -505.275,29.049l-100.162,-0c-169.918,-1.727 -339.245,-11.314 -505.27,-29.049c340.237,305.32 396.264,802.041 127.959,1121.14c-14.725,17.512 -30.135,34.15 -46.209,49.945l-45.432,44.644l-53.117,-35.154c-209.007,-138.322 -381.843,-279.615 -488.1,-371.977c-10.288,180.424 21.585,334.855 72.597,463.327l40.569,102.17c-83.116,5.943 -167.626,1.445 -247.611,-13.941c-134.857,-30.726 -266.976,-94.454 -382.882,-191.911c-205.064,-172.422 -314.743,-412.894 -320.446,-647.403c-16.303,-183.245 10.629,-336.852 32.392,-488.873c11.475,-80.158 21.469,-159.844 20.627,-244.094c-152.295,277.235 -329.579,523.253 -383.641,511.486c-31.689,-6.898 -64.845,-112.986 -91.518,-263.264Zm3484.98,-112.12c-166.699,-3.461 -340.996,55.193 -485.132,176.386c-288.076,242.221 -351.889,647.936 -138.527,911.373c310.173,-212.559 524.768,-420.272 524.768,-420.272l88.87,-86.086c42.637,112.271 61.752,236.736 64.831,367.402c0.304,120.972 -16.15,230.948 -43.224,329.964c105.694,-26.718 208.829,-78.319 299.93,-154.918c168.993,-142.093 260.438,-339.809 264.479,-533.026l0.307,-5.489c15.552,-170.786 -10.975,-313.609 -31.222,-455.047c-22.359,-156.182 -37.608,-310.771 3.983,-493.014l8.09,-35.448l32.242,-16.806c69.948,-36.461 136.302,-75.802 198.494,-118.09l111.877,-76.074l10.771,134.862c5.797,72.586 38.098,143.232 96.163,196.071c164.793,149.962 323.208,362.516 437.123,493.615c18.813,21.651 36.251,40.89 52.198,56.843c23.181,-91.282 44.702,-245.734 48.032,-409.827c2.866,-141.188 -7.499,-289.719 -43.736,-410.415c-14.998,-49.956 -34.048,-94.955 -59.496,-131c-3.408,-2.398 -7.939,-6.78 -13.724,-13.455c-118.471,-136.682 -346.75,-69.651 -424.66,-7.694c93.646,-107.677 151.047,-194.813 256.313,-337.498c0.763,-1.034 1.514,-2.04 2.244,-3.003c9.789,-14.592 19.307,-29.179 27.912,-43.012c3.96,-6.366 7.793,-12.427 11.27,-18.085c-4.655,-2.258 -9.08,-4.292 -12.373,-5.613c-0,-0 -227.733,-91.36 -227.733,-91.36c-65.655,-26.339 -118.354,-77.386 -146.771,-142.168c-28.416,-64.783 -30.28,-138.128 -5.191,-204.271c-0,0 87.024,-229.425 87.024,-229.425c7.74,-20.407 5.258,-43.285 -6.68,-61.558c-11.938,-18.272 -31.892,-29.735 -53.69,-30.844c0,-0 -245.058,-12.465 -245.058,-12.465c-70.65,-3.594 -137.069,-34.763 -184.98,-86.809c-47.912,-52.045 -73.49,-120.812 -71.237,-191.516c-0,-0 7.814,-245.251 7.814,-245.251c0.695,-21.815 -9.081,-42.648 -26.305,-56.054c-17.224,-13.406 -39.819,-17.769 -60.796,-11.74c-0,-0 -235.828,67.781 -235.828,67.781c-67.988,19.541 -140.929,11.626 -203.144,-22.043c-62.214,-33.669 -108.735,-90.404 -129.562,-158.009c-0,0 -72.242,-234.5 -72.242,-234.5c-6.426,-20.859 -22.437,-37.388 -43.081,-44.475c-20.643,-7.087 -43.431,-3.877 -61.314,8.637c0,-0 -201.042,140.681 -201.042,140.681c-57.959,40.558 -129.518,56.756 -199.294,45.112c-69.776,-11.643 -132.198,-50.199 -173.848,-107.378c0,-0 -144.469,-198.337 -144.469,-198.337c-12.851,-17.643 -33.361,-28.078 -55.188,-28.078c-21.826,0 -42.337,10.435 -55.187,28.078c-0,-0 -144.47,198.337 -144.47,198.337c-41.65,57.179 -104.072,95.735 -173.848,107.378c-69.775,11.644 -141.334,-4.554 -199.294,-45.112c0,-0 -201.041,-140.681 -201.041,-140.681c-17.883,-12.514 -40.671,-15.724 -61.314,-8.637c-20.644,7.087 -36.655,23.616 -43.081,44.475c-0,0 -72.242,234.5 -72.242,234.5c-20.827,67.605 -67.348,124.34 -129.562,158.009c-62.215,33.669 -135.156,41.584 -203.144,22.043c-0,-0 -235.828,-67.781 -235.828,-67.781c-20.977,-6.029 -43.572,-1.666 -60.796,11.74c-17.224,13.406 -27.001,34.239 -26.306,56.054c0,-0 7.815,245.251 7.815,245.251c2.253,70.704 -23.326,139.471 -71.237,191.516c-47.912,52.046 -114.331,83.215 -184.98,86.809c0,0 -245.058,12.465 -245.058,12.465c-21.798,1.109 -41.753,12.572 -53.69,30.844c-11.938,18.273 -14.421,41.151 -6.68,61.558c0,0 87.024,229.425 87.024,229.425c25.089,66.143 23.224,139.488 -5.192,204.271c-28.416,64.782 -81.116,115.829 -146.77,142.168c-0,-0 -227.733,91.36 -227.733,91.36c-3.293,1.321 -7.719,3.355 -12.373,5.613c3.477,5.658 7.31,11.719 11.27,18.085c8.604,13.833 18.123,28.42 27.912,43.012c0.73,0.963 1.481,1.969 2.243,3.003c105.267,142.685 162.668,229.821 256.314,337.498c-77.91,-61.957 -306.189,-128.988 -424.66,7.694c-5.785,6.675 -10.316,11.057 -13.725,13.455c-25.448,36.045 -44.497,81.044 -59.495,131c-36.237,120.696 -46.602,269.227 -43.737,410.415c3.331,164.093 24.852,318.545 48.033,409.827c15.946,-15.953 33.384,-35.192 52.198,-56.843c113.915,-131.099 272.33,-343.653 437.123,-493.615c58.065,-52.839 90.366,-123.485 96.163,-196.071l10.77,-134.862l111.878,76.074c62.191,42.288 128.546,81.629 198.494,118.09l32.242,16.806l8.089,35.448c41.592,182.243 26.342,336.832 3.984,493.014c-20.248,141.438 -46.774,284.261 -31.222,455.047l0.307,5.489c4.04,193.217 95.486,390.933 264.478,533.026c91.101,76.599 194.236,128.2 299.931,154.918c-27.074,-99.016 -43.528,-208.992 -43.225,-329.964c3.077,-130.657 22.191,-255.125 64.832,-367.402l88.869,86.086c0,0 214.596,207.713 524.769,420.272c213.362,-263.437 149.548,-669.152 -138.527,-911.373c-144.136,-121.193 -318.433,-179.847 -485.132,-176.386c-41.954,1.242 -79.263,7.042 -114.904,16.224c0,0 -21.747,7.94 -50.497,19.836l-188.684,-360.566c-0,-0 128.101,66.27 237.491,96.114c9.659,2.635 21.035,6.858 33.615,12.354c379.64,110.164 809.669,163.107 1242.02,164.058l1.268,0.003l4.507,-0.299l4.507,0.299l1.269,-0.003c432.345,-0.951 862.374,-53.894 1242.02,-164.058c12.58,-5.496 23.956,-9.719 33.615,-12.354c109.39,-29.844 237.491,-96.114 237.491,-96.114l-188.684,360.566c-28.751,-11.896 -50.498,-19.836 -50.498,-19.836c-35.64,-9.182 -72.95,-14.982 -114.903,-16.224Zm-1777.23,-1438.84l-9.646,-0c-185.705,-0 -336.474,150.769 -336.474,336.474c0,0.798 0.003,1.596 0.009,2.401c-0.006,0.802 -0.009,1.612 -0.009,2.422c0,-0 0,346.17 0,346.17c0,188.367 152.93,341.297 341.297,341.297c188.366,-0 341.296,-152.93 341.296,-341.297l0,-346.17c0,-0.81 -0.003,-1.62 -0.009,-2.422c0.007,-0.805 0.009,-1.603 0.009,-2.401c0,-185.705 -150.768,-336.474 -336.473,-336.474Zm1224.84,-0l9.646,-0c185.705,-0 336.474,150.769 336.474,336.474c-0,0.798 -0.003,1.596 -0.01,2.401c0.007,0.802 0.01,1.612 0.01,2.422c-0,-0 -0,346.17 -0,346.17c-0,188.367 -152.93,341.297 -341.297,341.297c-188.367,-0 -341.297,-152.93 -341.297,-341.297l0,-346.17c0,-0.81 0.003,-1.62 0.009,-2.422c-0.006,-0.805 -0.009,-1.603 -0.009,-2.401c0,-185.705 150.769,-336.474 336.474,-336.474Zm167.522,292.682c-1.295,-88.683 -73.701,-160.288 -162.699,-160.288c-88.998,0 -161.404,71.605 -162.7,160.288c1.285,86.048 71.534,155.503 157.877,155.503l9.646,-0c86.343,-0 156.592,-69.455 157.876,-155.503Zm-1559.89,0c1.295,-88.683 73.701,-160.288 162.7,-160.288c88.998,0 161.404,71.605 162.699,160.288c-1.284,86.048 -71.533,155.503 -157.876,155.503l-9.646,-0c-86.343,-0 -156.592,-69.455 -157.877,-155.503Z"/><g id="Ebene1"></g></g></svg>