<?xml version="1.0" encoding="UTF-8" standalone="no"?><!DOCTYPE svg PUBLIC "-//W3C//DTD SVG 1.1//EN" "http://www.w3.org/Graphics/SVG/1.1/DTD/svg11.dtd"><svg width="100%" height="100%" viewBox="0 -1000 4004 5152" version="1.1" xmlns="http://www.w3.org/2000/svg" xmlns:xlink="http://www.w3.org/1999/xlink" xml:space="preserve" xmlns:serif="http://www.serif.com/" style="fill:#b20dff;fill-rule:evenodd;clip-rule:evenodd;stroke-linejoin:round;stroke-miterlimit:2;"><rect id="fingerprint_full" x="1.201" y="1.759" width="4000" height="3125" style="fill:none;"/><g><path d="M2194.62,2649.44c0,-0 -453.981,-528.776 -532.874,-620.667c-211.005,-245.768 -182.781,-616.609 62.987,-827.614c245.768,-211.005 616.61,-182.782 827.615,62.987c119.616,139.323 532.874,620.666 532.874,620.666c28.462,33.151 78.484,36.958 111.635,8.496c33.152,-28.462 36.959,-78.484 8.497,-111.636c-0,0 -413.258,-481.342 -532.874,-620.666c-267.929,-312.071 -738.816,-347.908 -1050.89,-79.979c-312.071,267.929 -347.908,738.815 -79.979,1050.89c78.893,91.891 532.874,620.666 532.874,620.666c28.462,33.152 78.485,36.959 111.636,8.496c33.151,-28.462 36.958,-78.484 8.496,-111.635Z"/><path d="M2804.2,2336.93c0,0 -582.679,-678.676 -616.048,-717.543c-28.462,-33.152 -78.485,-36.959 -111.636,-8.497c-33.151,28.462 -36.958,78.485 -8.496,111.636c33.369,38.867 616.048,717.544 616.048,717.544c28.462,33.151 78.485,36.958 111.636,8.496c33.151,-28.462 36.958,-78.484 8.496,-111.636Z"/><path d="M1303.63,2585.18c-42.834,-49.891 -91.514,-106.591 -144.291,-168.063c-438.997,-511.323 -380.278,-1282.86 131.045,-1721.86c445.569,-382.544 1088.73,-387.186 1537.26,-43.691c66.196,50.695 128.148,108.976 184.606,174.736c19.68,22.922 78.562,91.505 144.29,168.062c28.462,33.151 78.485,36.958 111.636,8.496c33.151,-28.462 36.958,-78.484 8.496,-111.636c-65.728,-76.556 -124.61,-145.14 -144.29,-168.062c-63.753,-74.256 -133.72,-140.055 -208.468,-197.301c-506.703,-388.052 -1233.3,-382.902 -1736.66,49.264c-577.626,495.922 -643.96,1367.51 -148.038,1945.13c52.777,61.471 101.457,118.172 144.291,168.062c28.462,33.151 78.484,36.958 111.635,8.496c33.152,-28.462 36.959,-78.484 8.497,-111.635Z"/></g></svg>