<?xml version="1.0" encoding="UTF-8" standalone="no"?><!DOCTYPE svg PUBLIC "-//W3C//DTD SVG 1.1//EN" "http://www.w3.org/Graphics/SVG/1.1/DTD/svg11.dtd"><svg width="100%" height="100%" viewBox="0 -1000 4004 5152" version="1.1" xmlns="http://www.w3.org/2000/svg" xmlns:xlink="http://www.w3.org/1999/xlink" xml:space="preserve" xmlns:serif="http://www.serif.com/" style="fill:#b20dff;fill-rule:evenodd;clip-rule:evenodd;stroke-linejoin:round;stroke-miterlimit:2;"><rect id="finish_flag" x="1.419" y="2.529" width="4000" height="3125" style="fill:none;"/><g><g><path d="M1461.71,220.811l194.712,-421.99l78.035,95.193c298.49,364.123 578.991,339.285 891.016,345.257c348.787,6.676 735.155,41.926 1217.83,566.066l44.387,48.2l-40.422,51.57c-241.4,307.975 -339.248,602.004 -426.373,884.542c-92.143,298.809 -173.417,585.297 -379.952,864.044l-55.493,74.896l-63.145,-68.569c-439.145,-476.871 -790.043,-510.288 -1107.37,-516.361c-325.985,-6.24 -618.368,8.808 -927.071,-311.205l-577.249,1251.04l-139.984,-64.591l1291.08,-2798.09Zm233.748,-138.619l-737.59,1598.54c286.992,325.971 558.815,303.027 860.013,308.792c332.742,6.369 699.689,38.744 1151.83,496.812c156.813,-239.764 225.08,-486.634 303.861,-742.112c87.097,-282.444 185.81,-575.035 412.086,-881.276c-418.589,-432.271 -756.53,-463.666 -1063.14,-469.535c-325.985,-6.239 -618.368,8.809 -927.065,-311.217Z"/><path d="M1967.36,1472.33l-7.23,19.287c-47.195,125.902 -96.951,226.897 -186.003,368.587l-31.058,49.417l58.346,-1.549c150.921,-4.007 332.995,8.544 506.036,56.27l19.386,5.347l12.898,-15.427c84.114,-100.606 170.86,-300.922 212.242,-413.23l11.44,-31.048l-31.651,-9.649c-155.003,-47.251 -413.948,-35.029 -543.832,-28.965l-20.574,0.96Zm827.915,-456.491l-10.391,27.832c-54.83,146.864 -86.807,253.254 -133.818,401.484l-8.994,28.358l27.882,10.377c139.027,51.741 317.977,167.479 441.902,281.816l37.006,34.142l14.172,-48.314c29.671,-101.153 76.337,-259.705 139.874,-408.052l8.954,-20.906l-17.14,-14.949c-105.805,-92.277 -264.007,-217.216 -471.126,-282.818l-28.321,-8.97Zm-1272.78,-274.761l-17.325,34.617c-45.133,90.179 -117.608,234.929 -182.056,365.18l-9.321,18.836l13.931,15.736c183.157,206.901 373.473,233.279 571.048,242.837l24.574,1.189l6.923,-23.609c30.719,-104.762 68.322,-242.862 128.122,-377.301l20.215,-45.449l-49.719,1.513c-199.909,6.084 -359.467,-115.585 -476.207,-209.314l-30.185,-24.235Zm640.003,182.2l45.919,0.953c115.959,2.405 350.833,-19.965 525.872,19.844l25.368,5.77l10.273,-23.902c40.861,-95.07 123.267,-258.454 209.777,-362.596l30.591,-36.826l-46.023,-13.184c-143.616,-41.142 -367.48,-31.68 -524.782,-24.384l-13.735,0.637l-8.81,10.556c-87.094,104.357 -175.04,233.536 -236.707,380.769l-17.743,42.363Z"/></g></g></svg>