<?xml version="1.0" encoding="UTF-8" standalone="no"?><!DOCTYPE svg PUBLIC "-//W3C//DTD SVG 1.1//EN" "http://www.w3.org/Graphics/SVG/1.1/DTD/svg11.dtd"><svg width="100%" height="100%" viewBox="0 -1000 4004 5152" version="1.1" xmlns="http://www.w3.org/2000/svg" xmlns:xlink="http://www.w3.org/1999/xlink" xml:space="preserve" xmlns:serif="http://www.serif.com/" style="fill:#b20dff;fill-rule:evenodd;clip-rule:evenodd;stroke-linejoin:round;stroke-miterlimit:2;"><rect id="first" x="0.065" y="2.557" width="4000" height="3125" style="fill:none;"/><g><path d="M193.815,2509.75l1359.38,0l28.125,-171.875l-553.125,0l353.125,-2015.62l-215.625,0l-653.125,371.875l-37.5,218.75l690.625,-415.625l-325,1840.62l-618.75,0l-28.125,171.875Zm1936.85,-915.019c265.524,-0 427.686,-139.731 435.276,-326.038c20.038,-348.395 -501.02,-188.171 -485.832,-428.508c6.381,-93.154 84.743,-152.772 257.161,-152.772c81.036,0 167.076,13.042 278.399,70.797l27.917,-158.361c-94.25,-44.714 -193.962,-67.071 -295.689,-67.071c-262.075,-0 -420.886,147.183 -428.5,335.353c-21.738,346.532 499.151,199.349 482.432,424.782c-6.309,87.564 -89.843,147.183 -253.64,147.183c-108.624,-0 -210.036,-24.22 -314.486,-80.113l-27.917,158.362c100.977,57.755 230.049,76.386 324.879,76.386Zm861.625,-894.276l218.971,-0l-98.561,553.333c-33.622,199.349 50.75,340.943 285.238,340.943c77.589,-0 157.094,-14.905 233.321,-42.851l26.217,-160.224c-74.55,31.672 -152.356,48.44 -221.323,48.44c-160.349,-0 -185.124,-83.839 -164.563,-206.802l93.123,-532.839l415.528,-0l26.072,-149.046l-415.528,-0l40.906,-229.159l-117.245,0l-77.113,229.159l-226.399,40.987l-18.644,108.059Z" style="fill:#b20dff;fill-rule:nonzero;"/></g></svg>