<?xml version="1.0" encoding="UTF-8" standalone="no"?><!DOCTYPE svg PUBLIC "-//W3C//DTD SVG 1.1//EN" "http://www.w3.org/Graphics/SVG/1.1/DTD/svg11.dtd"><svg width="100%" height="100%" viewBox="0 -1000 4004 5152" version="1.1" xmlns="http://www.w3.org/2000/svg" xmlns:xlink="http://www.w3.org/1999/xlink" xml:space="preserve" xmlns:serif="http://www.serif.com/" style="fill:#b20dff;fill-rule:evenodd;clip-rule:evenodd;stroke-linejoin:round;stroke-miterlimit:2;"><rect id="folder_up" x="0.585" y="2.52" width="4000" height="3125" style="fill:none;"/><g id="Ebene11"><path d="M3654.36,777.493c0,-59.915 -23.801,-117.376 -66.168,-159.743c-42.366,-42.367 -99.828,-66.168 -159.743,-66.168l-1320.83,-0c-84.721,-0 -163.672,-42.928 -209.73,-114.036c-36.43,-56.243 -78.093,-120.566 -114.523,-176.809c-70.634,-109.051 -191.712,-174.884 -321.639,-174.884c-0,0 -889.001,0 -889.001,0c-59.915,0 -117.377,23.801 -159.744,66.168c-42.366,42.367 -66.168,99.828 -66.168,159.744c0,0 0,2460.41 0,2460.41c0,143.325 116.188,259.512 259.513,259.512c566.604,0 2221.92,0 2788.52,0c143.325,0 259.512,-116.187 259.512,-259.512l0,-1994.68Zm-133.333,0.001l-0,1994.68c-0,69.687 -56.492,126.179 -126.179,126.179c-566.605,0 -2221.92,0 -2788.52,0c-69.687,0 -126.179,-56.492 -126.179,-126.179c-0,-525.688 -0,-1976.71 -0,-2460.41c-0,-24.554 9.753,-48.101 27.115,-65.463c17.362,-17.362 40.91,-27.116 65.463,-27.116c229.697,0 652.333,0 889.001,0c84.721,0 163.672,42.928 209.73,114.036c36.43,56.243 78.093,120.566 114.523,176.81c70.634,109.05 191.712,174.883 321.639,174.883l1320.83,0c24.553,0 48.101,9.754 65.462,27.116c17.362,17.362 27.116,40.909 27.116,65.463Z"/><path d="M1542.87,1340.24l0,599.576c0,178.533 144.729,323.262 323.262,323.262l930.803,0l-0,-141.667l-930.803,0c-100.292,0 -181.595,-81.303 -181.595,-181.595l-0,-599.576l356.687,356.688l100.174,-100.174l-527.694,-527.694l-527.694,527.694l100.173,100.174l356.687,-356.688Z"/></g></svg>