<?xml version="1.0" encoding="UTF-8" standalone="no"?><!DOCTYPE svg PUBLIC "-//W3C//DTD SVG 1.1//EN" "http://www.w3.org/Graphics/SVG/1.1/DTD/svg11.dtd"><svg width="100%" height="100%" viewBox="0 -1000 4004 5152" version="1.1" xmlns="http://www.w3.org/2000/svg" xmlns:xlink="http://www.w3.org/1999/xlink" xml:space="preserve" xmlns:serif="http://www.serif.com/" style="fill:#b20dff;fill-rule:evenodd;clip-rule:evenodd;stroke-linejoin:round;stroke-miterlimit:2;"><rect id="format_args" x="0.477" y="1.52" width="4000" height="3125" style="fill:none;"/><g><g><path d="M1035.67,322.522c-272.613,49.123 -479.695,287.796 -479.695,574.453l-0,2229.55l-166.667,0l0,-2229.55c0,-414.145 336.233,-750.378 750.379,-750.378c414.145,-0 750.378,336.233 750.378,750.378l-166.667,-0c0,-317.939 -254.744,-576.849 -571.062,-583.577l0,1372.43l552.312,0l-0,170.834l-552.312,-0l0,1269.86l-116.666,0l-0,-2804Z"/></g><circle cx="2281.79" cy="1778.23" r="168.6"/><circle cx="2959.35" cy="1778.23" r="168.6"/><circle cx="3638.13" cy="1778.23" r="168.6"/></g></svg>