<?xml version="1.0" encoding="UTF-8" standalone="no"?><!DOCTYPE svg PUBLIC "-//W3C//DTD SVG 1.1//EN" "http://www.w3.org/Graphics/SVG/1.1/DTD/svg11.dtd"><svg width="100%" height="100%" viewBox="0 -1000 4004 5152" version="1.1" xmlns="http://www.w3.org/2000/svg" xmlns:xlink="http://www.w3.org/1999/xlink" xml:space="preserve" xmlns:serif="http://www.serif.com/" style="fill:#b20dff;fill-rule:evenodd;clip-rule:evenodd;stroke-linejoin:round;stroke-miterlimit:2;"><rect id="heart" x="1.075" y="1.759" width="4000" height="3125" style="fill:none;"/><path d="M2001.08,579.082c286.334,-321.188 800.815,-428.964 1179.28,-83.245c398.646,364.151 330.711,1036.52 -329.974,1623.43c-373.865,332.118 -796.038,706.077 -796.038,706.077l-53.952,47.79l-848.628,-753.867c-660.684,-586.91 -728.62,-1259.28 -329.973,-1623.43c378.468,-345.719 892.949,-237.943 1179.28,83.245Zm-0.54,2076.82c125.489,-111.177 448.582,-397.532 741.928,-658.122c566.484,-503.228 670.106,-1069.74 328.298,-1381.96c-330.272,-301.694 -788.439,-169.395 -1002.87,140.578l-66.821,96.595l-66.82,-96.595c-214.426,-309.973 -672.593,-442.272 -1002.87,-140.578c-341.808,312.23 -238.186,878.737 328.298,1381.96l740.847,658.122Z"/></svg>