<?xml version="1.0" encoding="UTF-8" standalone="no"?><!DOCTYPE svg PUBLIC "-//W3C//DTD SVG 1.1//EN" "http://www.w3.org/Graphics/SVG/1.1/DTD/svg11.dtd"><svg width="100%" height="100%" viewBox="0 -1000 4004 5152" version="1.1" xmlns="http://www.w3.org/2000/svg" xmlns:xlink="http://www.w3.org/1999/xlink" xml:space="preserve" xmlns:serif="http://www.serif.com/" style="fill:#b20dff;fill-rule:evenodd;clip-rule:evenodd;stroke-linejoin:round;stroke-miterlimit:2;"><rect id="hilbert" x="0.777" y="2.093" width="4000" height="3125" style="fill:none;"/><path d="M2312.14,963.884l-0,-769.078l931.058,0l0,1692.32l-776.891,0l-0,614.911l776.891,-0l0,154.166l-931.058,0l-0,-923.243l776.892,-0l-0,-1383.99l-622.725,0l-0,769.077l-931.059,0l-0,-769.077l-622.725,0l-0,1383.99l776.892,-0l-0,923.243l-853.976,0l-77.083,0l-0,-154.166l776.892,-0l-0,-614.911l-776.892,0l-0,-1692.32l931.059,0l-0,769.078l622.725,-0Z"/></svg>