<?xml version="1.0" encoding="UTF-8" standalone="no"?><!DOCTYPE svg PUBLIC "-//W3C//DTD SVG 1.1//EN" "http://www.w3.org/Graphics/SVG/1.1/DTD/svg11.dtd"><svg width="100%" height="100%" viewBox="0 -1000 4004 5152" version="1.1" xmlns="http://www.w3.org/2000/svg" xmlns:xlink="http://www.w3.org/1999/xlink" xml:space="preserve" xmlns:serif="http://www.serif.com/" style="fill:#b20dff;fill-rule:evenodd;clip-rule:evenodd;stroke-linejoin:round;stroke-miterlimit:2;"><rect id="infinity_fix" x="0.854" y="2.63" width="4000" height="3125" style="fill:none;"/><path d="M1981.7,1817.21c-136.557,186.884 -275.307,367.931 -434.156,493.915c-150.202,119.126 -315.26,195.773 -508.731,198.458c-181.451,2.709 -325.836,-66.639 -432.521,-185.007c-131.348,-145.734 -203.328,-372.257 -206.75,-640.04c-0.104,-269.093 70.629,-497.211 200.584,-645.445c107.076,-122.139 253.71,-193.862 438.687,-193.75c197.61,-0.337 368.206,74.63 522.355,195.226c167.058,130.695 314.05,318.179 458.879,511.524l20.637,-27.578c131.716,-175.423 264.405,-343.315 414.732,-464.981c148.905,-120.515 314.173,-196.814 507.485,-200.406c183.484,-3.433 328.781,64.512 435.497,182.316c131,144.612 201.418,371.128 204.242,643.094c0.721,270.988 -72.468,497.315 -201.224,644.873c-108.768,124.651 -256.8,196.588 -438.515,196.692c-198.071,0.022 -369.035,-75.203 -523.32,-196.367c-166.832,-131.017 -313.436,-318.831 -457.881,-512.524Zm-79.821,-107.401c-82.796,-111.419 -165.992,-221.667 -252.984,-321.085c-174.513,-199.441 -363.361,-355.466 -610.082,-355.883c-157.269,0.088 -273.803,75.947 -347.905,200.353c-69.788,117.164 -103.748,273.809 -103.843,451.342c-2.204,178.334 29.598,336.118 98.095,454.765c74.28,128.662 192.317,208.668 353.653,211.076c252.126,3.451 449.137,-150.813 630.043,-352.532c80.043,-89.252 157.087,-187.615 233.023,-288.036Zm196.599,-52.658c83.517,111.917 167.406,222.702 255.096,322.534c174.518,198.683 363.135,354.175 609.327,354.174c152.627,0.125 269.604,-75.479 345.039,-200.626c69.808,-115.813 105.738,-270.763 106.243,-448.697c1.714,-180.375 -30.032,-337.559 -97.7,-455.423c-73.65,-128.285 -190.99,-207.142 -353.582,-210.056c-365.864,-1.335 -619.855,305.185 -864.423,638.094Z"/></svg>