<?xml version="1.0" encoding="UTF-8" standalone="no"?><!DOCTYPE svg PUBLIC "-//W3C//DTD SVG 1.1//EN" "http://www.w3.org/Graphics/SVG/1.1/DTD/svg11.dtd"><svg width="100%" height="100%" viewBox="0 -1000 4004 5152" version="1.1" xmlns="http://www.w3.org/2000/svg" xmlns:xlink="http://www.w3.org/1999/xlink" xml:space="preserve" xmlns:serif="http://www.serif.com/" style="fill:#b20dff;fill-rule:evenodd;clip-rule:evenodd;stroke-linejoin:round;stroke-miterlimit:2;"><rect id="jiggie" x="0.835" y="0.003" width="4000" height="3125" style="fill:none;"/><path d="M2687.47,2127.2c-4.228,17.556 -12.008,54.129 -12.575,86.868c-2.025,116.821 24.42,290.46 85.969,543.616l43.803,180.634l-2470.4,-0.468l-145.686,0c-0,0 25.642,-713.844 25.642,-713.844c8.974,-188.207 69.981,-276.832 140.479,-317.618c66.944,-38.73 155.029,-42.651 255.247,-13.711c115.247,33.281 252.617,111.727 366.665,126.88c128.726,16.942 225.02,-34.19 289.072,-116.986c72.857,-94.177 107.303,-224.653 107.294,-347.266c0.02,-122.617 -34.367,-253.137 -107.263,-347.29c-64.054,-82.732 -160.408,-133.67 -289.058,-116.627c-115.944,15.428 -256.513,94.053 -372.457,128.599c-104.825,31.234 -196.195,26.157 -265.42,-18.705c-67.486,-43.735 -124.173,-137.715 -130.856,-326.788l-19.418,-534.061l-0.417,-145.932l2611.72,-5.679l-43.178,180.214c-60.038,250.588 -85.006,421.389 -81.507,535.466c0.905,29.537 8.071,62.011 12.22,78.526c6.428,-0.674 14.4,-1.664 20.394,-2.906c26.567,-5.507 54.982,-15.167 84.496,-26.176c113.92,-42.494 239.496,-100.623 345.915,-114.64c184.901,-24.353 332.27,30.93 443.705,128.602c156.946,137.562 239.814,369.321 239.814,587.397c0,218.076 -82.868,449.836 -239.814,587.397c-111.435,97.672 -258.804,152.955 -443.705,128.602c-107.503,-14.159 -234.587,-73.471 -349.396,-115.939c-29.574,-10.94 -57.98,-20.468 -84.452,-25.582c-4.973,-0.96 -11.48,-1.889 -16.832,-2.583Zm-2353.13,-1787.18l2280.47,-4.96c-289.287,1207.43 219.197,691.4 542.381,648.834c347.776,-45.805 518.643,280.181 518.643,571.414c-0,291.233 -170.867,617.219 -518.643,571.414c-324.677,-42.762 -836.371,-563.372 -538.396,665.415l-2284.53,0c0,0 -0.106,-517.361 0,-567.877c0.964,-461.16 372.577,-131.21 628.233,-97.538c347.776,45.805 518.643,-280.181 518.643,-571.414c0,-291.233 -170.867,-617.219 -518.643,-571.414c-257.573,33.925 -632.848,368.587 -628.159,-108.153c1.185,-120.54 -0,-535.721 -0,-535.721Z"/></svg>