<?xml version="1.0" encoding="UTF-8" standalone="no"?><!DOCTYPE svg PUBLIC "-//W3C//DTD SVG 1.1//EN" "http://www.w3.org/Graphics/SVG/1.1/DTD/svg11.dtd"><svg width="100%" height="100%" viewBox="0 -1000 4004 5152" version="1.1" xmlns="http://www.w3.org/2000/svg" xmlns:xlink="http://www.w3.org/1999/xlink" xml:space="preserve" xmlns:serif="http://www.serif.com/" style="fill:#b20dff;fill-rule:evenodd;clip-rule:evenodd;stroke-linejoin:round;stroke-miterlimit:2;"><rect id="library_small_thin" x="1.896" y="2.955" width="4000" height="3125" style="fill:none;"/><g><g id="Ebene7"><path d="M1632.74,2340.45l-0,-1120.48l108.333,0l0,1120.48l521.639,0l0,-1120.48l108.333,0l0,1120.48l536.623,0l0,-1120.48l108.334,0l-0,1120.48l348.64,0l-0,162.5l-2725.5,0l-0,-162.5l348.64,0l-0,-1120.48l108.333,0l-0,1120.48l536.623,0Zm1731.9,-1602.55l-0,203.4l-2725.5,-0l-0,-205.511l1340.55,-828.755l1384.95,830.866Zm-2593.88,107.566l2457.31,0l-1247.11,-748.17l-1210.2,748.17Z"/></g><g id="Ebene71" serif:id="Ebene7"></g></g></svg>