<?xml version="1.0" encoding="UTF-8" standalone="no"?><!DOCTYPE svg PUBLIC "-//W3C//DTD SVG 1.1//EN" "http://www.w3.org/Graphics/SVG/1.1/DTD/svg11.dtd"><svg width="100%" height="100%" viewBox="0 -1000 2004 5152" version="1.1" xmlns="http://www.w3.org/2000/svg" xmlns:xlink="http://www.w3.org/1999/xlink" xml:space="preserve" xmlns:serif="http://www.serif.com/" style="fill:#b20dff;fill-rule:evenodd;clip-rule:evenodd;stroke-linejoin:round;stroke-miterlimit:2;"><rect id="link" x="1.161" y="0.002" width="2000" height="3125" style="fill:none;"/><path d="M1441.83,1810l-0,343.27c-0,243.209 -197.455,440.664 -440.664,440.664c-243.209,-0 -440.664,-197.455 -440.664,-440.664c0,-0 0,-343.27 0,-343.27c0,-47.909 -38.896,-86.805 -86.805,-86.805c-47.91,-0 -86.806,38.896 -86.806,86.805l0,343.27c0,339.027 275.247,614.275 614.275,614.275c339.028,-0 614.275,-275.248 614.275,-614.275c-0,-0 -0,-343.27 -0,-343.27c-0,-47.909 -38.896,-86.805 -86.806,-86.805c-47.909,-0 -86.805,38.896 -86.805,86.805Zm-356.442,176.011l2.583,-928.592c0.134,-47.909 -38.654,-86.914 -86.563,-87.047c-47.91,-0.133 -86.914,38.655 -87.047,86.564l-2.584,928.592c-0.133,47.909 38.655,86.914 86.564,87.047c47.909,0.133 86.913,-38.655 87.047,-86.564Zm-524.886,-753.064l0,-343.27c0,-243.209 197.455,-440.664 440.664,-440.664c243.209,0 440.664,197.455 440.664,440.664c-0,0 -0,343.27 -0,343.27c-0,47.909 38.896,86.805 86.805,86.805c47.91,0 86.806,-38.896 86.806,-86.805l-0,-343.27c-0,-339.027 -275.247,-614.275 -614.275,-614.275c-339.028,0 -614.275,275.248 -614.275,614.275c0,0 0,343.27 0,343.27c0,47.909 38.896,86.805 86.806,86.805c47.909,0 86.805,-38.896 86.805,-86.805Z"/></svg>