<?xml version="1.0" encoding="UTF-8" standalone="no"?><!DOCTYPE svg PUBLIC "-//W3C//DTD SVG 1.1//EN" "http://www.w3.org/Graphics/SVG/1.1/DTD/svg11.dtd"><svg width="100%" height="100%" viewBox="0 -1000 4004 5152" version="1.1" xmlns="http://www.w3.org/2000/svg" xmlns:xlink="http://www.w3.org/1999/xlink" xml:space="preserve" xmlns:serif="http://www.serif.com/" style="fill:#b20dff;fill-rule:evenodd;clip-rule:evenodd;stroke-linejoin:round;stroke-miterlimit:2;"><rect id="magnifyer" x="0.945" y="-0.015" width="4000" height="3125" style="fill:none;"/><g><path d="M2526.04,2224.41c-432.442,390.47 -1100.82,377.387 -1517.47,-39.264c-430.157,-430.157 -430.157,-1128.62 0,-1558.78c430.158,-430.158 1128.62,-430.158 1558.78,-0c416.65,416.65 429.733,1085.03 39.263,1517.47c28.016,22.114 61.676,49.017 99.082,79.56c54.35,44.379 116.448,94.851 179.093,151.048c68.947,61.851 137.966,129.578 202.773,193.397c162.63,160.153 294.657,299.596 294.657,299.596l-132.582,132.582c-0,0 -139.443,-132.027 -299.595,-294.657c-63.82,-64.807 -131.547,-133.826 -193.398,-202.773c-56.196,-62.645 -106.669,-124.742 -151.047,-179.093c-30.543,-37.406 -57.446,-71.066 -79.561,-99.082Zm-1402.56,-1483.14c366.74,-366.74 962.232,-366.74 1328.97,-0c366.74,366.74 366.74,962.232 -0,1328.97c-366.74,366.739 -962.232,366.739 -1328.97,-0c-366.74,-366.74 -366.74,-962.232 0,-1328.97Z"/></g></svg>