<?xml version="1.0" encoding="UTF-8" standalone="no"?><!DOCTYPE svg PUBLIC "-//W3C//DTD SVG 1.1//EN" "http://www.w3.org/Graphics/SVG/1.1/DTD/svg11.dtd"><svg width="100%" height="100%" viewBox="0 -1000 4004 5152" version="1.1" xmlns="http://www.w3.org/2000/svg" xmlns:xlink="http://www.w3.org/1999/xlink" xml:space="preserve" xmlns:serif="http://www.serif.com/" style="fill:#b20dff;fill-rule:evenodd;clip-rule:evenodd;stroke-linejoin:round;stroke-miterlimit:2;"><rect id="metronome" x="2.81" y="0.715" width="4000" height="3125" style="fill:none;"/><g><path d="M2630.31,1631.71l474.545,1332.93l-2486.29,0l989.476,-2779.31l507.334,-0l457.69,1285.59l539.38,-539.38l-211.921,-211.921l185.545,-185.544l211.92,211.92l262.429,-262.428c30.083,-30.083 78.929,-30.083 109.012,-0c30.083,30.083 30.083,78.929 0,109.012l-262.428,262.428l207.922,207.923l-185.545,185.544l-207.922,-207.922l-591.151,591.151Zm-177.923,-40.102l-445.768,-1252.11l-289.815,-0l-879.704,2470.97l2049.22,-0l-376.695,-1058.09l-592.247,592.247c-30.082,30.083 -78.929,30.083 -109.012,-0c-30.083,-30.083 -30.083,-78.93 0,-109.013l644.017,-644.017Z"/></g></svg>