<?xml version="1.0" encoding="UTF-8" standalone="no"?><!DOCTYPE svg PUBLIC "-//W3C//DTD SVG 1.1//EN" "http://www.w3.org/Graphics/SVG/1.1/DTD/svg11.dtd"><svg width="100%" height="100%" viewBox="0 -1000 4004 5152" version="1.1" xmlns="http://www.w3.org/2000/svg" xmlns:xlink="http://www.w3.org/1999/xlink" xml:space="preserve" xmlns:serif="http://www.serif.com/" style="fill:#b20dff;fill-rule:evenodd;clip-rule:evenodd;stroke-linejoin:round;stroke-miterlimit:2;"><rect id="mic" x="1.723" y="0.601" width="4000" height="3125" style="fill:none;"/><g><g><path d="M1926.72,2365.15l-0,386.023l-684.674,0l-0,150l1519.35,0l0,-150l-684.674,0l-0,-386.023c548.087,-38.478 981.45,-495.941 981.45,-1053.82c-0,-0 -0,-479.861 -0,-479.861l-145.834,0l0,479.861c0,502.583 -408.033,910.616 -910.616,910.616c-502.583,0 -910.617,-408.033 -910.617,-910.616c0,-0 0,-479.861 0,-479.861l-145.833,0l0,479.861c0,557.882 433.363,1015.35 981.45,1053.82Zm591.693,-2013.54l-0,959.721c-0,285.17 -231.522,516.693 -516.693,516.693c-285.171,-0 -516.693,-231.523 -516.693,-516.693c-0,-0 -0,-959.721 -0,-959.721c-0,-285.171 231.522,-516.693 516.693,-516.693c285.171,-0 516.693,231.522 516.693,516.693Zm-145.833,-0l-0,959.721c-0,204.683 -166.177,370.859 -370.86,370.859c-204.683,0 -370.86,-166.176 -370.86,-370.859c0,-0 0,-959.721 0,-959.721c0,-204.683 166.177,-370.86 370.86,-370.86c204.683,0 370.86,166.177 370.86,370.86Z"/></g></g></svg>