<?xml version="1.0" encoding="UTF-8" standalone="no"?><!DOCTYPE svg PUBLIC "-//W3C//DTD SVG 1.1//EN" "http://www.w3.org/Graphics/SVG/1.1/DTD/svg11.dtd"><svg width="100%" height="100%" viewBox="0 -1000 4004 5152" version="1.1" xmlns="http://www.w3.org/2000/svg" xmlns:xlink="http://www.w3.org/1999/xlink" xml:space="preserve" xmlns:serif="http://www.serif.com/" style="fill:#b20dff;fill-rule:evenodd;clip-rule:evenodd;stroke-linejoin:round;stroke-miterlimit:2;"><rect id="mutable_key" x="2.984" y="1.252" width="4000" height="3125" style="fill:none;"/><g><g id="Ebene4"><path d="M1978.69,1737.49c-433.87,199.507 -957.021,38.973 -1200.52,-382.77c-258.238,-447.282 -104.759,-1020.08 342.524,-1278.31c447.282,-258.239 1020.08,-104.759 1278.31,342.523c243.493,421.743 120.944,955.072 -268.769,1231.06l292.338,506.344l461.29,-266.326l72.916,126.295l-306.642,177.04c-44.177,224.138 47.272,358.062 242.68,420.333l306.642,-177.039l72.917,126.295l-461.29,266.326l149.949,259.72l-151.554,87.5l-830.8,-1438.99Zm-770.491,-1509.53c363.637,-209.946 829.314,-85.168 1039.26,278.469c209.946,363.637 85.168,829.314 -278.469,1039.26c-363.637,209.946 -829.314,85.168 -1039.26,-278.469c-209.946,-363.637 -85.168,-829.314 278.469,-1039.26Z"/></g></g></svg>