<?xml version="1.0" encoding="UTF-8" standalone="no"?><!DOCTYPE svg PUBLIC "-//W3C//DTD SVG 1.1//EN" "http://www.w3.org/Graphics/SVG/1.1/DTD/svg11.dtd"><svg width="100%" height="100%" viewBox="0 -1000 6004 5152" version="1.1" xmlns="http://www.w3.org/2000/svg" xmlns:xlink="http://www.w3.org/1999/xlink" xml:space="preserve" xmlns:serif="http://www.serif.com/" style="fill:#b20dff;fill-rule:evenodd;clip-rule:evenodd;stroke-linejoin:round;stroke-miterlimit:2;"><rect id="no_glpyh" x="1.238" y="1.232" width="6000" height="3125" style="fill:none;"/><g><g><path d="M366.463,3503.91c-11.588,5.799 -17.444,18.994 -13.971,31.478c-0,-0 11.555,41.535 11.555,41.535c4.009,14.41 18.94,22.842 33.351,18.833l305.144,-84.889c14.41,-4.009 22.842,-18.941 18.833,-33.351l-11.554,-41.535c-3.512,-12.623 -15.556,-20.922 -28.603,-19.708c-33.008,3.072 -57.183,-0.136 -71.343,-14.834c-17.235,-17.889 -35.148,-66.838 -57.04,-145.531c0,-0 -119.23,-428.586 -119.23,-428.586c0,0 17.066,-6.48 17.066,-6.48c72.655,100.541 446.289,617.583 446.289,617.583c6.638,9.186 18.293,13.267 29.211,10.23l176.972,-49.233c14.411,-4.009 22.843,-18.941 18.834,-33.351l-11.555,-41.535c-3.444,-12.382 -15.117,-20.638 -27.94,-19.761c-16.739,1.144 -31.857,-2.758 -45.304,-11.895c-16.729,-11.366 -35.595,-31.81 -57.213,-60.749l-371.983,-497.7c48.515,-39.136 81.799,-92.552 99.447,-160.529c19.432,-74.844 13.305,-172.455 -20.15,-292.71c-50.348,-180.984 -129.706,-291.79 -233.421,-335.631c-56.848,-24.192 -120.208,-27.082 -190.059,-7.65c-0,0 -304.072,84.591 -304.072,84.591c-14.41,4.009 -22.842,18.941 -18.833,33.351l11.867,42.657c3.54,12.726 15.744,21.042 28.883,19.681c30.478,-3.157 53.18,0.903 66.817,16.918c17.294,20.313 35.233,68.518 56.147,143.695c-0,0 277.001,995.711 277.001,995.711c25.238,90.721 37.429,149.653 34.511,177.191c-2.27,21.418 -20.271,37.496 -49.657,52.204Zm1019.98,-345.175c-0.87,-0.953 -4.986,-5.564 -7.326,-9.637c-6.334,-11.025 -12.105,-26.666 -17.7,-46.776c0,-0 -151.072,-543.046 -151.072,-543.046c-0,0 142.836,-39.736 142.836,-39.736c33.283,-9.259 57.967,-8.439 72.924,9.63c19.899,24.039 44.937,77.693 76.375,160.359c4.974,13.079 19.092,20.215 32.573,16.465l25.741,-7.161c14.411,-4.009 22.843,-18.941 18.834,-33.351l-148.025,-532.094c-4.009,-14.411 -18.941,-22.843 -33.352,-18.834l-25.741,7.161c-13.521,3.762 -21.929,17.229 -19.371,31.028c16.114,86.951 22.592,145.971 18.064,177.196c-3.407,23.498 -24.248,37.145 -57.835,46.489c-0,-0 -142.836,39.736 -142.836,39.736c-0,-0 -135.458,-486.918 -135.458,-486.918c-6.696,-24.069 -10.56,-41.247 -10.514,-51.734c1.378,-0.667 3.677,-1.703 5.527,-2.218c-0,0 149.086,-41.475 149.086,-41.475c28.569,-7.948 52.944,-11.463 73.204,-9.94c15.878,1.194 28.744,5.454 38.11,14.07c25.328,23.3 54.417,82.271 89.805,175.604c4.964,13.093 19.092,20.243 32.583,16.49l27.886,-7.758c6.972,-1.939 12.877,-6.588 16.4,-12.909c3.522,-6.321 4.368,-13.789 2.35,-20.738l-95.568,-328.989c-4.139,-14.248 -18.972,-22.514 -33.267,-18.537l-583.473,162.319c-14.41,4.009 -22.843,18.941 -18.834,33.351l11.867,42.657c3.602,12.946 16.151,21.294 29.482,19.612c31.076,-3.92 54.135,-0.497 67.886,15.463c17.453,20.257 35.526,68.783 56.624,144.622c0,0 284.496,1022.65 284.496,1022.65c14.023,50.404 22.871,89.963 26.375,118.716c1.886,15.484 2.463,27.076 0.574,34.787c-4.639,18.926 -23.272,34.353 -52.361,49.871c-11.199,5.974 -16.746,18.925 -13.344,31.154l11.554,41.535c4.009,14.41 18.941,22.842 33.352,18.833l593.662,-165.153c13.126,-3.652 21.496,-16.485 19.546,-29.969l-58.178,-402.281c-1.114,-7.704 -5.489,-14.556 -12.01,-18.808c-6.52,-4.253 -14.554,-5.494 -22.053,-3.408l-30.568,8.504c-12.291,3.419 -20.529,14.952 -19.778,27.687c7.724,130.937 1.567,217.311 -22.883,258.715c-23,38.95 -68.384,66.2 -134.366,84.556c-39.618,11.022 -70.112,18.052 -91.519,20.936c-9.223,1.242 -15.97,2.13 -20.284,1.271Zm492.855,-75.584c-11.314,5.925 -16.951,18.948 -13.528,31.252l11.555,41.535c4.009,14.41 18.94,22.842 33.351,18.833l257.951,-71.76c14.41,-4.009 22.843,-18.941 18.834,-33.352l-11.555,-41.534c-3.392,-12.192 -14.774,-20.41 -27.413,-19.793c-31.649,1.546 -55.022,-3.527 -68.771,-19.654c-26.866,-31.829 -55.832,-108.223 -89.227,-228.265c0,0 -112.786,-405.422 -188.381,-677.159c-0,0 508.55,958.173 508.55,958.173c5.961,11.231 18.932,16.803 31.182,13.395l15.015,-4.177c12.3,-3.422 20.54,-14.969 19.777,-27.713l-67.856,-1132.36c0,-0 218.916,786.917 218.916,786.917c25.563,91.888 37.762,151.237 34.247,178.488c-2.766,21.445 -22.195,37.219 -53.599,51.948c-11.967,5.613 -18.134,19.045 -14.591,31.779l11.554,41.535c4.009,14.41 18.941,22.842 33.352,18.833l307.825,-85.635c14.41,-4.009 22.842,-18.941 18.833,-33.351l-11.554,-41.535c-3.504,-12.593 -15.501,-20.887 -28.52,-19.715c-32.033,2.882 -55.555,-0.677 -69.281,-15.85c-17.008,-18.802 -34.898,-67.592 -56.503,-145.254c-0,-0 -284.497,-1022.65 -284.497,-1022.65c-21.098,-75.84 -30.681,-126.727 -26.196,-153.087c3.533,-20.769 21.511,-35.608 50.147,-48.299c12.285,-5.445 18.72,-19.073 15.119,-32.019l-11.867,-42.658c-4.009,-14.41 -18.941,-22.842 -33.352,-18.833l-218.802,60.869c-12.349,3.436 -20.598,15.057 -19.768,27.847l71.476,1101.1c-0,0 -517.649,-977.234 -517.649,-977.234c-5.955,-11.243 -18.934,-16.825 -31.192,-13.415l-217.193,60.422c-14.411,4.009 -22.843,18.941 -18.834,33.351l11.867,42.657c3.726,13.393 16.985,21.79 30.685,19.433c33.767,-5.81 58.471,-3.918 72.907,12.076c18.07,20.018 36.48,69.076 57.908,146.1c-0,-0 259.825,933.97 259.825,933.97c32.348,116.276 47.778,191.911 44.32,227.285c-2.786,28.489 -22.086,50.237 -55.067,67.508Zm838.467,-979.809c66.208,237.989 155.994,422.903 268.552,555.132c0.01,0.012 0.021,0.024 0.031,0.036c117.478,137.513 233.631,187.094 345.09,156.087c104.384,-29.039 176.49,-123.162 210.448,-286.633c0.002,-0.011 0.005,-0.023 0.007,-0.034c35.484,-171.926 18.478,-385.066 -52.254,-639.319c-69.644,-250.341 -163.267,-440.043 -279.842,-569.609c-114.376,-127.325 -226.739,-172.647 -334.143,-142.768c-107.033,29.776 -179.756,126.18 -212.176,293.498c-0.002,0.012 -0.005,0.025 -0.007,0.038c-33.07,172.013 -15.348,383.236 54.294,633.572l0,0Zm-2481.22,-2.267c1.019,-0.801 3.227,-2.464 4.947,-3.431c7.396,-4.159 17.644,-7.876 30.615,-11.484c38.601,-10.739 72.669,-9.127 102.108,6.302c0.032,0.017 0.063,0.033 0.095,0.05c60.953,31.643 106.204,110.692 140.569,234.222c35.662,128.191 35.954,223.119 -4.976,284.647c-20.601,29.862 -59.137,55.32 -114.645,78.101l0.001,-0l-149.717,-538.174c-4.323,-15.539 -7.144,-28.452 -8.319,-38.77c-0.555,-4.871 -1.196,-8.698 -0.678,-11.463Zm2657.82,-46.863c-66.243,-238.119 -93.388,-420.09 -80.211,-546.091c6.258,-59.838 18.188,-106.963 36.657,-141.149c15.797,-29.242 36.227,-48.183 62.468,-55.484c25.318,-7.043 51.858,-1.63 79.932,14.457c32.891,18.847 67.103,51.555 103.224,97.501c76.054,96.74 147.619,268.413 216.064,514.444c67.645,243.157 94.986,426.187 80.646,549.292c-6.805,58.425 -19.023,104.457 -37.499,137.863c-15.81,28.585 -36.042,47.121 -61.837,54.298c-26.411,7.347 -53.809,1.719 -82.501,-15.17c-33.498,-19.718 -68.013,-53.907 -104.175,-101.92c-76.18,-101.146 -146.727,-270.65 -212.768,-508.04l0,-0.001Zm789.182,-1039.54c-4.009,-14.411 -18.941,-22.843 -33.351,-18.834l-292.273,81.309c-14.411,4.009 -22.843,18.941 -18.834,33.351c0,0 10.93,39.29 10.93,39.29c3.617,12.998 16.249,21.353 29.626,19.593c18.806,-2.475 35.172,4.535 49.569,19.83c20.332,21.599 55.426,81.302 106.279,178.514l622.466,1188.67c5.925,11.314 18.948,16.952 31.252,13.529l16.624,-4.625c12.553,-3.492 20.84,-15.428 19.726,-28.409l-116.823,-1360.77c-0.002,-0.014 -0.003,-0.028 -0.004,-0.043c-7.733,-88.442 -8.17,-148.787 0.098,-181.029c0.011,-0.041 0.021,-0.081 0.031,-0.121c3.953,-15.713 13.63,-27.977 28.523,-37.179c10.255,-6.336 15.088,-18.686 11.857,-30.299l-10.93,-39.29c-4.009,-14.41 -18.941,-22.842 -33.351,-18.833l-224.702,62.51c-14.41,4.009 -22.842,18.941 -18.833,33.352l11.867,42.657c3.838,13.797 17.753,22.221 31.757,19.225c17.565,-3.757 31.012,-5.086 40.349,-0.99c17.421,8.323 28.252,30.979 37.691,64.907c4.328,15.558 8.189,36.192 11.696,61.883c3.67,26.888 7.393,60.139 11.176,99.753c-0,-0 72.25,773.248 72.25,773.248c-0,-0 -330.539,-630.979 -330.539,-630.979c-0.007,-0.015 -0.015,-0.03 -0.023,-0.044c-39.056,-74.224 -66.366,-127.231 -81.922,-159.026c-14.681,-30.006 -24.59,-53.746 -29.48,-71.325c-7.015,-25.215 -9.175,-43.792 0.486,-55.433c6.183,-7.154 20.169,-12.318 40.552,-18.59c14.022,-4.314 22.059,-19.01 18.127,-33.144c0,0 -11.867,-42.657 -11.867,-42.657Zm1156.33,1183.34c-0.869,-0.954 -4.986,-5.565 -7.326,-9.638c-6.334,-11.025 -12.105,-26.666 -17.699,-46.776c-0,0 -151.073,-543.046 -151.073,-543.046c0,0 142.836,-39.736 142.836,-39.736c33.284,-9.259 57.967,-8.438 72.924,9.63c19.899,24.039 44.937,77.693 76.375,160.359c4.974,13.079 19.092,20.216 32.573,16.465l25.742,-7.161c14.41,-4.009 22.842,-18.941 18.833,-33.351l-148.025,-532.094c-4.009,-14.41 -18.941,-22.843 -33.351,-18.834l-25.742,7.162c-13.521,3.761 -21.928,17.228 -19.371,31.027c16.114,86.951 22.592,145.971 18.065,177.196c-3.408,23.498 -24.249,37.145 -57.836,46.489c0,-0 -142.836,39.736 -142.836,39.736c0,-0 -135.457,-486.918 -135.457,-486.918c-6.696,-24.069 -10.561,-41.247 -10.514,-51.734c1.377,-0.667 3.676,-1.703 5.526,-2.218c0,0 149.086,-41.475 149.086,-41.475c28.57,-7.948 52.944,-11.462 73.204,-9.94c15.878,1.194 28.744,5.455 38.11,14.07c25.329,23.3 54.417,82.272 89.805,175.604c4.965,13.093 19.092,20.244 32.583,16.49l27.887,-7.757c6.971,-1.94 12.877,-6.589 16.399,-12.91c3.522,-6.321 4.369,-13.789 2.35,-20.738l-95.567,-328.988c-4.139,-14.249 -18.972,-22.515 -33.267,-18.538l-583.474,162.319c-14.41,4.009 -22.842,18.941 -18.833,33.351l11.867,42.658c3.601,12.945 16.15,21.293 29.482,19.611c31.076,-3.92 54.134,-0.497 67.886,15.463c17.453,20.257 35.525,68.783 56.624,144.623c-0,-0 284.496,1022.65 284.496,1022.65c14.022,50.404 22.87,89.964 26.374,118.716c1.887,15.484 2.463,27.076 0.574,34.787c-4.638,18.926 -23.272,34.353 -52.36,49.871c-11.2,5.974 -16.747,18.925 -13.345,31.154l11.555,41.535c4.009,14.41 18.941,22.843 33.351,18.834l593.663,-165.154c13.125,-3.651 21.495,-16.485 19.545,-29.969l-58.178,-402.281c-1.114,-7.704 -5.489,-14.556 -12.009,-18.808c-6.52,-4.253 -14.555,-5.494 -22.054,-3.408l-30.568,8.504c-12.291,3.419 -20.529,14.952 -19.778,27.688c7.725,130.936 1.567,217.31 -22.882,258.714c-23,38.95 -68.384,66.201 -134.367,84.557c-39.617,11.021 -70.112,18.051 -91.518,20.935c-9.224,1.243 -15.971,2.13 -20.285,1.272Zm497.99,-76.955c-11.171,5.987 -16.697,18.92 -13.3,31.13l11.555,41.535c4.009,14.41 18.941,22.843 33.351,18.834l305.144,-84.89c88.193,-24.535 155.795,-68.94 203.271,-132.5c25.882,-33.872 47.683,-78.909 64.873,-135.311c0.006,-0.021 0.012,-0.041 0.018,-0.062c26.092,-86.35 36.031,-186.034 29.438,-299.089c-6.494,-111.343 -25.912,-225.236 -58.304,-341.672c-91.039,-327.247 -220.36,-535.299 -383.712,-626.75c-94.576,-53.261 -195.359,-65.104 -302.371,-35.334c-0,0 -296.027,82.353 -296.027,82.353c-14.411,4.009 -22.843,18.941 -18.834,33.351l11.867,42.658c3.601,12.945 16.15,21.293 29.482,19.611c31.173,-3.932 54.172,-1.042 67.737,14.144c17.127,19.173 35.14,68.179 56.773,145.942c-0,-0 284.496,1022.65 284.496,1022.65c14.015,50.38 22.831,89.928 26.27,118.684c1.848,15.449 2.391,27.023 0.451,34.727c-4.784,18.999 -23.311,34.517 -52.178,49.987Zm209.175,-177.103l-325.094,-1168.59c-4.795,-17.237 -7.84,-31.69 -8.965,-43.393c-0.701,-7.297 -1.15,-12.916 0.437,-16.763c1.335,-3.236 4.613,-5.368 8.652,-7.638c5.175,-2.907 11.543,-5.304 19.028,-7.386c89.996,-25.037 174.752,2.386 255.066,79.689c100.569,96.987 181.911,260.826 245.836,490.608c71.335,256.423 82.333,449.061 29.246,578.096c-32.196,78.155 -86.861,128.226 -164.378,149.791c-10.467,2.912 -19.431,4.436 -26.963,4.079c-3.415,-0.162 -6.349,-0.424 -8.434,-2.068c-3.611,-2.849 -6.494,-8.188 -9.855,-15.201c-5.074,-10.59 -9.881,-24.351 -14.576,-41.228Z" style="fill:#b20dff;fill-rule:nonzero;"/></g></g></svg>