<?xml version="1.0" encoding="UTF-8" standalone="no"?><!DOCTYPE svg PUBLIC "-//W3C//DTD SVG 1.1//EN" "http://www.w3.org/Graphics/SVG/1.1/DTD/svg11.dtd"><svg width="100%" height="100%" viewBox="0 -1000 4004 5152" version="1.1" xmlns="http://www.w3.org/2000/svg" xmlns:xlink="http://www.w3.org/1999/xlink" xml:space="preserve" xmlns:serif="http://www.serif.com/" style="fill:#b20dff;fill-rule:evenodd;clip-rule:evenodd;stroke-linejoin:round;stroke-miterlimit:2;"><rect id="pastry_bag" x="1.844" y="1.72" width="4000" height="3125" style="fill:none;"/><g><g id="Ebene15"><path d="M2198.42,878.947c-392.716,-241.283 -861.425,-231.026 -1116.8,24.348c-184.315,184.315 -318.45,469.154 -413.306,771.595c-138.496,441.578 -194.846,919.695 -215.599,1156.08l-2.975,33.884l185.205,185.206l33.885,-2.975c236.381,-20.753 714.498,-77.103 1156.08,-215.599c302.44,-94.857 587.28,-228.992 771.594,-413.306c255.375,-255.375 265.632,-724.084 24.349,-1116.8c105.983,16.674 223.415,13.551 340.901,-2.551c340.274,-46.636 677.516,-192.969 677.516,-192.969l59.585,-25.872l-18.846,-62.166c-181.152,-597.55 -575.683,-1000.94 -1197.17,-1197.76l-62.703,-19.858l-26.195,60.33c-0,0 -146.333,337.241 -192.969,677.515c-16.102,117.486 -19.225,234.919 -2.551,340.902Zm32.369,200.169c-199.691,-158.217 -433.881,-236.024 -644.318,-230.06c-156.751,4.442 -300.01,55.638 -401.731,157.359c-169.694,169.694 -289.944,433.668 -377.276,712.118c-69.471,221.5 -117.611,452.464 -150.71,655.748c243.703,66.219 402.394,219.346 466.514,469.127c203.823,-33.108 435.677,-81.347 657.996,-151.075c278.45,-87.332 542.424,-207.582 712.117,-377.276c101.722,-101.721 152.917,-244.98 157.36,-401.731c5.988,-211.301 -72.484,-446.552 -232.042,-646.812c1.366,33.162 -1.688,69.336 -8.446,107.173c-38.728,216.801 -190.498,490.742 -190.498,490.742c-8.373,15.079 -27.412,20.523 -42.491,12.15c-15.079,-8.372 -20.523,-27.412 -12.151,-42.491c0,0 146.396,-263.045 183.613,-471.392c7.533,-42.169 10.58,-81.948 6.296,-116.408c-3.683,-29.628 -12.596,-55.041 -30.515,-72.959c-17.918,-17.918 -43.33,-26.832 -72.958,-30.515c-34.46,-4.284 -74.24,-1.237 -116.409,6.296c-208.346,37.217 -471.392,183.613 -471.392,183.613c-15.079,8.373 -34.118,2.928 -42.491,-12.15c-8.373,-15.079 -2.928,-34.119 12.151,-42.491c-0,-0 273.94,-151.771 490.742,-190.498c37.641,-6.724 73.636,-9.781 106.639,-8.468Zm271.876,-1098.72c513.294,180.345 849.469,521.857 1017.46,1016.45c-107.623,41.842 -342.111,125.14 -578.173,157.493c-196.032,26.868 -394.81,23.959 -507.632,-88.863c-112.822,-112.822 -115.731,-311.6 -88.864,-507.633c32.281,-235.532 115.279,-469.499 157.212,-577.447l0,0Z"/></g></g></svg>