<?xml version="1.0" encoding="UTF-8" standalone="no"?><!DOCTYPE svg PUBLIC "-//W3C//DTD SVG 1.1//EN" "http://www.w3.org/Graphics/SVG/1.1/DTD/svg11.dtd"><svg width="100%" height="100%" viewBox="0 -1000 4004 5152" version="1.1" xmlns="http://www.w3.org/2000/svg" xmlns:xlink="http://www.w3.org/1999/xlink" xml:space="preserve" xmlns:serif="http://www.serif.com/" style="fill:#b20dff;fill-rule:evenodd;clip-rule:evenodd;stroke-linejoin:round;stroke-miterlimit:2;"><rect id="pen" x="0.519" y="1.375" width="4000" height="3125" style="fill:none;"/><g><g><path d="M2749.25,291.179l341.504,-296.81l71.065,81.767l-270.229,234.863c310.818,107.186 632.603,602.059 538.852,930.972l336.617,-115.941l32.565,94.549l-435.61,150.037l-1106.77,1103.07c-723.308,-273.451 -1646.49,-134.826 -1954.92,43.252l-84.625,-146.575c308.44,-178.078 890.081,-908.26 1014.92,-1671.39l1508.78,-406.982c2.626,-0.31 5.259,-0.583 7.852,-0.813Zm-2142.52,2010.03c187.314,-50.021 418.204,-87.019 665.983,-97.031c307.032,-12.406 639.185,17.858 945.657,111.772l1022.68,-1052.44c43.858,-58.029 47.198,-134.014 34.82,-212.332c-14.561,-92.138 -54.349,-187.752 -107.752,-275.613c-65.384,-107.573 -151.256,-203.989 -243.404,-265.149c-52.67,-34.958 -105.458,-61.13 -156.767,-58.425l-1419.32,358.547c-72.2,312.322 -212.367,615.031 -377.068,874.503c-135.994,214.247 -287.592,398.961 -427.417,536.835l1210.69,-698.99c-27.7,-93.101 10.786,-196.53 98.55,-247.201c102.672,-59.278 234.155,-24.047 293.432,78.625c59.278,102.672 24.047,234.155 -78.625,293.433c-87.764,50.671 -196.579,32.285 -263.357,-38.254l-1198.09,691.718Z"/></g></g></svg>