<?xml version="1.0" encoding="UTF-8" standalone="no"?><!DOCTYPE svg PUBLIC "-//W3C//DTD SVG 1.1//EN" "http://www.w3.org/Graphics/SVG/1.1/DTD/svg11.dtd"><svg width="100%" height="100%" viewBox="0 -1000 4004 5152" version="1.1" xmlns="http://www.w3.org/2000/svg" xmlns:xlink="http://www.w3.org/1999/xlink" xml:space="preserve" xmlns:serif="http://www.serif.com/" style="fill:#b20dff;fill-rule:evenodd;clip-rule:evenodd;stroke-linejoin:round;stroke-miterlimit:2;"><rect id="pencil_eraser_small" x="2.243" y="1.16" width="4000" height="3125" style="fill:none;"/><g id="Ebene8"><g><path d="M1867.89,872.337c118.891,-234.121 -42.806,-390.325 -276.927,-509.216c-234.168,-118.914 -450.375,-154.675 -569.289,79.493c-109.179,214.995 -857.964,1633.31 -857.964,1633.31l76.413,884.041l767.717,-443.83c0,0 750.771,-1428.6 860.05,-1643.79Zm-955.325,77.001l601.577,305.491c-224.986,430.347 -533.73,1017.94 -609.525,1162.15l-546.124,315.723l-54.312,-628.34c76.357,-144.623 383.836,-727.17 608.384,-1155.03Zm661.394,191l-601.401,-305.402c80.45,-153.548 143.886,-275.267 171.714,-330.065c42.661,-84.008 106.646,-105.821 181.372,-94.242c63.177,9.791 132.036,39.022 203.061,75.09c71.332,36.224 136.517,75.062 182.736,120.834c54.611,54.084 76.652,119.242 33.851,203.527c-27.737,54.621 -91.043,176.456 -171.333,330.258Z"/></g></g></svg>