<?xml version="1.0" encoding="UTF-8" standalone="no"?><!DOCTYPE svg PUBLIC "-//W3C//DTD SVG 1.1//EN" "http://www.w3.org/Graphics/SVG/1.1/DTD/svg11.dtd"><svg width="100%" height="100%" viewBox="0 -1000 4004 5152" version="1.1" xmlns="http://www.w3.org/2000/svg" xmlns:xlink="http://www.w3.org/1999/xlink" xml:space="preserve" xmlns:serif="http://www.serif.com/" style="fill:#b20dff;fill-rule:evenodd;clip-rule:evenodd;stroke-linejoin:round;stroke-miterlimit:2;"><rect id="phantom2" x="1.39" y="0.672" width="4000" height="3125" style="fill:none;"/><g><g><path d="M3035.9,1577.38c172.273,-407.101 162.351,-803.851 -103.411,-1172.48c-432.308,-599.635 -1410.87,-712.171 -2024.8,-58.38c-690.034,734.837 -557.432,1792.85 148.228,2389.47c437.255,369.688 1037.93,504.402 1594.24,378.171c459.335,-104.227 833.146,-361.05 1098.05,-701.397c24.938,-31.736 26.922,-75.821 4.936,-109.668c-21.986,-33.848 -63.071,-49.958 -102.203,-40.075c-436.771,112.931 -809.69,-225.669 -615.041,-685.644Zm519.094,845.837c-238.349,266.847 -555.537,466.421 -936.182,552.792c-513.386,116.492 -1067.91,-7.033 -1471.43,-348.198c-645.089,-545.408 -767.225,-1512.55 -136.421,-2184.31c547.709,-583.271 1420.93,-490.704 1806.61,44.253c234.404,325.131 239.807,675.356 87.861,1034.42c-124.33,293.806 -58.522,547.666 99.241,711.223c129.851,134.62 328.189,210.475 550.319,189.824Z"/><path d="M1967.8,1740.81c150.335,61.484 285.064,17.746 371.744,5.756c15.562,-2.153 28.488,2.715 28.838,17.539c1.412,59.75 -44.132,125.012 -111.011,177.382c-110.261,86.343 -283.23,135.046 -453.923,58.885c-147.631,-65.871 -263.073,-252.741 -292.34,-407.187c-9.126,-48.161 -9.738,-92.836 2.213,-129.012c8.225,-24.9 23.173,-44.806 47.542,-54.646c47.904,-19.344 84.535,1.898 101.168,23.22c61.178,78.423 113.683,213.185 274.386,293.769c6.747,3.384 24.397,11.437 31.383,14.294Z"/><path d="M2318.2,1288.35c58.062,-92.052 137.427,-137.454 190.527,-157.97c36.995,-14.294 69.286,-14.261 94.817,-1.512c25.528,12.749 75.132,58.454 85.08,95.474c14.707,54.734 9.943,134.854 -21.316,235.743c-0.241,0.779 -0.872,1.386 -1.662,1.6c-0.79,0.214 -1.623,0.003 -2.197,-0.555c-84.562,-82.32 -201.566,-170.482 -343.337,-169.287c-0.839,0.007 -1.604,-0.437 -2,-1.162c-0.397,-0.724 -0.363,-1.616 0.088,-2.331Z"/><path d="M1923.07,1096.75c-122.79,-122.79 -241.16,-156.242 -390.603,-179.957c-0.146,-0.213 -0.277,-0.419 -0.373,-0.595c-0.267,-0.491 -0.314,-1.072 -0.129,-1.599c54.602,-155.192 144.823,-202.014 226.664,-184.7c122.587,25.934 227.204,196.647 167.029,365.6c-0.427,1.2 -2.103,1.736 -2.588,1.251Z"/></g></g></svg>