<?xml version="1.0" encoding="UTF-8" standalone="no"?><!DOCTYPE svg PUBLIC "-//W3C//DTD SVG 1.1//EN" "http://www.w3.org/Graphics/SVG/1.1/DTD/svg11.dtd"><svg width="100%" height="100%" viewBox="0 -1000 4004 5152" version="1.1" xmlns="http://www.w3.org/2000/svg" xmlns:xlink="http://www.w3.org/1999/xlink" xml:space="preserve" xmlns:serif="http://www.serif.com/" style="fill:#b20dff;fill-rule:evenodd;clip-rule:evenodd;stroke-linejoin:round;stroke-miterlimit:2;"><rect id="pipette_alt" x="0.569" y="3.064" width="4000" height="3125" style="fill:none;"/><g><g id="Ebene1"></g><g id="Ebene8"><g><path d="M1592.57,1005.87l-750.661,1431.55l3.151,21.45c26.625,181.236 13.138,410.84 -9.436,609.86l-0.008,0.067c-10.361,93.013 37.351,182.796 120.177,226.225c82.826,43.429 183.811,31.615 254.375,-29.76l0.05,-0.044c150.909,-131.79 332.101,-273.446 496.354,-354.586l19.444,-9.605l753.079,-1436.16c19.592,10.302 38.221,20.079 55.704,29.23c54.15,28.717 114.823,32.556 169.133,15.907c33.177,-10.171 63.295,-28.821 89.466,-52.84c16.956,-15.561 31.927,-33.632 44.406,-54.435c-0,0 0.003,-0.005 0.003,-0.005c29.121,-48.248 34.307,-103.829 23.037,-155.113c-11.637,-52.951 -45.148,-99.738 -93.333,-132.358c-0,0 -81.597,-53.584 -81.597,-53.584c-0.077,-0.046 -1.744,-4.176 -1.744,-4.176c-0,0 2.569,-3.088 2.569,-3.088c78.723,-31.921 161.058,-81.263 239.368,-159.935c58.068,-58.337 114.032,-133.053 164.454,-229.283c85.644,-163.787 96.86,-346.929 45.588,-510.535c-51.227,-163.461 -164.716,-307.439 -328.375,-392.976c-163.466,-85.711 -346.347,-97.015 -509.792,-46.014c-163.444,51 -307.444,164.298 -393.159,327.76c-50.462,96.234 -79.996,184.779 -94.944,265.706c-20.159,109.138 -13.961,204.881 4.585,287.744c0,0 -0.987,2.779 -0.987,2.779l-2.927,0.341l-77.299,-31.671c-55.136,-24.216 -114.8,-26.123 -167.506,-7.023c-51.899,18.807 -97.71,55.751 -124.122,108.839c0,0 -0.002,0.005 -0.002,0.005c-13.997,28.039 -22.662,58.098 -24.807,88.76c-2.127,30.426 1.086,61.312 10.967,90.798c9.809,29.271 24.781,56.219 44.694,79.028c19.766,22.641 37.133,35.81 64.609,49.378c17.412,8.753 35.965,18.025 55.486,27.764Zm119.307,59.587l-731.908,1395.78c24.129,187.823 11.095,420.083 -11.859,622.505c-4.218,38.307 15.462,75.293 49.601,93.193c34.164,17.914 75.815,13.047 104.929,-12.257c153.379,-133.942 337.021,-276.74 505.276,-363.682l733.208,-1398.27c-158.158,-83.376 -350.073,-184.586 -522.925,-273.262c-43.577,-22.355 -85.998,-43.785 -126.322,-64.014Zm41.663,-344.935l0.002,0.001c23.462,11.096 49.057,15.038 73.863,12.164c24.805,-2.874 48.821,-12.562 69.124,-28.728c20.303,-16.165 35.126,-37.4 43.483,-60.931c8.358,-23.532 10.251,-49.359 4.693,-74.709l-0.034,-0.157c-15.188,-67.717 -20.119,-145.798 -3.677,-234.816c12.835,-69.486 38.585,-145.375 81.913,-228.004c68.626,-130.873 183.93,-221.57 314.789,-262.399c130.857,-40.828 277.277,-31.789 408.146,36.84c130.7,68.759 221.143,184.142 261.785,314.971c40.597,130.684 31.392,276.835 -37.265,407.404c-43.227,82.372 -90.915,146.495 -140.6,196.486c-63.608,64.002 -130.282,104.444 -194.213,130.5l-0.128,0.052c-24.417,10.099 -44.918,26.478 -59.7,47.017c-14.765,20.516 -24.057,45.028 -25.869,71.221c-1.793,26.149 3.638,51.732 15.392,74.062c11.733,22.29 29.374,41.54 51.906,54.84c-0.154,-0.092 85.751,46.821 85.751,46.821c23.566,12.387 41.717,31.418 49.802,54.868c8.653,25.1 10.172,53.29 -1.521,79.276c-0,-0 -0.003,0.005 -0.003,0.005c-5.805,12.808 -12.433,24.855 -21.677,34.474c-14.548,15.137 -32.989,25.593 -52.536,31.799c-32.216,10.229 -68.346,8.272 -100.724,-8.515c-171.271,-89.969 -454.682,-236.305 -696.066,-365.645c-112.832,-60.459 -215.977,-118.021 -295.743,-161.609c-14.718,-8.179 -27.183,-19.472 -37.428,-32.424c-10.108,-12.778 -17.271,-27.742 -21.78,-43.729c-4.447,-15.769 -5.173,-32.124 -3.238,-48.077c1.907,-15.723 7.466,-30.867 15.438,-44.912c-0,0 0.002,-0.005 0.002,-0.005c13.577,-23.844 35.96,-39.39 60.424,-46.736c23.642,-7.099 49.774,-4.296 73.417,7.707c-0,0 82.272,40.888 82.272,40.888Z"/></g></g></g></svg>