<?xml version="1.0" encoding="UTF-8" standalone="no"?><!DOCTYPE svg PUBLIC "-//W3C//DTD SVG 1.1//EN" "http://www.w3.org/Graphics/SVG/1.1/DTD/svg11.dtd"><svg width="100%" height="100%" viewBox="0 -1000 8004 5152" version="1.1" xmlns="http://www.w3.org/2000/svg" xmlns:xlink="http://www.w3.org/1999/xlink" xml:space="preserve" xmlns:serif="http://www.serif.com/" style="fill:#b20dff;fill-rule:evenodd;clip-rule:evenodd;stroke-linejoin:round;stroke-miterlimit:2;"><rect id="powerup_mut2" x="1.771" y="1.696" width="8000" height="3125" style="fill:none;"/><g><path d="M2550.45,2501.82c41.422,-0 75,-33.579 75,-75l0,-750.994c0,-0 616.812,-0 616.812,-0c30.334,-0 57.682,-18.274 69.291,-46.299c11.608,-28.026 5.192,-60.285 -16.258,-81.734l-1240.49,-1240.49c-29.29,-29.289 -76.777,-29.289 -106.066,0l-1240.49,1240.49c-21.449,21.449 -27.866,53.708 -16.258,81.734c11.609,28.025 38.957,46.299 69.291,46.299l616.812,-0c-0,-0 -0,750.994 -0,750.994c-0,41.421 33.579,75 75,75l1097.36,-0Zm-75,-150l-947.357,-0c-0,-0.001 -0,-750.994 -0,-750.994c-0,-41.422 -33.579,-75 -75,-75l-510.746,-0c0,-0 838.153,-838.153 1059.42,-1059.42c-0,0 1059.42,1059.42 1059.42,1059.42c-0,-0 -510.746,-0 -510.746,-0c-41.421,-0 -75,33.578 -75,75l0,750.993l0,0.001Z"/><g><path d="M5971.05,-298.193l0.001,-0.006c161.277,-228.964 31.012,-380.664 -175.101,-496.936c-206.109,-116.275 -410.514,-153.372 -571.792,75.595c-161.278,228.968 -1175.96,1629.1 -1175.96,1629.1l-95.461,866.827l838.343,-435.205c-0,0 1018.69,-1410.41 1179.97,-1639.37Zm-966.037,73.511l553.667,312.341c-310.892,432.193 -739.373,1025.65 -841.085,1166.5l-621.76,322.772l70.745,-642.407c102.331,-141.235 528.494,-729.541 838.435,-1159.21l-0.002,0.006Zm630.58,205.371l-553.519,-312.253c111.776,-155.133 200.095,-278.177 238.945,-333.331c113.441,-161.053 254.161,-104.422 399.142,-22.635c145.591,82.129 267.953,172.962 154.03,334.696c-38.727,54.98 -126.943,178.152 -238.598,333.523Z" style="fill:#b20dff;fill-rule:nonzero;"/></g></g></svg>