<?xml version="1.0" encoding="UTF-8" standalone="no"?><!DOCTYPE svg PUBLIC "-//W3C//DTD SVG 1.1//EN" "http://www.w3.org/Graphics/SVG/1.1/DTD/svg11.dtd"><svg width="100%" height="100%" viewBox="0 -1000 8004 5152" version="1.1" xmlns="http://www.w3.org/2000/svg" xmlns:xlink="http://www.w3.org/1999/xlink" xml:space="preserve" xmlns:serif="http://www.serif.com/" style="fill:#b20dff;fill-rule:evenodd;clip-rule:evenodd;stroke-linejoin:round;stroke-miterlimit:2;"><rect id="powerup_refmut2" x="1.771" y="2.52" width="8000" height="3125" style="fill:none;"/><g><path d="M2550.45,2502.64c41.422,0 75,-33.579 75,-75l0,-750.994c0,0 616.812,0 616.812,0c30.334,0 57.682,-18.273 69.291,-46.299c11.608,-28.025 5.192,-60.284 -16.258,-81.734l-1240.49,-1240.49c-29.29,-29.289 -76.777,-29.289 -106.066,0l-1240.49,1240.49c-21.449,21.45 -27.866,53.709 -16.258,81.734c11.609,28.026 38.957,46.299 69.291,46.299l616.812,0c-0,203.518 -0,750.994 -0,750.994c-0,41.421 33.579,75 75,75l1097.36,0Zm-75,-150l-947.357,0c-0,0 -0,-750.994 -0,-750.994c-0,-41.421 -33.579,-75 -75,-75l-510.746,0c0,0 1059.42,-1059.42 1059.42,-1059.42c-0,0 1059.42,1059.42 1059.42,1059.42c-0,0 -510.746,0 -510.746,0c-41.421,0 -75,33.579 -75,75l0,750.994l0,0Z"/><g><path d="M4942.14,645.325l-67.368,343.271c-47.73,243.207 -283.936,440.662 -527.146,440.662c-243.206,-0 -401.91,-197.455 -354.18,-440.662l67.368,-343.271c9.402,-47.91 -21.862,-86.804 -69.772,-86.804c-47.91,-0 -94.437,38.894 -103.84,86.804l-67.368,343.271c-66.534,339.026 154.695,614.273 493.721,614.273c339.029,-0 668.294,-275.247 734.829,-614.273l67.367,-343.271c9.403,-47.91 -21.862,-86.804 -69.768,-86.804c-47.91,-0 -94.441,38.894 -103.843,86.804Zm-390.985,176.01l184.824,-928.592c9.533,-47.909 -21.6,-86.914 -69.48,-87.048c-47.884,-0.131 -94.5,38.657 -104.037,86.566l-184.824,928.592c-9.533,47.91 21.6,86.914 69.484,87.045c47.88,0.135 94.5,-38.653 104.033,-86.563Zm-377.093,-753.064l67.368,-343.271c47.73,-243.206 283.936,-440.661 527.142,-440.661c243.21,-0 401.914,197.455 354.184,440.661l-67.368,343.271c-9.402,47.91 21.862,86.804 69.772,86.804c47.906,0 94.437,-38.894 103.84,-86.804l67.368,-343.271c66.534,-339.026 -154.695,-614.273 -493.724,-614.273c-339.026,0 -668.291,275.247 -734.826,614.273l-67.367,343.271c-9.403,47.91 21.859,86.804 69.768,86.804c47.91,0 94.441,-38.894 103.843,-86.804Z" style="fill:#b20dff;fill-rule:nonzero;"/><path d="M7540,-297.369l0.001,-0.006c161.207,-228.964 30.896,-380.664 -175.253,-496.936c-206.145,-116.275 -410.562,-153.372 -571.769,75.595c-161.208,228.967 -1175.45,1629.1 -1175.45,1629.1l-95.193,866.828l838.208,-435.205c0,-0 1018.25,-1410.41 1179.46,-1639.37Zm-966.013,73.511l553.762,312.341c-310.759,432.193 -739.057,1025.65 -840.726,1166.5l-621.661,322.772l70.548,-642.407c102.287,-141.236 528.269,-729.541 838.078,-1159.21l-0.001,0.006Zm630.642,205.371l-553.615,-312.253c111.729,-155.133 200.009,-278.177 238.842,-333.331c113.392,-161.054 254.13,-104.422 399.136,-22.635c145.616,82.129 268.006,172.961 154.133,334.695c-38.711,54.981 -126.888,178.153 -238.496,333.524Z" style="fill:#b20dff;fill-rule:nonzero;"/></g></g></svg>