<?xml version="1.0" encoding="UTF-8" standalone="no"?><!DOCTYPE svg PUBLIC "-//W3C//DTD SVG 1.1//EN" "http://www.w3.org/Graphics/SVG/1.1/DTD/svg11.dtd"><svg width="100%" height="100%" viewBox="0 -1000 4004 5152" version="1.1" xmlns="http://www.w3.org/2000/svg" xmlns:xlink="http://www.w3.org/1999/xlink" xml:space="preserve" xmlns:serif="http://www.serif.com/" style="fill:#b20dff;fill-rule:evenodd;clip-rule:evenodd;stroke-linejoin:round;stroke-miterlimit:2;"><rect id="question_block" x="1.603" y="2.529" width="4000" height="3125" style="fill:none;"/><g><path d="M3441.96,489.96l-50.938,-16.102c-180.593,-57.09 -298.771,-184.311 -366.463,-368.549l-17.551,-47.77l-2010.81,-0l-17.551,47.77c-67.692,184.238 -185.87,311.459 -366.463,368.549l-50.938,16.102l-0,2015.88l50.938,16.102c180.593,57.09 298.771,184.311 366.463,368.549l17.551,47.77l2010.81,0l17.551,-47.77c67.692,-184.238 185.87,-311.459 366.463,-368.549l50.938,-16.102l0,-2015.88Zm-535.321,-286.588l-1810.08,0c-79.817,186.777 -207.552,319.675 -389.488,391.479l0,1806.09c181.927,71.802 309.659,204.689 389.488,391.479l1810.08,-0c79.817,-186.777 207.552,-319.675 389.488,-391.479l-0,-1806.09c-181.927,-71.802 -309.659,-204.689 -389.488,-391.479Z"/><path d="M2072.44,1842.88c0,-0 0,-34.818 0,-79.78c0,-33.61 13.352,-65.843 37.118,-89.609c23.765,-23.766 55.999,-37.117 89.608,-37.117l152.714,-0c71.182,-0 139.449,-28.277 189.783,-78.611c50.333,-50.333 78.61,-118.6 78.61,-189.782l0,-378.268c0,-148.229 -120.163,-268.392 -268.393,-268.392l-700.546,-0c-71.183,-0 -139.449,28.277 -189.783,78.61c-50.333,50.334 -78.61,118.6 -78.61,189.783l-0,250.903l141.667,-0l-0,-250.904c-0,-33.609 13.351,-65.843 37.117,-89.608c23.766,-23.766 55.999,-37.118 89.609,-37.118l700.546,0c69.989,0 126.726,56.738 126.726,126.726l0,378.268c0,33.61 -13.351,65.843 -37.117,89.609c-23.766,23.766 -55.999,37.117 -89.609,37.117l-152.714,0c-71.182,0 -139.449,28.277 -189.782,78.611c-50.333,50.333 -78.61,118.6 -78.61,189.782l-0,79.78l141.666,-0Z"/><rect x="1906.83" y="2111.08" width="189.552" height="207.062"/></g></svg>