<?xml version="1.0" encoding="UTF-8" standalone="no"?><!DOCTYPE svg PUBLIC "-//W3C//DTD SVG 1.1//EN" "http://www.w3.org/Graphics/SVG/1.1/DTD/svg11.dtd"><svg width="100%" height="100%" viewBox="0 -1000 4004 5152" version="1.1" xmlns="http://www.w3.org/2000/svg" xmlns:xlink="http://www.w3.org/1999/xlink" xml:space="preserve" xmlns:serif="http://www.serif.com/" style="fill:#b20dff;fill-rule:evenodd;clip-rule:evenodd;stroke-linejoin:round;stroke-miterlimit:2;"><rect id="quote" x="1.074" y="2.404" width="4000" height="3125" style="fill:none;"/><g><path d="M839.063,1845.7c-163.941,385.042 -470.808,567.777 -470.808,567.777l-114.341,67.299l167.941,333.525l115.637,-37.584c785.648,-255.353 1326.53,-938.88 1326.53,-1613.59c0,-529.881 -354.502,-844.718 -782.788,-844.718c-432.032,-0 -782.788,350.755 -782.788,782.788c0,347.501 226.956,642.38 540.615,744.505l0,-0Zm187.491,-105.689c-328.317,-27.81 -586.439,-303.407 -586.439,-638.816c0,-353.845 287.277,-641.121 641.121,-641.121c353.845,-0 641.121,265.27 641.121,703.051c0,621.027 -505.518,1243.83 -1228.65,1478.86l-53.587,-106.423c0,0 431.354,-253.889 586.439,-795.554Z"/><path d="M2678.74,1845.7c-163.941,385.042 -470.808,567.777 -470.808,567.777l-114.341,67.299l167.941,333.525l115.637,-37.584c785.648,-255.353 1326.53,-938.88 1326.53,-1613.59c-0,-529.881 -354.503,-844.718 -782.788,-844.718c-432.033,-0 -782.788,350.755 -782.788,782.788c-0,347.501 226.956,642.38 540.615,744.505l0,-0Zm187.49,-105.689c-328.316,-27.81 -586.438,-303.407 -586.438,-638.816c-0,-353.845 287.276,-641.121 641.121,-641.121c353.844,-0 641.121,265.27 641.121,703.051c-0,621.027 -505.519,1243.83 -1228.65,1478.86l-53.587,-106.423c-0,0 431.354,-253.889 586.438,-795.554Z"/></g></svg>