<?xml version="1.0" encoding="UTF-8" standalone="no"?><!DOCTYPE svg PUBLIC "-//W3C//DTD SVG 1.1//EN" "http://www.w3.org/Graphics/SVG/1.1/DTD/svg11.dtd"><svg width="100%" height="100%" viewBox="0 -1000 8004 5152" version="1.1" xmlns="http://www.w3.org/2000/svg" xmlns:xlink="http://www.w3.org/1999/xlink" xml:space="preserve" xmlns:serif="http://www.serif.com/" style="fill:#b20dff;fill-rule:evenodd;clip-rule:evenodd;stroke-linejoin:round;stroke-miterlimit:2;"><rect id="rec" x="1.935" y="1.343" width="8000" height="3125" style="fill:none;"/><g><path d="M3802.23,1793.56l254.872,477.885l174.723,0l-279,-523.123c178.271,-81.714 299.526,-249.966 299.526,-441.493c0,-270.136 -241.217,-493.972 -543.348,-493.972l-628.975,0l0,1458.59l154.167,0l0,-470.644l474.808,0c31.814,0 62.953,-2.482 93.227,-7.241Zm3906.73,29.515c-8,34.562 -19.969,67.207 -35.958,97.918c-26.443,50.793 -61.237,94.409 -104.438,130.802c-43.875,36.962 -95.425,65.507 -154.457,85.982c-60.466,20.973 -126.137,31.267 -196.953,31.267c-85.465,-0 -162.426,-13.908 -230.744,-42.487c-66.446,-27.796 -122.903,-67.54 -169.23,-119.426c-47.213,-52.879 -83.192,-117.532 -108.552,-193.612c-26.382,-79.148 -39.275,-168.162 -39.275,-266.955c-0,-98.755 12.88,-187.595 39.252,-266.43c25.363,-75.821 61.356,-140.341 108.575,-193.227c46.327,-51.886 102.784,-91.63 169.23,-119.426c68.318,-28.579 145.279,-42.487 230.744,-42.487c69.291,0 134.008,10.796 194.095,32.719c59.166,21.588 110.952,51.426 155.193,89.803c43.769,37.969 79.074,83.077 105.969,135.283c16.48,31.991 28.634,65.891 36.501,101.687l134.295,-29.517c-10.458,-47.578 -26.658,-92.619 -48.562,-135.139c-35.034,-68.007 -81.086,-126.72 -138.102,-176.18c-56.545,-49.051 -122.544,-87.516 -198.164,-115.107c-74.697,-27.255 -155.087,-41.049 -241.225,-41.049c-105.177,0 -199.733,17.968 -283.808,53.139c-85.945,35.953 -158.81,87.584 -218.732,154.697c-59.031,66.115 -104.699,146.397 -136.407,241.183c-30.699,91.772 -46.354,195.091 -46.354,310.051c-0,114.92 15.642,218.369 46.331,310.436c31.711,95.133 77.393,175.587 136.43,241.708c59.922,67.113 132.787,118.744 218.732,154.697c84.075,35.171 178.631,53.139 283.808,53.139c87.041,-0 167.691,-13.081 242.011,-38.859c75.753,-26.275 141.685,-63.3 197.988,-110.731c56.978,-48 102.933,-105.473 137.811,-172.465c21.297,-40.908 37.299,-84.371 47.954,-130.408l-133.958,-31.006Zm-2626.12,-198.973l829.148,0l-0,-154.166l-829.148,-0l-0,-502.912c-0,-0 862.844,-0 862.844,-0l0,-154.167l-1017.01,0l0,1468.32l1017.01,-0l0,-154.167l-862.844,-0l-0,-502.912Zm-1848.65,22.533l474.808,-0c212.571,-0 389.182,-149.745 389.182,-339.806c-0,-190.06 -176.611,-339.805 -389.182,-339.805c-0,-0 -474.808,-0 -474.808,-0l0,679.611Z"/><circle cx="1576.83" cy="1524.3" r="653.902"/></g></svg>