<?xml version="1.0" encoding="UTF-8" standalone="no"?>
<!DOCTYPE svg PUBLIC "-//W3C//DTD SVG 1.1//EN" "http://www.w3.org/Graphics/SVG/1.1/DTD/svg11.dtd">
<svg width="100%" height="100%" viewBox="0 0 4004 6152" version="1.1" xmlns="http://www.w3.org/2000/svg" xmlns:xlink="http://www.w3.org/1999/xlink" xml:space="preserve" xmlns:serif="http://www.serif.com/" style="fill-rule:evenodd;clip-rule:evenodd;stroke-linejoin:round;stroke-miterlimit:2;">
    <g transform="matrix(1,0,0,1,0,1500)">
        <g>
            <path d="M1008.4,347.933C788.055,285.893 630.038,323.618 523.925,405.507C399.912,501.209 342.23,663.066 342.23,825.98C342.23,981.671 422.852,1166.2 556.884,1310.77C681.568,1445.26 851.195,1544.51 1038.73,1557.72C1083.35,1733.89 1175.05,1891.37 1299.64,2015.95C1462.53,2178.85 1681.63,2285.52 1925.23,2304.24L1925.23,2538.21L1334.89,3011.02L1365.6,3139.48C1808.57,3222.55 2157.64,3225.42 2640.94,3134.95L2667.24,3014.15C2667.24,3014.15 2553.11,2918.33 2421.85,2811.78C2290.33,2705.02 2141.86,2587.28 2079.39,2537.87L2079.39,2304.24C2322.99,2285.52 2542.1,2178.85 2704.99,2015.95C2829.58,1891.37 2921.28,1733.89 2965.89,1557.72C3153.43,1544.51 3323.06,1445.26 3447.74,1310.77C3581.78,1166.2 3662.4,981.671 3662.4,825.98C3662.4,663.066 3604.72,501.209 3480.7,405.507C3374.59,323.618 3216.57,285.893 2996.23,347.933L2996.23,35.073C2996.23,-40.359 2936.75,-114.598 2817.61,-165.111C2641.32,-239.86 2321.94,-279.072 2002.31,-279.072C1682.68,-279.072 1363.31,-239.86 1187.01,-165.111C1067.87,-114.598 1008.4,-40.359 1008.4,35.073L1008.4,347.933L1008.4,347.933ZM1538.36,3035.96L2002.01,2668.99C2071.22,2724.4 2206.34,2832.23 2329.19,2928.16C2380.43,2968.17 2429.55,3006.07 2470.61,3037.56C2184.51,3125.52 1842.27,3131.51 1538.35,3035.96L1538.36,3035.96ZM2850.39,35.073L2850.39,1313.27C2850.39,1547.31 2755.38,1759.32 2601.87,1912.83C2448.36,2066.34 2236.35,2161.36 2002.31,2161.36C1768.28,2161.36 1556.27,2066.34 1402.76,1912.83C1249.25,1759.32 1154.23,1547.31 1154.23,1313.27L1154.23,35.073C1154.23,24.107 1164.11,16.743 1175.01,7.884C1192.58,-6.387 1216.04,-19.019 1243.94,-30.848C1407.82,-100.333 1705.19,-133.238 2002.31,-133.238C2299.43,-133.238 2596.81,-100.333 2760.69,-30.848C2788.59,-19.019 2812.04,-6.387 2829.61,7.884C2840.52,16.743 2850.39,24.107 2850.39,35.073ZM2991.73,1408.35C3127.52,1388.35 3248.88,1310.78 3340.8,1211.62C3447.94,1096.06 3516.57,950.434 3516.57,825.981C3516.57,708.744 3480.85,589.83 3391.61,520.96C3306.82,455.53 3177.94,439.867 2996.23,500.4L2996.23,1313.28C2996.23,1345.34 2994.71,1377.05 2991.73,1408.35ZM1008.4,500.4C826.69,439.867 697.808,455.53 613.023,520.96C523.781,589.83 488.065,708.744 488.065,825.981C488.065,950.434 556.69,1096.06 663.83,1211.62C755.755,1310.78 877.111,1388.35 1012.9,1408.35C1009.92,1377.05 1008.4,1345.34 1008.4,1313.28L1008.4,500.4Z" style="fill:rgb(178,13,255);"/>
        </g>
    </g>
</svg>
