<?xml version="1.0" encoding="UTF-8" standalone="no"?><!DOCTYPE svg PUBLIC "-//W3C//DTD SVG 1.1//EN" "http://www.w3.org/Graphics/SVG/1.1/DTD/svg11.dtd"><svg width="100%" height="100%" viewBox="0 -1000 4004 5152" version="1.1" xmlns="http://www.w3.org/2000/svg" xmlns:xlink="http://www.w3.org/1999/xlink" xml:space="preserve" xmlns:serif="http://www.serif.com/" style="fill:#b20dff;fill-rule:evenodd;clip-rule:evenodd;stroke-linejoin:round;stroke-miterlimit:2;"><rect id="result_cup" x="0.981" y="2.853" width="4000" height="3125" style="fill:none;"/><g><g><path d="M992.764,240.42c-30.155,-265.596 -31.961,-281.271 -31.961,-281.271l-10.968,-95.195l2099.38,0l-7.794,92.583c-0,-0 -3.467,41.318 -30.591,283.306c128.261,-45.163 278.07,-39.799 402.71,17.775c86.002,39.726 160.517,101.599 206.579,189.238c38.292,72.854 58.401,162.794 47.067,271.04c-14.414,149.43 -115.733,307.775 -257.41,461.819c-102.526,111.475 -226.289,220.911 -350.535,323.871c-165.295,136.975 -331.545,261.606 -451.026,357.077c-138.426,141.743 -318.613,227.097 -530.149,243.7l0,166.524c5.913,161.249 84.66,308.798 181.441,430.737c59.963,75.551 126.521,141.687 188.565,195.405c4.888,4.231 9.474,8.744 14.638,12.382c57.006,40.156 114.083,58.752 153.765,80.216c43.296,23.417 68.258,39.323 68.258,39.323l-38.563,145.525c0,-0 -322.587,2.91 -645.187,2.839c-322.602,-0.072 -645.188,-3.125 -645.188,-3.125l-38.423,-144.99c-0,-0 19.865,-12.011 55.029,-30.097c34.751,-17.874 85.95,-32.934 138.275,-68.42c77.544,-52.59 156.99,-137.137 230.96,-229.768c97.498,-122.094 176.675,-270.243 182.263,-432.154l0,-164.395c-212.992,-16.709 -394.547,-103.039 -533.5,-246.378c-119.23,-95.12 -283.922,-218.703 -447.677,-354.403c-124.245,-102.959 -248.007,-212.395 -350.532,-323.869c-141.677,-154.044 -242.996,-312.389 -257.411,-461.819c-11.334,-108.246 8.775,-198.185 47.067,-271.039c46.062,-87.639 120.577,-149.513 206.58,-189.239c125.163,-57.816 275.708,-62.982 404.34,-17.198Zm1008.6,2285.11c27.299,55.561 60.559,108.263 97.737,157.744c89.413,119.003 206.312,211.417 296.704,294.875c14.266,13.171 27.462,26.299 39.841,39.085c-119.94,-0.705 -277.301,-1.38 -434.665,-1.345c-159.559,0.036 -319.114,0.8 -439.666,1.566l3.093,-2.971c12.922,-12.158 27.485,-23.576 42.283,-35.69c95.259,-77.98 207.618,-175.809 296.978,-294.971c37.216,-49.628 70.459,-102.516 97.695,-158.293Zm860.243,-2490.74c-13.993,129.896 -47.797,432.934 -128.192,1120.77c-55.359,473.637 -324.482,780.95 -732.434,780.95c-407.864,0 -678.657,-306.945 -732.402,-780.663c-78.822,-694.758 -112.709,-993.199 -127.237,-1121.06c-0,-0 1720.27,-0 1720.27,-0l0,-0Zm-42.998,1491c53.922,-37.755 109.219,-77.467 164.213,-118.825c79.133,-59.513 157.507,-122.549 229.813,-188.035c183.166,-165.888 330.728,-343.569 347.998,-511.55c9.375,-101.807 -14.164,-183.097 -59.924,-242.771c-34.49,-44.978 -81.422,-77.308 -133.506,-97.213c-125.904,-48.117 -282.576,-22.303 -378.485,67.917c-20.055,175.966 -47.667,415.331 -85.624,740.086c-14.969,128.068 -43.577,245.394 -84.485,350.391Zm-1803.52,-1088.73c-95.729,-91.631 -253.611,-118.091 -380.326,-69.664c-52.084,19.905 -99.016,52.235 -133.506,97.213c-45.76,59.674 -69.3,140.964 -59.925,242.771c17.271,167.981 164.833,345.662 347.998,511.55c72.307,65.486 150.681,128.522 229.815,188.036c54.63,41.085 109.561,80.545 163.15,118.081c-40.653,-104.835 -68.944,-222.024 -83.456,-349.935c-36.885,-325.107 -63.927,-563.411 -83.75,-738.052Z"/></g></g></svg>