<?xml version="1.0" encoding="UTF-8" standalone="no"?><!DOCTYPE svg PUBLIC "-//W3C//DTD SVG 1.1//EN" "http://www.w3.org/Graphics/SVG/1.1/DTD/svg11.dtd"><svg width="100%" height="100%" viewBox="0 -1000 4004 5152" version="1.1" xmlns="http://www.w3.org/2000/svg" xmlns:xlink="http://www.w3.org/1999/xlink" xml:space="preserve" xmlns:serif="http://www.serif.com/" style="fill:#b20dff;fill-rule:evenodd;clip-rule:evenodd;stroke-linejoin:round;stroke-miterlimit:2;"><rect id="rewire" x="1.262" y="2.675" width="4000" height="3125" style="fill:none;"/><path d="M1740.73,1094.74c76.618,-40.014 150.757,-81.468 224.905,-122.894c418.831,-234 837.885,-467.21 1666.44,-467.21l0,170.834c-787.344,-0 -1185.12,223.151 -1583.12,445.512c-60.73,33.93 -121.466,67.844 -183.476,101.044c69.704,73.789 137.652,149.627 205.52,225.608c76.554,85.706 152.99,171.624 232.18,254.409c329.718,-160.398 718.002,-287.174 1328.9,-287.174l0,170.834c-542.638,-0 -900.232,105.996 -1200.4,244.683c299.115,283.351 654.122,503.215 1200.4,503.215l0,170.833c-627.549,0 -1024.48,-262.806 -1362.21,-594.021c-75.245,39.392 -148.072,80.11 -220.906,120.803c-418.832,234 -837.885,467.21 -1666.44,467.21l0,-170.833c787.345,-0 1185.12,-223.152 1583.12,-445.513c59.516,-33.252 119.036,-66.487 179.711,-99.026c-68.399,-72.544 -135.116,-147.012 -201.755,-221.617c-77.813,-87.116 -155.502,-174.449 -236.107,-258.51c-328.849,159.485 -716.478,285.266 -1324.97,285.266l0,-170.834c540.04,0 896.805,-104.983 1196.13,-242.713c-298.286,-281.436 -652.496,-499.176 -1196.13,-499.176l0,-170.834c625.119,0 1021.4,260.774 1358.22,590.104Z"/></svg>