<?xml version="1.0" encoding="UTF-8" standalone="no"?><!DOCTYPE svg PUBLIC "-//W3C//DTD SVG 1.1//EN" "http://www.w3.org/Graphics/SVG/1.1/DTD/svg11.dtd"><svg width="100%" height="100%" viewBox="0 -1000 4004 5152" version="1.1" xmlns="http://www.w3.org/2000/svg" xmlns:xlink="http://www.w3.org/1999/xlink" xml:space="preserve" xmlns:serif="http://www.serif.com/" style="fill:#b20dff;fill-rule:evenodd;clip-rule:evenodd;stroke-linejoin:round;stroke-miterlimit:2;"><rect id="script" x="2.892" y="1.482" width="4000" height="3125" style="fill:none;"/><g><g><path d="M2790.77,2528.43c0,-600.823 28.509,-1097.38 68.21,-1464.44l444.328,0c302.805,0 535.071,-240.563 535.071,-543.367c-0,-304.373 -224.351,-547.337 -494.991,-547.337c0,-0 -1712.64,-0 -1712.64,-0l-31.25,0.033c-292.537,3.225 -462.882,248.617 -536.533,533.449c-76.213,294.74 -152.278,1058.92 -159.62,1553.23l-251.058,0c-264.507,0 -484.885,242.529 -484.885,547.337c-0,304.809 220.378,547.338 484.885,547.338c121.278,-0 1605.1,-0 1605.1,-0l31.25,-0.563c115.463,-5.944 218.698,-58.632 301.367,-139.921c124.26,-122.186 200.772,-309.957 200.772,-485.766Zm-835.084,-318.425c-95.093,99.412 -154.897,240.19 -154.897,397.337c-0,157.546 51.606,298.111 138.84,397.338l-1287.34,-0c-187.97,-0 -334.885,-180.728 -334.885,-397.338c-0,-216.609 146.915,-397.337 334.885,-397.337l1303.4,0Zm685.084,318.425c0,-1023.79 83.087,-1750.24 163.074,-2059.58c35.84,-138.603 93.049,-258.445 175.896,-345.565l-1374.36,-0c-225.315,-0 -340.789,202.893 -397.195,421.034c-74.356,287.56 -147.602,1032.64 -154.839,1515.68c0,0 1240.05,0 1242.43,0l-0,150c-192.981,0 -344.991,180.304 -344.991,397.337c-0,215.835 124.031,397.338 315.945,397.338c84.245,-0 158.55,-38.889 218.094,-97.439c96.845,-95.228 155.942,-241.791 155.942,-378.811Zm702.618,-2405.14c192.981,-0 344.991,180.303 344.991,397.337c-0,218.576 -166.495,393.367 -385.071,393.367l-426.591,0c22.536,-174.417 47.506,-311.506 72.351,-407.588c55.964,-216.431 170.77,-383.116 394.32,-383.116Z"/></g></g></svg>