<?xml version="1.0" encoding="UTF-8" standalone="no"?><!DOCTYPE svg PUBLIC "-//W3C//DTD SVG 1.1//EN" "http://www.w3.org/Graphics/SVG/1.1/DTD/svg11.dtd"><svg width="100%" height="100%" viewBox="0 -1000 4004 5152" version="1.1" xmlns="http://www.w3.org/2000/svg" xmlns:xlink="http://www.w3.org/1999/xlink" xml:space="preserve" xmlns:serif="http://www.serif.com/" style="fill:#b20dff;fill-rule:evenodd;clip-rule:evenodd;stroke-linejoin:round;stroke-miterlimit:2;"><rect id="shopping_cart3" x="1.723" y="0.088" width="4000" height="3125" style="fill:none;"/><g><g><path d="M2860.68,2679.75c139.429,0 252.627,113.199 252.627,252.628c-0,139.428 -113.198,252.627 -252.627,252.627c-139.429,-0 -252.627,-113.199 -252.627,-252.627c-0,-139.429 113.198,-252.628 252.627,-252.628Zm-1544.66,0c139.429,0 252.627,113.199 252.627,252.628c0,139.428 -113.198,252.627 -252.627,252.627c-139.429,-0 -252.627,-113.199 -252.627,-252.627c-0,-139.429 113.198,-252.628 252.627,-252.628Zm-82.622,-845.393l1640.47,-0c99.83,-0 190.233,-58.976 230.459,-150.343c90.371,-205.265 290.761,-660.421 386.062,-876.883c22.026,-50.028 17.298,-107.796 -12.568,-153.577c-29.866,-45.782 -80.831,-73.385 -135.493,-73.385l-2371.34,-0l-121.082,-578.696c-7.472,-35.714 -38.962,-61.297 -75.449,-61.297l-523.018,-0l0,154.167l460.394,-0c65.62,313.626 364.78,1743.43 469.427,2243.58c28.607,136.724 149.157,234.661 288.842,234.661c410.19,0 1390.58,0 1390.58,0l-0,-154.167c-0,0 -980.393,0 -1390.58,0c-66.71,0 -124.281,-46.772 -137.943,-112.067l-98.756,-471.994Zm-230.159,-1100.02l197.903,945.855l1672.72,0c38.71,0 73.764,-22.868 89.362,-58.296c90.371,-205.266 290.761,-660.421 386.062,-876.883c1.036,-2.354 0.813,-5.071 -0.591,-7.224c-1.405,-2.153 -3.802,-3.452 -6.373,-3.452l-2339.08,0Z"/></g></g></svg>