<?xml version="1.0" encoding="UTF-8" standalone="no"?><!DOCTYPE svg PUBLIC "-//W3C//DTD SVG 1.1//EN" "http://www.w3.org/Graphics/SVG/1.1/DTD/svg11.dtd"><svg width="100%" height="100%" viewBox="0 -1000 4004 5152" version="1.1" xmlns="http://www.w3.org/2000/svg" xmlns:xlink="http://www.w3.org/1999/xlink" xml:space="preserve" xmlns:serif="http://www.serif.com/" style="fill:#b20dff;fill-rule:evenodd;clip-rule:evenodd;stroke-linejoin:round;stroke-miterlimit:2;"><rect id="shopping_bag_simple" x="0.034" y="1.593" width="4000" height="3125" style="fill:none;"/><g><g><path d="M1414.97,738.979c8.318,-282.239 65.328,-485.116 184.914,-607.045c92.124,-93.93 221.381,-144.873 399.993,-144.873c178.334,0 307.338,48.094 399.319,139.449c119.984,119.169 177.491,320.753 185.644,612.469l682.19,0l167.287,2078.62l-2868.88,0l167.287,-2078.62l682.246,0Zm1160.47,150l0,455.801l-125,-0l0,-455.801l-901.13,0l-0,455.801l-125,-0l-0,-455.801l-553.175,0l-143.143,1778.62l2543.77,0l-143.143,-1778.62l-553.175,0Zm-136.302,-150c-5.959,-240.591 -43.02,-409.984 -142.711,-508.998c-67.858,-67.396 -164.989,-97.086 -296.552,-97.086c-131.283,-0 -228.165,32.113 -295.878,101.153c-99.454,101.402 -137.088,271.803 -143.314,504.931l878.455,0Z"/></g></g></svg>