<?xml version="1.0" encoding="UTF-8" standalone="no"?><!DOCTYPE svg PUBLIC "-//W3C//DTD SVG 1.1//EN" "http://www.w3.org/Graphics/SVG/1.1/DTD/svg11.dtd"><svg width="100%" height="100%" viewBox="0 -1000 10004 5152" version="1.1" xmlns="http://www.w3.org/2000/svg" xmlns:xlink="http://www.w3.org/1999/xlink" xml:space="preserve" xmlns:serif="http://www.serif.com/" style="fill:#b20dff;fill-rule:evenodd;clip-rule:evenodd;stroke-linejoin:round;stroke-miterlimit:2;"><rect id="shrug" x="0.515" y="1.522" width="10000" height="3125" style="fill:none;"/><g><g><g><path d="M4656.19,270.825c22.055,570.165 258.906,1007.03 258.906,1007.03l135.61,-73.33c0,0 -219.891,-407.794 -240.465,-939.661l-154.051,5.958Z"/><path d="M4047.15,372.976c46.629,619.114 298.328,1136.59 298.328,1136.59l138.662,-67.383c-0,-0 -238.923,-492.127 -283.258,-1080.79l-153.732,11.578Z"/><path d="M5800.5,476.509l0.006,-0.148c-0,0 39.935,-5.027 142.406,4.091c106.063,9.439 332.154,39.403 -16.274,189.074c-87.982,456.427 -442.359,1649 -1779.39,2071.5l-46.452,-147.002c1568.35,-495.59 1699.39,-2117.54 1699.39,-2117.54l0.323,0.026Z"/></g><path d="M3317.61,2895.46c-912.99,-1542.42 13.556,-2661.37 13.556,-2661.37l-118.404,-98.731c-0,-0 -1001.65,1193.42 -27.82,2838.63l132.668,-78.529Z"/><path d="M1205.69,2798.78l406.11,-1751.72l2.045,-8.823l0,-187.195l-1370.33,-440.875l-48.492,150.725l1260.49,405.536c0,-0 0,53.696 0,53.696l-417.474,1800.74l-0,244.912l1007.33,-529.473l-73.667,-140.152l-766.006,402.63Z"/><path d="M6816.09,2973.99c973.833,-1645.21 -27.82,-2838.63 -27.82,-2838.63l-118.403,98.731c-0,0 926.545,1118.95 13.555,2661.37l132.668,78.529Z"/><path d="M8795.34,2798.78l-766.005,-402.63l-73.668,140.152l1007.33,529.473l-0,-244.912l-417.475,-1800.74c0,-0 0,-53.696 0,-53.696c249.078,-80.135 1260.49,-405.536 1260.49,-405.536l-48.492,-150.725l-1370.33,440.875l-0,187.195l408.155,1760.55Z"/></g></g></svg>