<?xml version="1.0" encoding="UTF-8" standalone="no"?><!DOCTYPE svg PUBLIC "-//W3C//DTD SVG 1.1//EN" "http://www.w3.org/Graphics/SVG/1.1/DTD/svg11.dtd"><svg width="100%" height="100%" viewBox="0 -1000 6004 5152" version="1.1" xmlns="http://www.w3.org/2000/svg" xmlns:xlink="http://www.w3.org/1999/xlink" xml:space="preserve" xmlns:serif="http://www.serif.com/" style="fill:#b20dff;fill-rule:evenodd;clip-rule:evenodd;stroke-linejoin:round;stroke-miterlimit:2;"><rect id="shrug_emoji" x="0.115" y="2.371" width="6000" height="3125" style="fill:none;"/><g><g><path d="M2023.24,1231.69c-4.498,-38.156 -6.788,-76.973 -6.788,-116.311l-0.938,-390.496c-0.554,-268.402 108.006,-511.764 283.743,-688.137c175.97,-176.606 419.38,-285.898 688.137,-286.314c268.907,0.005 512.742,108.937 688.906,285.545c176.003,176.446 284.426,420.245 283.755,688.906l-3.535,390.496c-0.871,37.12 -3.629,73.734 -8.406,109.7c106.278,21.229 181.93,69.351 235.89,130.798c35.175,40.055 60.6,85.088 79.328,129.989c2.128,-58.497 4.935,-117.107 8.441,-172.466c8.057,-127.192 20.445,-237.151 33.541,-291.598c37.959,-146.955 126.44,-244.078 228.912,-291.216c110.594,-50.875 238.74,-43.485 345.701,22.437c166.441,-58.336 310.796,-76.075 411.178,-54.875c95.842,20.24 158.002,73.366 181.289,154.079c20.745,72.161 -4.792,159.61 -88.58,249.368c-78.311,83.893 -210.755,174.863 -391.502,262.703c-72.694,511.148 -156.073,1105.22 -311.885,1395.12c-73.539,136.823 -167,210.306 -272.167,209.464c-65.983,-0.529 -140.826,-30.29 -222.336,-103.13c-52.447,-46.867 -109.261,-112.888 -170.515,-200.86l-0.681,493.732l-129.167,0l-0.994,-721.342l0,-246.059l122.457,213.422c100.517,174.65 188.449,292.386 267.016,362.282c50.6,45.014 94.285,68.934 135.164,69.187c63.619,0.394 109.404,-56.876 153.765,-139.712c153.977,-287.523 229.773,-884.364 300.743,-1386.93l5.131,-36.178l33.094,-15.492c146.129,-68.321 260.548,-138.12 338.655,-205.367c42.733,-36.793 74.004,-71.944 91.506,-105.685c10.739,-20.704 16.294,-39.783 11.227,-57.522c-13.48,-47.327 -62.772,-63.234 -128.052,-66.25c-85.886,-3.967 -196.799,19.084 -321.496,65.295l-34.06,12.709l-28.925,-22.022c-72.449,-55.6 -164.302,-65.022 -243.658,-30.363c-73.727,32.201 -136.615,100.864 -166.928,204.792c-15.489,49.976 -32.07,151.998 -48.094,269.99c-18.677,137.519 -36.546,295.624 -46.922,421.284l-3.888,90.566l-56.066,-71.231c-0.943,-1.293 -4.54,-8.848 -7.008,-22.266l-0.156,0.05l0.007,-0.959c-0.73,-3.905 -1.329,-8.297 -1.741,-13.159c-1.527,-17.984 -3.607,-47.879 -11.877,-83.254c-5.699,-24.378 -15.003,-51.044 -26.702,-78.623c-14.675,-34.593 -34.778,-69.779 -60.868,-102.282c-49.47,-61.63 -124.026,-108.925 -234.481,-113.609c-47.924,169.02 -141.434,318.489 -266.8,433.7c-86.503,79.496 -185.508,148.85 -299.102,184.788c-3.421,1.082 -21.249,-40.441 -18.268,-42.117c97.048,-54.551 188.222,-116.711 262.471,-197.571c90.773,-98.856 157.958,-218.426 196.17,-350.329c24.149,-83.358 36.469,-171.585 34.103,-262.987l-3.534,-390.496c-0.578,-231.573 -95.34,-440.92 -247.429,-592.627c-151.926,-151.544 -361.301,-245.642 -592.627,-245.638c-231.476,-0.358 -441.288,93.31 -593.396,244.869c-152.341,151.792 -246.962,361.565 -247.44,593.396l-0.939,390.496c0,114.07 23.268,222.649 63.916,322.114c4.175,10.216 8.694,20.264 12.912,30.424c39.051,94.058 88.028,182.427 154.183,258.226c60.267,69.052 130.438,128.743 209.79,176.329c7.173,4.302 -12.932,44.572 -21.007,41.114c-91.38,-39.123 -174.603,-92.692 -248.788,-157.439c-85.204,-74.364 -158.633,-162.423 -210.717,-264.367c-5.776,-11.304 -10.724,-23.034 -15.671,-34.768c-18.231,-43.25 -33.234,-88.156 -44.843,-134.419c-92.858,11.697 -157.596,55.513 -202.063,110.911c-26.09,32.503 -46.193,67.689 -60.868,102.282c-11.699,27.579 -21.003,54.246 -26.702,78.624c-8.27,35.374 -10.35,65.27 -11.877,83.253c-0.413,4.862 -1.011,9.254 -1.741,13.159l0.007,0.959l-0.156,-0.05c-2.468,13.418 -6.065,20.973 -7.008,22.266l-56.066,71.231l-3.888,-90.566c-10.376,-125.66 -28.245,-283.765 -46.922,-421.284c-16.024,-117.992 -32.605,-220.014 -48.094,-269.99c-30.313,-103.928 -93.201,-172.591 -166.928,-204.792c-79.356,-34.659 -171.209,-25.237 -243.658,30.363l-28.925,22.022l-34.06,-12.709c-124.697,-46.211 -235.61,-69.262 -321.496,-65.295c-65.28,3.016 -114.572,18.923 -128.052,66.25c-5.067,17.739 0.488,36.818 11.227,57.522c17.502,33.741 48.773,68.892 91.506,105.685c78.107,67.247 192.526,137.046 338.654,205.367l33.095,15.492l5.131,36.178c70.97,502.564 146.766,1099.4 300.743,1386.93c44.362,82.836 90.146,140.106 153.766,139.712c40.879,-0.253 84.564,-24.173 135.163,-69.188c78.567,-69.896 166.499,-187.632 267.015,-362.281l122.458,-213.422l-0.994,967.401l-129.167,0c-0,0 -0.681,-493.732 -0.681,-493.732c-61.254,87.972 -118.069,153.993 -170.516,200.861c-81.511,72.84 -156.354,102.601 -222.337,103.129c-105.166,0.841 -198.627,-72.642 -272.165,-209.464c-155.812,-289.899 -239.191,-883.969 -311.884,-1395.12c-180.747,-87.841 -313.192,-178.811 -391.503,-262.704c-83.788,-89.758 -109.325,-177.207 -88.581,-249.368c23.288,-80.713 85.448,-133.839 181.29,-154.079c100.382,-21.2 244.737,-3.461 411.176,54.876c106.962,-65.923 235.109,-73.313 345.703,-22.438c102.472,47.138 190.953,144.261 228.912,291.216c13.096,54.447 25.484,164.406 33.54,291.598c3.507,55.359 6.314,113.969 8.442,172.466c18.728,-44.901 44.153,-89.934 79.328,-129.989c48.942,-55.732 115.728,-100.503 207.022,-124.187Zm1094.77,241.506c6.25,0 89.171,0 95.421,0c46.646,0 84.516,37.87 84.516,84.516c-0,46.645 -37.87,84.516 -84.516,84.516l-95.421,-0c-46.646,-0 -84.516,-37.871 -84.516,-84.516c-0,-46.646 37.87,-84.516 84.516,-84.516Zm-268.781,-259.885c-0,-10.218 276.33,-10.218 276.33,0c0,76.256 -61.909,138.165 -138.165,138.165c-76.255,0 -138.165,-61.909 -138.165,-138.165Zm-368.396,-331.484c-0,-7.248 -0,-103.402 -0,-110.65c-0,-54.09 43.914,-98.004 98.004,-98.004c54.09,-0 98.004,43.914 98.004,98.004l0,110.65c0,54.09 -43.914,98.004 -98.004,98.004c-54.09,0 -98.004,-43.914 -98.004,-98.004Zm817.114,-0c-0,-7.248 -0,-103.402 -0,-110.65c-0,-54.09 43.914,-98.004 98.004,-98.004c54.09,-0 98.004,43.914 98.004,98.004l0,110.65c0,54.09 -43.914,98.004 -98.004,98.004c-54.09,0 -98.004,-43.914 -98.004,-98.004Z"/></g></g></svg>