<?xml version="1.0" encoding="UTF-8" standalone="no"?><!DOCTYPE svg PUBLIC "-//W3C//DTD SVG 1.1//EN" "http://www.w3.org/Graphics/SVG/1.1/DTD/svg11.dtd"><svg width="100%" height="100%" viewBox="0 -1000 4004 5152" version="1.1" xmlns="http://www.w3.org/2000/svg" xmlns:xlink="http://www.w3.org/1999/xlink" xml:space="preserve" xmlns:serif="http://www.serif.com/" style="fill:#b20dff;fill-rule:evenodd;clip-rule:evenodd;stroke-linejoin:round;stroke-miterlimit:2;"><rect id="snowflake" x="1.27" y="2.086" width="4000" height="3125" style="fill:none;"/><g><path d="M1928.18,680.225l-294.003,-284.866c-25.794,-24.991 -67.025,-24.341 -92.016,1.453c-24.992,25.793 -24.341,67.024 1.452,92.016c0,-0 389.943,377.823 389.943,377.823c0.984,36.189 1.953,73.145 2.896,110.718c3.924,156.318 8.22,323.235 9.617,491.895c-145.559,-85.13 -288.224,-171.787 -421.618,-253.263c-31.659,-19.337 -62.78,-38.403 -93.296,-57.148c0,-0 -132.702,-528.482 -132.702,-528.482c-8.747,-34.833 -44.128,-56.013 -78.962,-47.266c-34.834,8.747 -56.013,44.129 -47.266,78.962c0,0 100.137,398.792 100.137,398.792c-292.737,-181.47 -495.715,-311.769 -495.715,-311.769l-0.315,-0.202c-44.993,-25.977 -102.197,-10.649 -127.987,34.02c-25.79,44.67 -10.463,101.874 34.207,127.664l0.324,0.187c0.332,0.171 215.055,111.008 519.063,274.057c-0.002,-0.001 -396.8,113.062 -396.8,113.062c-34.54,9.842 -54.591,45.874 -44.75,80.415c9.842,34.54 45.875,54.591 80.415,44.75c-0,-0 525.388,-149.705 525.388,-149.705c31.223,16.91 63.001,34.17 95.275,51.754c137.494,74.913 284.141,155.284 430.887,238.925c-146.924,83.75 -293.739,164.214 -431.381,239.207c-32.576,17.749 -64.647,35.167 -96.138,52.222c-0.002,0.001 -524.031,-149.317 -524.031,-149.317c-34.54,-9.842 -70.573,10.21 -80.415,44.75c-9.841,34.54 10.21,70.573 44.75,80.415c0,-0 395.433,112.675 395.433,112.675c-303.526,162.782 -517.858,273.417 -517.858,273.417l-0.332,0.171c-44.994,25.977 -60.321,83.182 -34.531,127.851c25.79,44.67 82.994,59.998 127.663,34.208l0.324,-0.187c0.315,-0.202 203.664,-130.74 496.872,-312.494c-0.002,0.002 -100.485,400.17 -100.485,400.17c-8.747,34.833 12.432,70.215 47.266,78.962c34.834,8.746 70.215,-12.433 78.962,-47.266c-0,-0 133.046,-529.852 133.046,-529.852c30.256,-18.585 61.092,-37.476 92.458,-56.634c133.623,-81.616 276.55,-168.431 422.358,-253.695c-0.932,169.114 -4.656,336.491 -8.531,493.189c-0.917,37.087 -1.868,73.57 -2.844,109.371c-44.353,42.974 -391.327,379.164 -391.327,379.164c-25.793,24.992 -26.444,66.223 -1.452,92.016c24.991,25.793 66.222,26.444 92.016,1.453c-0,-0 295.295,-286.118 295.295,-286.118c-10.789,344.252 -22.143,585.187 -22.143,585.187l-0.017,0.374c-0,51.954 41.876,93.83 93.456,93.83c51.58,-0 93.457,-41.876 93.457,-93.456l-0,-0.374c-0.018,-0.374 -11.392,-241.748 -22.192,-586.551c0,0.003 296.315,287.108 296.315,287.108c25.793,24.991 67.024,24.34 92.016,-1.453c24.992,-25.793 24.341,-67.024 -1.453,-92.016c0,0 -392.342,-380.148 -392.342,-380.148c-0.967,-35.494 -1.908,-71.645 -2.817,-108.387c-3.877,-156.801 -7.603,-324.296 -8.533,-493.498c145.872,85.816 288.802,173.316 422.677,255.155c31.774,19.424 63.01,38.566 93.598,57.352c0,-0 132.578,527.983 132.578,527.983c8.746,34.833 44.128,56.012 78.961,47.266c34.834,-8.747 56.013,-44.129 47.266,-78.962c0,-0 -100.044,-398.422 -100.044,-398.422c292.763,181.126 496.169,310.577 496.169,310.577l0.289,0.184c44.967,25.962 102.171,10.634 127.961,-34.036c25.79,-44.669 10.462,-101.874 -34.207,-127.664l-0.297,-0.171c-0.304,-0.158 -213.676,-111.359 -516.489,-274.098c0.002,0 393.704,-112.181 393.704,-112.181c34.54,-9.842 54.592,-45.875 44.75,-80.415c-9.842,-34.54 -45.874,-54.592 -80.414,-44.75c-0,0 -522.177,148.789 -522.177,148.789c-31.832,-17.242 -64.321,-34.881 -97.331,-52.851c-137.577,-74.89 -284.55,-154.776 -431.563,-238.049c146.865,-83.181 293.654,-162.967 431.069,-237.769c32.708,-17.805 64.903,-35.285 96.465,-52.382c0.001,-0.001 523.537,149.176 523.537,149.176c34.54,9.841 70.572,-10.21 80.414,-44.75c9.842,-34.541 -10.21,-70.573 -44.75,-80.415c0,0 -395.066,-112.57 -395.066,-112.57c303.24,-162.976 517.053,-274.406 517.053,-274.406l0.304,-0.159c44.966,-25.961 60.294,-83.165 34.504,-127.835c-25.79,-44.669 -82.994,-59.997 -127.664,-34.207l-0.297,0.171c-0.289,0.184 -203.278,129.369 -495.62,310.243c0.001,-0.001 99.7,-397.048 99.7,-397.048c8.747,-34.833 -12.432,-70.215 -47.266,-78.962c-34.833,-8.747 -70.215,12.433 -78.961,47.266c-0,0 -132.233,526.613 -132.233,526.613c-30.849,18.946 -62.369,38.262 -94.437,57.866c-133.645,81.699 -276.315,169.039 -421.937,254.72c1.395,-168.779 5.693,-335.796 9.62,-492.201c0.934,-37.229 1.893,-73.851 2.868,-109.735c0,0 390.958,-378.806 390.958,-378.806c25.794,-24.992 26.445,-66.223 1.453,-92.016c-24.992,-25.794 -66.223,-26.444 -92.016,-1.453c-0,0 -295.022,285.852 -295.022,285.852c10.479,-344.102 20.884,-584.984 20.884,-584.984l0.015,-0.342c-0,-51.923 -41.877,-93.799 -93.457,-93.799c-51.58,-0 -93.456,41.876 -93.456,93.456l-0,0.343c0.015,0.342 10.398,240.728 20.868,584.342l-0,-0.002Z"/></g></svg>