<?xml version="1.0" encoding="UTF-8" standalone="no"?><!DOCTYPE svg PUBLIC "-//W3C//DTD SVG 1.1//EN" "http://www.w3.org/Graphics/SVG/1.1/DTD/svg11.dtd"><svg width="100%" height="100%" viewBox="0 -1000 2004 5152" version="1.1" xmlns="http://www.w3.org/2000/svg" xmlns:xlink="http://www.w3.org/1999/xlink" xml:space="preserve" xmlns:serif="http://www.serif.com/" style="fill:#b20dff;fill-rule:evenodd;clip-rule:evenodd;stroke-linejoin:round;stroke-miterlimit:2;"><rect id="sparkle_single_wide" x="1.129" y="2.128" width="2000" height="3125" style="fill:none;"/><path d="M1287.83,694.28c2.635,-12.7 -4.88,-25.306 -17.305,-29.028c-12.425,-3.722 -25.633,2.677 -30.414,14.735c0,-0 -54.208,136.731 -116.855,294.745c-104.768,264.259 -380.449,418.879 -660.57,370.492c-139.676,-24.127 -254.016,-43.878 -254.016,-43.878c-12.465,-2.153 -24.574,5.344 -28.204,17.462c-3.63,12.118 2.364,25.037 13.96,30.091c0,0 106.37,46.361 236.308,102.994c260.594,113.578 405.875,394.293 348.114,672.632c-34.538,166.434 -64.424,310.45 -64.424,310.45c-2.636,12.7 4.88,25.307 17.305,29.028c12.425,3.722 25.633,-2.677 30.414,-14.734c-0,-0 54.208,-136.731 116.855,-294.745c104.768,-264.259 380.449,-418.879 660.57,-370.492c139.675,24.126 254.016,43.877 254.016,43.877c12.465,2.153 24.574,-5.344 28.204,-17.461c3.63,-12.118 -2.364,-25.038 -13.96,-30.092c-0,0 -106.37,-46.36 -236.308,-102.993c-260.594,-113.579 -405.875,-394.293 -348.115,-672.633c34.539,-166.433 64.425,-310.45 64.425,-310.45Z"/></svg>