<?xml version="1.0" encoding="UTF-8" standalone="no"?><!DOCTYPE svg PUBLIC "-//W3C//DTD SVG 1.1//EN" "http://www.w3.org/Graphics/SVG/1.1/DTD/svg11.dtd"><svg width="100%" height="100%" viewBox="0 -1000 4004 5152" version="1.1" xmlns="http://www.w3.org/2000/svg" xmlns:xlink="http://www.w3.org/1999/xlink" xml:space="preserve" xmlns:serif="http://www.serif.com/" style="fill:#b20dff;fill-rule:evenodd;clip-rule:evenodd;stroke-linejoin:round;stroke-miterlimit:2;"><rect id="spiral" x="0.61" y="0.113" width="4000" height="3125" style="fill:none;"/><path d="M2316.98,1748.19c-7.028,40.121 -30.064,81.075 -71.453,116.883c-142.588,123.364 -358.145,61.227 -469.752,-75.467c-266.674,-326.616 20.347,-775.259 391.587,-842.035c730.027,-131.312 1149.17,733.749 681.503,1309.48c-402.946,496.058 -1078.98,502.236 -1513.87,109.671c-271.696,-245.258 -408.112,-614.374 -375.885,-977.597c49.689,-560.039 460.929,-976.65 962.864,-1118.82c45.359,-12.848 71.753,-60.104 58.905,-105.462c-12.848,-45.359 -60.104,-71.753 -105.462,-58.905c-567.826,160.838 -1030.26,634.536 -1086.47,1268.09c-36.917,416.09 120.339,838.551 431.581,1119.51c505.885,456.656 1292.2,448.274 1760.94,-128.771c569.028,-700.517 43.905,-1745.1 -844.346,-1585.33c-488.654,87.895 -844.689,688.296 -493.673,1118.21c168.983,206.966 497.965,283.399 713.855,96.616c76.003,-65.755 115.045,-142.923 127.95,-216.599c8.135,-46.435 -22.961,-90.739 -69.397,-98.874c-46.436,-8.134 -90.739,22.962 -98.874,69.398Z"/></svg>