<?xml version="1.0" encoding="UTF-8" standalone="no"?><!DOCTYPE svg PUBLIC "-//W3C//DTD SVG 1.1//EN" "http://www.w3.org/Graphics/SVG/1.1/DTD/svg11.dtd"><svg width="100%" height="100%" viewBox="0 -1000 4004 5152" version="1.1" xmlns="http://www.w3.org/2000/svg" xmlns:xlink="http://www.w3.org/1999/xlink" xml:space="preserve" xmlns:serif="http://www.serif.com/" style="fill:#b20dff;fill-rule:evenodd;clip-rule:evenodd;stroke-linejoin:round;stroke-miterlimit:2;"><rect id="stamp" x="1.935" y="1.492" width="4000" height="3125" style="fill:none;"/><g><g><g><path d="M1272.27,591.597l0.002,0.002c158.011,184.035 270.131,402.916 327.159,638.68c27.879,115.261 57.917,239.446 84.294,348.493c6.598,27.277 0.318,56.074 -17.038,78.128c-17.355,22.054 -43.868,34.928 -71.932,34.928l-806.498,-0c-109.72,-0 -198.666,88.945 -198.666,198.665c0,120.501 0,476.939 0,597.44c0,52.689 20.931,103.221 58.188,140.478c37.257,37.257 87.788,58.188 140.478,58.188c-0,-0 3.975,-0 3.975,-0c0.001,-0.001 101.838,491.743 101.838,491.743l2215.74,-0l101.837,-491.744c0,0.001 3.976,0.001 3.976,0.001c52.689,-0 103.221,-20.931 140.478,-58.188c37.257,-37.257 58.188,-87.789 58.188,-140.478c-0,-120.501 -0,-476.939 -0,-597.44c-0,-52.689 -20.931,-103.221 -58.188,-140.478c-37.257,-37.257 -87.789,-58.187 -140.478,-58.187c-126.105,-0 -521.618,-0 -808.505,-0c-28.105,-0 -54.652,-12.912 -72.004,-35.02c-17.353,-22.108 -23.587,-50.962 -16.91,-78.263c26.651,-108.968 56.985,-232.992 85.137,-348.098c57.673,-235.804 170.145,-454.683 328.281,-638.864c0,-0.001 0.001,-0.001 0.001,-0.001c83.938,-97.762 112.545,-231.433 75.972,-354.986c-12.463,-42.105 -27.952,-94.43 -45.823,-154.803c-99.63,-336.578 -408.816,-567.504 -759.831,-567.504c-351.014,0 -660.2,230.926 -759.831,567.504c0,0 -45.817,154.783 -45.817,154.783c-36.576,123.566 -7.966,257.25 75.98,355.021Zm1790.96,2030.88l-82.327,397.532l-1957.93,0l-82.327,-397.532l2122.59,-0Zm18.984,-91.667l-2160.55,0l-0.526,-2.544c-0,0 -81.701,0 -132.879,0c-10.697,0 -20.956,-4.249 -28.52,-11.813c-7.563,-7.564 -11.813,-17.822 -11.813,-28.519c0,-120.501 0,-476.939 0,-597.44c0,-22.275 18.058,-40.332 40.333,-40.332c125.913,-0 520.379,-0 806.498,-0c76.607,-0 148.982,-35.142 196.358,-95.344c47.376,-60.202 64.518,-138.809 46.507,-213.27c-26.376,-109.046 -56.415,-233.231 -84.294,-348.492c-62.913,-260.097 -186.605,-501.569 -360.925,-704.599c-0,-0 -0.001,-0.001 -0.001,-0.001c-48.932,-56.99 -65.608,-134.913 -44.288,-206.938c12.462,-42.101 27.949,-94.419 45.817,-154.783c79.723,-269.327 327.131,-454.111 608.009,-454.111c280.879,-0 528.287,184.784 608.01,454.111c17.871,60.373 33.36,112.698 45.823,154.802c21.316,72.013 4.642,149.923 -44.281,206.903c0,0.001 -0,0.001 -0,0.001c-174.356,203.072 -298.363,444.401 -361.952,704.391c-28.152,115.106 -58.486,239.13 -85.137,348.098c-18.227,74.523 -1.209,153.288 46.16,213.638c47.368,60.35 119.835,95.594 196.554,95.594c286.887,-0 682.4,-0 808.505,-0c10.697,-0 20.956,4.249 28.519,11.813c7.564,7.564 11.813,17.822 11.813,28.519c0,120.501 0,476.939 0,597.44c0,10.697 -4.249,20.955 -11.813,28.519c-7.563,7.564 -17.822,11.813 -28.519,11.813c-51.179,0 -132.879,0 -132.879,0l-0.526,2.544Z"/></g></g></g></svg>