<?xml version="1.0" encoding="UTF-8" standalone="no"?><!DOCTYPE svg PUBLIC "-//W3C//DTD SVG 1.1//EN" "http://www.w3.org/Graphics/SVG/1.1/DTD/svg11.dtd"><svg width="100%" height="100%" viewBox="0 -1000 4004 5152" version="1.1" xmlns="http://www.w3.org/2000/svg" xmlns:xlink="http://www.w3.org/1999/xlink" xml:space="preserve" xmlns:serif="http://www.serif.com/" style="fill:#b20dff;fill-rule:evenodd;clip-rule:evenodd;stroke-linejoin:round;stroke-miterlimit:2;"><rect id="triforce" x="0.287" y="0.993" width="4000" height="3125" style="fill:none;"/><g><g><path d="M2067.04,-81.225c-13.77,-23.85 -39.217,-38.542 -66.756,-38.542c-27.54,0 -52.987,14.692 -66.757,38.542l-1746.4,3024.85c-13.769,23.849 -13.769,53.233 0,77.083c13.77,23.85 39.217,38.542 66.757,38.542l3492.8,-0c27.54,-0 52.987,-14.692 66.757,-38.542c13.769,-23.85 13.769,-53.234 -0,-77.083c-0,-0 -1746.4,-3024.85 -1746.4,-3024.85Zm-1679.64,2986.31l1535.05,0l-767.526,-1329.39l-767.527,1329.39Zm2458.25,-1329.39l-767.526,1329.39l1535.05,0l-767.527,-1329.39Zm-845.36,1214.21l-687.266,-1190.38c-0,0 1374.53,0 1374.53,0c0,0 -687.266,1190.38 -687.266,1190.38l-0.001,-0Zm-786.946,-1315.38l1573.89,0l-786.946,-1363.03l-786.947,1363.03Z"/></g></g></svg>