<?xml version="1.0" encoding="UTF-8" standalone="no"?><!DOCTYPE svg PUBLIC "-//W3C//DTD SVG 1.1//EN" "http://www.w3.org/Graphics/SVG/1.1/DTD/svg11.dtd"><svg width="100%" height="100%" viewBox="0 -1000 6004 5152" version="1.1" xmlns="http://www.w3.org/2000/svg" xmlns:xlink="http://www.w3.org/1999/xlink" xml:space="preserve" xmlns:serif="http://www.serif.com/" style="fill:#b20dff;fill-rule:evenodd;clip-rule:evenodd;stroke-linejoin:round;stroke-miterlimit:2;"><rect id="turbofish" x="0.798" y="2.529" width="6000" height="3125" style="fill:none;"/><path d="M2677.38,1054.3c372.489,-466.532 794.803,-676.366 1199.99,-697.649c646.331,-33.951 1258.62,414.672 1574.26,1108.04l16.11,35.389l-16.11,35.389c-315.635,693.368 -927.925,1141.99 -1574.26,1108.04c-405.189,-21.284 -827.503,-231.118 -1199.99,-697.65c-276.938,350.613 -514.108,496.64 -514.108,496.64l-90.181,-145.092c0,0 253.894,-159.424 535.237,-542.805l68.863,-93.839l68.864,93.839c350.789,478.014 751.908,697.908 1140.28,718.309c570.854,29.985 1104.96,-368.37 1393.28,-972.831c-144.93,-303.854 -351.972,-555.627 -594.569,-727.088c-240.006,-169.63 -514.812,-260.655 -798.706,-245.743c-388.37,20.4 -789.489,240.294 -1140.28,718.308l-68.864,93.839l-68.863,-93.839c-281.343,-383.381 -535.237,-542.805 -535.237,-542.805l90.181,-145.091c-0,-0 237.17,146.027 514.108,496.639Zm-1944.67,974.609c-64.187,20.337 -99.788,88.96 -79.451,153.147c20.338,64.187 88.96,99.788 153.147,79.45c64.187,-20.337 99.788,-88.96 79.451,-153.147c-20.338,-64.187 -88.96,-99.787 -153.147,-79.45Zm680.947,-252.79c-82.764,26.223 -128.668,114.706 -102.445,197.469c26.223,82.764 114.707,128.667 197.47,102.444c82.763,-26.223 128.667,-114.706 102.444,-197.469c-26.223,-82.764 -114.706,-128.667 -197.469,-102.444Zm2940.91,-586.594c103.624,0 187.754,84.129 187.754,187.753c-0,103.624 -84.13,187.754 -187.754,187.754c-103.623,-0 -187.753,-84.13 -187.753,-187.754c0,-103.624 84.13,-187.753 187.753,-187.753Zm-2940.91,34.516c-82.764,-26.223 -128.668,-114.707 -102.445,-197.47c26.223,-82.763 114.707,-128.667 197.47,-102.444c82.763,26.223 128.667,114.706 102.444,197.47c-26.223,82.763 -114.706,128.667 -197.469,102.444Zm-680.947,-252.791c-64.187,-20.337 -99.788,-88.96 -79.451,-153.147c20.338,-64.187 88.96,-99.787 153.147,-79.45c64.187,20.337 99.788,88.96 79.451,153.147c-20.338,64.187 -88.96,99.787 -153.147,79.45Z"/></svg>