<?xml version="1.0" encoding="UTF-8" standalone="no"?><!DOCTYPE svg PUBLIC "-//W3C//DTD SVG 1.1//EN" "http://www.w3.org/Graphics/SVG/1.1/DTD/svg11.dtd"><svg width="100%" height="100%" viewBox="0 -1000 4004 5152" version="1.1" xmlns="http://www.w3.org/2000/svg" xmlns:xlink="http://www.w3.org/1999/xlink" xml:space="preserve" xmlns:serif="http://www.serif.com/" style="fill:#b20dff;fill-rule:evenodd;clip-rule:evenodd;stroke-linejoin:round;stroke-miterlimit:2;"><rect id="unsafe_lightning_triangle" x="2.288" y="2.932" width="4000" height="3125" style="fill:none;"/><g><path d="M2114.11,-524.286c-23.066,-39.952 -65.693,-64.563 -111.825,-64.563c-46.132,0 -88.76,24.611 -111.826,64.563c-266.772,462.063 -1685.51,2919.38 -1952.28,3381.45c-23.066,39.951 -23.066,89.174 -0,129.125c23.066,39.951 65.693,64.563 111.825,64.563c533.545,-0 3371.01,-0 3904.56,-0c46.132,-0 88.76,-24.612 111.826,-64.563c23.066,-39.951 23.066,-89.174 -0,-129.125l-1952.28,-3381.45Zm-2013.52,3416.8l3803.38,0l-1901.69,-3293.82l-1901.69,3293.82Z"/><path d="M1952.12,2084.59l165.765,-538.119l-525.869,112.783l371.866,-1001.31l146.943,51.366l-280.384,739.606l525.576,-112.72l-255.525,795.658l230.581,73.453l-458.703,386.619l-150.556,-580.703l230.306,73.366Z"/><g id="Ebene9"></g><g id="Ebene91" serif:id="Ebene9"></g></g></svg>