<?xml version="1.0" encoding="UTF-8" standalone="no"?><!DOCTYPE svg PUBLIC "-//W3C//DTD SVG 1.1//EN" "http://www.w3.org/Graphics/SVG/1.1/DTD/svg11.dtd"><svg width="100%" height="100%" viewBox="0 -1000 6004 5152" version="1.1" xmlns="http://www.w3.org/2000/svg" xmlns:xlink="http://www.w3.org/1999/xlink" xml:space="preserve" xmlns:serif="http://www.serif.com/" style="fill:#b20dff;fill-rule:evenodd;clip-rule:evenodd;stroke-linejoin:round;stroke-miterlimit:2;"><rect id="unwrap_short2" x="1.354" y="1.496" width="6000" height="3125" style="fill:none;"/><g id="_-Gruppe-" serif:id="(Gruppe)"><path d="M1578.71,1505.76c99.038,-265.98 245.562,-495.72 411.433,-662.826c289.196,-291.349 637.668,-389.841 909.936,-209.245c118.656,79.914 179.015,219.192 175.476,388.28c-5.086,243.036 -144.369,552.718 -399.657,792.147c-255.686,239.803 -626.441,410.689 -1085.21,373.172c56.794,88.296 124.373,169.859 203.309,240.718c68.403,61.406 144.873,114.823 226.916,159.818c196.249,107.63 425.607,165.785 668.767,164.114c225.42,-2.209 437.242,-57.446 622.321,-152.947c193.734,-99.968 357.697,-244.638 476.858,-418.858l139.99,97.911c-138.275,193.368 -326.028,352.676 -546.455,460.823c-207.191,101.653 -442.921,158.747 -692.714,156.299c-267.323,-1.837 -516.66,-72.656 -732.68,-190.49c-90.496,-49.363 -174.765,-107.367 -253.152,-171.48c-96.611,-79.018 -183.532,-168.026 -257.216,-266.876c-295.415,251.768 -712.699,616.817 -712.699,616.817l-59.585,52.125l-104.25,-119.169l59.584,-52.125c0,-0 370.921,-324.484 661.553,-573.152c-478.671,23.559 -778.217,-175.72 -931.018,-434.589c-132.85,-225.069 -154.684,-499.401 -84.716,-726.087c53.868,-174.522 162.621,-320.33 312.755,-400.668c304.914,-160.053 617.679,-45.27 810.391,253.347c102.997,159.598 170.868,373.78 180.062,622.941Zm0.232,555.044c423.709,29.662 760.805,-133.302 990.79,-357.675c215.697,-210.433 337.287,-474.741 340.125,-684.018c1.444,-106.429 -27.708,-197.571 -102.403,-247.837c-211.506,-144.509 -478.582,-43.595 -709.383,180.73c-256.069,248.882 -467.173,652.929 -519.129,1108.8Zm-200.672,-1.74c126.133,-453.694 57.936,-846.814 -107.274,-1092.07c-148.32,-220.187 -378.752,-314.558 -604.65,-191.5c-113.196,60.499 -191.326,172.895 -233.048,304.093c-59.289,186.437 -45.1,411.858 60.403,599.793c135.73,241.778 420.201,417.024 884.569,379.687Z"/></g></svg>