<?xml version="1.0" encoding="UTF-8" standalone="no"?><!DOCTYPE svg PUBLIC "-//W3C//DTD SVG 1.1//EN" "http://www.w3.org/Graphics/SVG/1.1/DTD/svg11.dtd"><svg width="100%" height="100%" viewBox="0 -1000 4004 5152" version="1.1" xmlns="http://www.w3.org/2000/svg" xmlns:xlink="http://www.w3.org/1999/xlink" xml:space="preserve" xmlns:serif="http://www.serif.com/" style="fill:#b20dff;fill-rule:evenodd;clip-rule:evenodd;stroke-linejoin:round;stroke-miterlimit:2;"><rect id="wgpu" x="2.615" y="2.703" width="4000" height="3125" style="fill:none;"/><g id="fill"><path d="M588.561,2636.66l914.06,-1223.58c-0,-0 237.801,395.588 237.801,395.588c0,0 -500.598,827.99 -500.598,827.99l-651.263,-0Zm2828.11,-0l-651.263,-0c-0,-0 -500.598,-827.99 -500.598,-827.99c0,0 237.802,-395.588 237.802,-395.588l914.059,1223.58Zm-2865.05,-702.984l311.607,-1580.25c-0,-0 388.317,644.34 388.317,644.34c-142.86,191.026 -699.924,935.908 -699.924,935.908Zm2901.99,-0l-699.924,-935.908c0,-0 388.318,-644.341 388.318,-644.341l311.606,1580.25Zm-1659.91,-909.182l210.062,-283.449c-0,-0 208.929,281.519 208.929,281.519c-0,0 -210.076,350.056 -210.076,350.056l-208.915,-348.126Z"/></g></svg>